<svg width="30" height="30" viewBox="0 0 30 30" fill="none" xmlns="http://www.w3.org/2000/svg">
<g clip-path="url(#clip0_18_11)">
<path d="M30.2017 0H-0.201904V30.1335H30.2017V0Z" fill="#006C35"/>
<path d="M12.9033 7.11699C12.8772 7.12112 12.8523 7.13544 12.831 7.15849C12.757 7.23199 12.6101 7.45849 12.6057 7.72149C12.601 7.86899 12.5825 7.86849 12.6474 7.96249C12.6945 8.06249 12.7412 8.05349 12.8361 7.97949C12.8598 7.95742 12.8802 7.92824 12.896 7.8938C12.9117 7.85937 12.9225 7.82044 12.9276 7.77949C12.9501 7.61199 12.8085 7.85899 12.7907 7.67249C12.7591 7.49899 12.8492 7.42749 12.935 7.25999C12.937 7.18099 12.938 7.11649 12.9033 7.11499V7.11699ZM14.2843 7.12799C14.2577 7.13349 14.2254 7.18399 14.1804 7.30499C14.1467 7.43199 14.0088 7.62449 14.1094 8.02099C14.1915 8.27099 14.2251 8.68099 14.1878 9.13599C14.1456 9.24297 14.0973 9.34435 14.0435 9.43899C13.9385 9.60649 13.8252 9.56349 13.7381 9.50099C13.6567 9.41949 13.5928 9.37799 13.5558 9.11899C13.5625 8.70599 13.5787 8.03049 13.5279 7.88699C13.4529 7.66499 13.3298 7.74449 13.277 7.81199C13.0237 8.15599 12.8986 8.73749 12.8223 9.19999C12.752 9.53699 12.6773 9.43949 12.6245 9.30349C12.4967 9.12499 12.4876 7.73149 12.3333 7.96049C12.0857 9.01049 12.4752 10.1605 12.7449 10.051C12.9397 10.171 13.0631 9.61999 13.1428 9.01699C13.1973 8.84799 13.239 8.82849 13.2669 8.91699C13.2598 9.71699 13.3056 9.89799 13.4442 10.141C13.7536 10.496 14.0095 10.186 14.0297 10.156L14.2702 9.79849C14.324 9.71449 14.3946 9.70949 14.4703 9.78349C14.5439 9.88349 14.5345 10.054 14.6922 10.173C14.8248 10.252 15.1079 10.1925 15.1735 10.023C15.262 9.79799 15.2832 9.72299 15.3242 9.63499C15.3874 9.50999 15.4954 9.56549 15.4954 9.60499C15.4853 9.67449 15.4217 9.74299 15.4648 9.86849C15.5398 9.95199 15.5573 9.89849 15.6017 9.87999C15.7587 9.76849 15.8764 9.26199 15.8764 9.26199C15.8835 9.07349 15.8112 9.08749 15.7651 9.12649C15.7049 9.18099 15.7012 9.19999 15.641 9.25449C15.5643 9.27149 15.4157 9.34699 15.342 9.17749C15.2667 8.97349 15.2663 8.68949 15.2075 8.48449C15.2075 8.46949 15.1066 8.16149 15.2001 8.14149C15.2468 8.15449 15.3474 8.19149 15.3635 8.06799C15.4126 7.94599 15.2576 7.60049 15.152 7.42599C15.0602 7.27599 14.9337 7.25799 14.811 7.41099C14.7252 7.52799 14.738 7.66099 14.7212 7.78349C14.7069 7.87162 14.7067 7.96349 14.7205 8.05177C14.7344 8.14006 14.7619 8.22231 14.8009 8.29199C14.8866 8.54199 15.0424 8.86549 14.9909 9.32049C14.9909 9.32049 14.9004 9.53699 14.7413 9.50899C14.6741 9.48749 14.5671 9.44449 14.5096 8.81399C14.4662 8.33649 14.5204 7.66749 14.3842 7.35449C14.3532 7.23599 14.327 7.12149 14.2833 7.12999L14.2843 7.12799ZM13.8471 7.17799C13.806 7.18299 13.7603 7.25449 13.723 7.39249C13.691 7.49749 13.652 8.04599 13.6584 8.04599C13.6328 8.20949 13.7731 8.27849 13.837 8.06849C13.9328 7.68399 13.9332 7.51849 13.9396 7.35699C13.9248 7.23249 13.8884 7.17249 13.8471 7.17799V7.17799ZM15.4614 7.22099C15.419 7.22699 15.3854 7.26349 15.3726 7.35649C15.3568 7.52987 15.3624 7.70609 15.3891 7.87649C15.4083 7.99799 15.527 8.20149 15.5855 8.31899C15.865 8.87799 16.1341 9.43899 16.3927 10.019C16.4337 10.45 16.4637 10.872 16.4828 11.292C16.5286 12.3031 16.5341 13.3174 16.4993 14.3295C16.6153 14.3365 16.802 14.051 16.8666 13.633C16.909 13.0545 16.8514 11.8745 16.8477 11.533C16.8447 11.3915 16.839 11.222 16.8323 11.045C17.135 11.779 17.4276 12.557 17.7155 13.4105C17.8204 13.3365 17.7968 12.4605 17.7356 12.3355C17.5059 11.6 17.1878 10.873 17.0852 10.5935C17.0485 10.4935 16.9237 10.2105 16.7761 9.88499C16.7489 9.42099 16.7193 9.02799 16.7001 8.90949C16.6523 8.41899 16.8346 8.96499 16.8101 8.67999C16.7509 8.18999 16.5689 7.85699 16.354 7.40849C16.2847 7.26249 16.2868 7.23299 16.1791 7.44449C16.1255 7.62083 16.1102 7.81757 16.1351 8.00749C16.1068 7.94649 16.0722 7.87449 16.0221 7.78499C15.8368 7.54849 15.8253 7.53499 15.6713 7.34249C15.6229 7.29249 15.5304 7.21249 15.4597 7.22199L15.4614 7.22099ZM20.2449 7.29449C20.2244 7.28999 20.2019 7.30499 20.1777 7.36049C20.1466 7.40086 20.1217 7.45068 20.1047 7.50658C20.0877 7.56247 20.079 7.62315 20.0791 7.68449C20.0909 7.94299 20.1218 8.20749 20.1336 8.46599C20.1377 8.50049 20.142 8.53499 20.1461 8.56949C20.1323 8.54258 20.1174 8.51688 20.1017 8.49249C19.763 7.96299 20.2574 8.40599 20.0371 7.99699C19.8508 7.69299 19.7963 7.59699 19.6369 7.41349C19.5568 7.33649 19.5087 7.18949 19.4825 7.43949C19.4685 7.65868 19.4647 7.87903 19.4711 8.09899C19.4711 8.20149 19.542 8.39549 19.6056 8.50949C19.8316 8.92249 20.0626 9.35949 20.2947 9.81999C20.3438 10.7555 20.3566 11.6125 20.4064 12.549C20.3993 12.949 20.3162 13.482 20.2382 13.532C20.2382 13.532 20.1181 13.632 20.0381 13.521C19.9796 13.486 19.7465 12.9425 19.7465 12.9425C19.6274 12.78 19.5477 12.8265 19.463 12.9425C19.2276 13.279 19.123 13.9085 18.9639 14.3425C18.9229 14.4395 18.8072 14.5215 18.6787 14.335C18.3524 13.6725 18.5442 12.729 18.5024 12.9715C18.2119 13.4585 18.3407 14.265 18.4063 14.4385C18.5021 14.7235 18.5798 14.906 18.7661 15.047C18.9343 15.233 19.0688 15.117 19.1411 14.9865C19.312 14.7235 19.3143 14.05 19.3944 13.917C19.4505 13.672 19.5918 13.7145 19.6604 13.823C19.7228 13.9555 19.8063 14.0629 19.9036 14.1355C20.063 14.3445 20.2533 14.3825 20.4417 14.192C20.5698 14.085 20.6532 13.946 20.7282 13.672C20.8086 13.352 20.7689 11.6745 20.7511 10.7415C20.8712 10.9915 20.9902 11.2515 21.1083 11.512C21.1616 12.3094 21.181 13.111 21.1665 13.912C21.1544 14.066 21.5273 13.453 21.525 13.162C21.525 12.908 21.525 12.678 21.525 12.462C21.7059 12.8915 21.8811 13.3285 22.047 13.771C22.1495 13.69 22.1142 12.826 22.0493 12.707C21.8761 12.274 21.6538 11.807 21.4819 11.445C21.4483 10.9885 21.4016 10.45 21.381 10.285C21.3474 10.0275 21.3138 9.64099 21.2657 9.33499C21.2519 9.21599 21.2109 8.83499 21.224 8.79849C21.2442 8.71299 21.3205 8.80099 21.3585 8.70249C21.4147 8.61099 21.1631 7.64149 21.0353 7.36499C20.9896 7.24099 20.9065 7.28399 20.8036 7.48549C20.7081 7.61849 20.743 7.92099 20.7794 8.20899C20.8742 8.94249 20.9586 9.68949 21.0252 10.435C20.9014 10.1615 20.7508 9.83099 20.6021 9.51199C20.5981 9.48149 20.5833 9.36849 20.5833 9.36699C20.5833 9.35399 20.5628 8.76699 20.5453 8.62699C20.5419 8.56999 20.5328 8.55399 20.5729 8.56099C20.5944 8.59242 20.6199 8.61737 20.6479 8.63449C20.6906 8.64599 20.7279 8.53849 20.7023 8.43849C20.5695 8.07499 20.437 7.70999 20.3045 7.34649C20.2902 7.32124 20.2713 7.3028 20.25 7.29349L20.2449 7.29449ZM7.89987 7.31349C7.82622 7.31049 7.74516 7.37799 7.77711 7.50949C7.75861 7.58099 7.92072 7.82249 7.94931 7.95549C7.97487 8.05049 7.92375 8.35549 7.97722 8.38299C8.0307 8.41049 8.09326 8.17199 8.11915 7.94799C8.13328 7.82549 8.12252 7.40499 7.93014 7.31899C7.9202 7.31562 7.91006 7.31378 7.89987 7.31349V7.31349ZM21.9629 7.31599C21.9461 7.31599 21.9259 7.35849 21.8956 7.45699C21.8203 7.63999 21.7947 7.96799 21.8246 8.25699C22.0056 10.077 22.1401 11.84 22.168 13.453C22.1582 13.5992 22.1356 13.7429 22.1008 13.8805C21.9938 14.0845 21.8761 14.3395 21.7644 14.4625C21.6528 14.5855 21.4174 14.703 21.34 14.794C21.0952 15.0045 21.0938 15.244 21.2919 15.2555C21.6333 15.1965 22.0372 15.1555 22.3153 14.5305C22.39 14.3555 22.4774 13.8805 22.4815 13.5905C22.5074 11.8905 22.4667 10.2235 22.2952 8.99349C22.2841 8.87349 22.2487 8.59799 22.2615 8.56199C22.2837 8.47799 22.3961 8.57049 22.4351 8.47349C22.4936 8.38499 22.1462 7.72349 22.0248 7.44149C22.0005 7.37049 21.9854 7.31199 21.9639 7.31549L21.9629 7.31599ZM18.3831 7.34399C18.3689 7.34749 18.3494 7.37949 18.3094 7.45499C18.2142 7.91849 18.1806 8.29749 18.2169 8.58499C18.4618 10.485 18.713 12.217 18.673 14.026C18.7893 14.026 18.9235 13.631 18.9807 13.239C19.0123 12.6985 18.9598 12.37 18.9504 12.0525C18.941 11.735 18.7086 9.15899 18.6615 8.91849C18.6047 8.46449 18.8875 8.85899 18.8566 8.59449C18.7591 8.26149 18.5149 7.77649 18.4385 7.48699C18.41 7.40949 18.4049 7.33699 18.3831 7.34399V7.34399ZM9.6659 7.37999C9.64865 7.38561 9.63288 7.39858 9.62052 7.41732C9.60815 7.43606 9.59973 7.45975 9.59628 7.48549C9.58956 7.52499 9.60805 7.59149 9.5835 7.61149C9.56971 7.63249 9.51624 7.61849 9.51893 7.50799C9.51595 7.4733 9.50625 7.44064 9.49101 7.41399C9.48029 7.40305 9.46727 7.39826 9.45435 7.40049C9.43115 7.40049 9.43182 7.41099 9.41904 7.43999C9.41165 7.4697 9.40723 7.50087 9.40592 7.53249C9.40323 7.57149 9.39247 7.58499 9.37229 7.59049C9.35211 7.59599 9.35581 7.59399 9.33866 7.57749C9.3279 7.56049 9.31579 7.55399 9.31579 7.52749C9.31573 7.49345 9.31186 7.45965 9.30435 7.42749C9.29371 7.40975 9.27939 7.39779 9.26366 7.39349C9.17285 7.39349 9.16613 7.54949 9.17117 7.60799C9.16444 7.61899 9.16108 7.89499 9.28518 7.97149C9.45334 8.08999 9.76478 8.03999 9.75133 7.63999C9.75133 7.60499 9.74628 7.48599 9.74393 7.45349C9.73877 7.42942 9.72802 7.40887 9.7136 7.3955C9.69918 7.38212 9.68204 7.37681 9.66523 7.38049L9.6659 7.37999ZM11.9031 7.38349C11.85 7.38796 11.7982 7.40927 11.7511 7.44599C11.6408 7.60299 11.6149 7.85549 11.7017 8.01249C11.7864 8.07199 11.8698 8.19899 11.8147 8.26899C11.5749 8.64899 10.9517 9.28449 10.92 9.40049C10.92 9.40049 10.92 9.40349 10.92 9.40449C10.9199 9.40564 10.9199 9.40684 10.92 9.40799C10.9199 9.40932 10.9199 9.41066 10.92 9.41199V9.41199C10.9517 9.44349 11.3418 9.44299 11.3852 9.41199C11.5197 9.33849 12.1554 8.25749 12.1554 8.25749C12.1217 8.21549 12.0921 8.18449 12.0592 8.14249C12.0262 8.10049 12.0276 8.05249 12.0592 8.00699C12.2166 7.87099 12.1668 7.57099 12.0844 7.43449C12.025 7.39328 11.9598 7.3739 11.8944 7.37799L11.9031 7.38349ZM17.7508 7.38749C17.7339 7.38749 17.7138 7.42799 17.6835 7.52699C17.6082 7.70999 17.557 8.02699 17.5631 8.32699C17.7259 10.0035 17.776 11.4705 17.8823 13.1465C17.891 13.309 17.8749 13.5465 17.8026 13.638C17.5335 14.0545 17.1477 14.5675 16.7263 14.804C16.6809 14.8795 16.839 15.2015 17.0431 15.2015C17.3845 15.1425 17.6845 14.8575 17.9627 14.107C18.0373 13.932 18.1678 13.557 18.1718 13.267C18.1977 11.567 18.114 10.241 17.9425 9.01099C17.9314 8.89099 17.9391 8.74899 17.9526 8.71099C17.9748 8.67149 18.0498 8.71099 18.0894 8.61449C18.1476 8.52599 17.9337 7.79199 17.812 7.50899C17.7878 7.43799 17.7726 7.38149 17.7511 7.38499L17.7508 7.38749ZM8.68283 7.43749C8.65743 7.44475 8.63371 7.46157 8.61392 7.48635C8.59414 7.51112 8.57896 7.54301 8.56982 7.57899C8.55952 7.84069 8.56335 8.1032 8.58126 8.36399C8.66366 8.79899 8.68956 9.18099 8.72958 9.62599C8.74068 10.222 8.49819 9.88399 8.50929 9.58849C8.56512 9.20449 8.54998 8.60049 8.50021 8.44699C8.46086 8.29399 8.41512 8.25599 8.31926 8.28149C8.24292 8.27449 8.04617 8.59349 7.99101 9.12149C7.96265 9.29031 7.94019 9.46121 7.92375 9.63349C7.89684 9.90649 7.77543 10.0995 7.69068 9.59599C7.6177 9.22999 7.57263 8.32849 7.44987 8.53949C7.41624 9.24349 7.37319 10.482 7.77543 10.609C8.26209 10.679 7.99337 9.38599 8.1696 9.15149C8.20323 9.03549 8.26444 9.03349 8.2705 9.17949V10.2795C8.26613 10.6365 8.4242 10.7425 8.54696 10.8165C8.67442 10.802 8.75918 10.807 8.80895 10.9915C8.82913 11.6248 8.84942 12.2582 8.86983 12.8915C8.86983 12.8915 9.16478 13.0175 9.17891 11.8235C9.19303 11.1235 9.08507 10.534 9.14864 10.398C9.15065 10.264 9.26635 10.257 9.34606 10.3225C9.47353 10.456 9.52969 10.62 9.72745 10.554C10.0285 10.431 10.2094 10.214 10.2141 9.87049C10.1963 9.54399 10.1711 9.21749 10.0759 8.89099C10.089 8.83199 10.0184 8.67749 10.0315 8.61799C10.0856 8.74399 10.166 8.73349 10.1862 8.61799C10.1347 8.36799 10.055 8.12699 9.92655 8.02299C9.81994 7.88349 9.66422 7.91299 9.60704 8.20399C9.58081 8.53899 9.68877 8.93599 9.8529 9.26049C9.88653 9.38699 9.93664 9.59799 9.91512 9.78749C9.82767 9.86149 9.74124 9.83099 9.66792 9.71599C9.66792 9.71599 9.42846 9.44949 9.42846 9.38999C9.49202 8.78549 9.44225 8.71599 9.40693 8.54849C9.38238 8.31649 9.30839 8.24349 9.24852 8.08499C9.18866 7.99049 9.10761 7.99049 9.06859 8.08499C8.96299 8.35799 9.01243 8.94349 9.08911 9.20549C9.14426 9.44699 9.22902 9.59749 9.19 9.59749C9.15637 9.73349 9.08911 9.70199 9.03933 9.54449C8.9687 9.21949 8.95458 8.73499 8.95458 8.51649C8.93339 8.24549 8.90985 7.66649 8.78978 7.51999C8.77881 7.49324 8.76307 7.47152 8.74432 7.45722C8.72556 7.44293 8.70452 7.43662 8.6835 7.43899L8.68283 7.43749ZM10.4008 7.44149C10.3766 7.44599 10.35 7.46649 10.3184 7.47699C10.2148 7.52699 10.1166 7.65899 10.1485 7.91799C10.2709 9.02249 10.3503 9.86799 10.4731 10.968C10.4916 11.0975 10.4186 11.268 10.3248 11.2505C10.1647 11.09 10.125 10.764 9.85222 10.778C9.65447 10.7815 9.42947 11.101 9.40122 11.409C9.36758 11.6535 9.35648 11.919 9.40122 12.132C9.54012 12.382 9.70626 12.354 9.85222 12.298C9.97196 12.2245 10.0708 12.048 10.1132 12.0905C10.1391 12.1585 10.1105 12.733 9.54819 13.1775C9.20245 13.408 8.927 13.463 8.77902 13.0435C8.6872 12.7815 8.78574 11.7825 8.56007 12.0135C7.89213 14.5725 10.1246 14.93 10.3739 12.119C10.39 12.0395 10.4394 11.96 10.4748 11.9795C10.4899 11.989 10.504 12.02 10.5084 12.0795C10.4566 14.6245 8.78104 14.799 8.49651 13.9985C8.42622 13.81 8.40469 13.3895 8.39763 13.138C8.38485 12.9855 8.35929 12.8975 8.33036 12.863C8.2631 12.787 8.17128 12.985 8.15178 13.328C8.12352 13.6045 8.1316 13.678 8.1316 13.946C8.22072 15.956 10.3769 15.0925 10.7273 13.4315C10.9005 12.573 10.7236 11.9255 10.7818 11.846H10.7842H10.7869H10.7892C10.7918 11.8455 10.7944 11.8455 10.797 11.846C11.0109 12.1885 11.3112 11.8895 11.3771 11.7705C11.3851 11.753 11.3956 11.7383 11.4078 11.7276C11.42 11.7168 11.4337 11.7102 11.4478 11.7083C11.462 11.7063 11.4763 11.709 11.4896 11.7162C11.503 11.7235 11.5151 11.735 11.5251 11.75C11.6933 11.9285 11.9848 11.844 12.0461 11.5295C12.0848 11.2147 12.1088 10.8962 12.118 10.5765C12.0094 10.6265 11.9216 10.6645 11.8863 10.7195C11.878 10.732 11.8722 10.7478 11.8698 10.765C11.8604 10.856 11.8513 10.947 11.8419 11.038C11.841 11.0452 11.8393 11.0521 11.8369 11.0585C11.8318 11.0703 11.8249 11.0801 11.8167 11.087C11.7783 11.118 11.7111 11.1005 11.7077 11.0175C11.6559 10.6675 11.443 10.622 11.3135 11.164C11.2268 11.269 11.068 11.2895 11.0516 11.132C11.0727 10.7685 10.9742 10.7195 10.7764 10.891C10.7132 10.171 10.65 9.48299 10.5864 8.76299C10.6688 8.75949 10.7445 8.84799 10.8195 8.70849C10.7381 8.33149 10.5659 7.56549 10.4687 7.49349H10.4664C10.4619 7.48627 10.4572 7.47943 10.4522 7.47299C10.4502 7.47022 10.4481 7.46771 10.4458 7.46549C10.4438 7.46337 10.4417 7.46152 10.4394 7.45999C10.4353 7.45564 10.4308 7.45226 10.426 7.44999C10.4174 7.44595 10.4084 7.44459 10.3994 7.44599L10.4008 7.44149ZM17.0626 7.44699C16.9772 7.44349 16.8827 7.52349 16.9197 7.68249C16.8982 7.76949 17.103 8.06349 17.1363 8.22499C17.1958 8.47499 17.0909 8.70849 17.1528 8.74299C17.2147 8.77749 17.2873 8.48699 17.3186 8.21549C17.3522 7.99599 17.2476 7.54549 17.0983 7.45249C17.0866 7.44885 17.0746 7.44701 17.0626 7.44699ZM11.8722 7.71999C11.9112 7.71449 11.9583 7.76749 11.9811 7.84249C12.004 7.91749 11.9936 7.99949 11.9532 8.01399C11.9129 8.02849 11.8614 7.97549 11.8369 7.89549C11.8123 7.81549 11.8248 7.73649 11.8648 7.72199L11.8722 7.71999ZM21.5001 8.09099C21.4785 8.0879 21.4568 8.09311 21.437 8.10612C21.4172 8.11913 21.4 8.1395 21.387 8.16526C21.374 8.19103 21.3657 8.22133 21.3629 8.25325C21.3601 8.28516 21.3629 8.31762 21.3709 8.34749C21.3514 8.44149 21.5371 8.76049 21.5674 8.93499C21.5943 9.05899 21.526 9.45949 21.5825 9.49599C21.639 9.53249 21.7073 9.21999 21.7345 8.92549C21.7496 8.76449 21.6693 8.19949 21.5327 8.09899C21.5217 8.09447 21.5105 8.09179 21.4991 8.09099H21.5001ZM16.1771 8.28699C16.1842 8.33449 16.1912 8.38199 16.1959 8.42999C16.2121 8.53449 16.2259 8.63849 16.2403 8.74099C16.1788 8.61499 16.128 8.51349 16.1058 8.47749C15.9666 8.23149 16.1088 8.31599 16.1768 8.28699H16.1771ZM17.4033 9.18349C17.386 9.1896 17.3703 9.20298 17.3579 9.22204C17.3456 9.2411 17.3372 9.26504 17.3337 9.29099C17.327 9.33099 17.3465 9.39499 17.3223 9.41499C17.3082 9.43599 17.255 9.42399 17.255 9.31499C17.2518 9.27979 17.2422 9.24657 17.2271 9.21899C17.2163 9.20823 17.2033 9.20361 17.1905 9.20599C17.1672 9.20599 17.1676 9.21649 17.1548 9.24549C17.1478 9.27516 17.1436 9.30612 17.1424 9.33749C17.1393 9.37699 17.1299 9.38999 17.1107 9.39599C17.0916 9.40199 17.0926 9.39949 17.0751 9.38299C17.0647 9.36599 17.0522 9.35899 17.0522 9.32999C17.0523 9.29593 17.0484 9.26212 17.0408 9.22999C17.0303 9.21264 17.016 9.20132 17.0004 9.19799C16.9093 9.19799 16.9039 9.35249 16.9093 9.41099C16.9022 9.42199 16.8979 9.69949 17.022 9.77649C17.1901 9.89449 17.5026 9.84249 17.4894 9.44299C17.4894 9.40749 17.4827 9.28899 17.4804 9.25649C17.4753 9.23243 17.4646 9.21183 17.4503 9.19837C17.4359 9.18491 17.4188 9.17946 17.402 9.18299L17.4033 9.18349ZM11.8049 9.26649C11.7769 9.26605 11.7494 9.27844 11.7262 9.30199C11.5789 9.42099 11.5217 9.77249 11.6135 9.97849C11.6993 10.1595 11.8348 10.093 11.853 10.093C11.9976 10.12 12.0837 9.68999 12.0837 9.68999C12.0837 9.68999 12.0878 9.56949 11.9156 9.79749C11.8436 9.81749 11.8335 9.77899 11.8147 9.71849C11.7974 9.60545 11.8054 9.48713 11.8375 9.38149C11.8533 9.31449 11.8375 9.27149 11.8039 9.26649H11.8049ZM19.7199 9.32099C19.6738 9.31884 19.6287 9.3421 19.5934 9.3863C19.5581 9.4305 19.535 9.49253 19.5286 9.56049C19.5286 9.66049 19.5585 9.71049 19.5528 9.80149C19.544 9.85149 19.5091 9.88549 19.4246 9.82599C19.4378 9.80799 19.3702 9.66549 19.3702 9.66549C19.3046 9.60649 19.2171 9.66899 19.16 9.72399C19.1395 9.7818 19.1273 9.84522 19.1241 9.91033C19.1209 9.97544 19.1267 10.0408 19.1411 10.1025C19.2353 10.3615 19.5582 10.8025 19.7129 10.807C19.7159 10.574 19.731 10.2635 19.7398 10.0705C19.7431 9.99799 19.7549 9.91749 19.8017 9.89949C19.8484 9.88149 19.9301 9.96949 19.9308 9.89349C19.9224 9.74349 19.9026 9.52599 19.8461 9.42299C19.8318 9.39296 19.8131 9.36828 19.7913 9.35091C19.7695 9.33355 19.7453 9.32399 19.7206 9.32299L19.7199 9.32099ZM13.2118 10.1245L13.2054 10.1305L13.2013 10.1345C13.1761 10.1732 13.1491 10.2095 13.1206 10.243C13.0459 10.3695 13.0325 10.457 13.0372 10.7105C13.0412 10.737 13.1788 11.3055 13.2955 11.705C13.3739 12.1205 13.4465 12.596 13.3934 13.045C13.2094 13.639 12.8398 14.1715 12.4829 14.4605C12.301 14.547 12.1439 14.518 12.1019 14.4605C12.0673 14.4251 12.0397 14.3766 12.0219 14.3199C12.0042 14.2633 11.997 14.2007 12.001 14.1385V14.0475C12.297 13.7475 12.635 13.4975 12.8996 12.682C12.9777 12.37 13.0005 12.182 12.9242 11.699C12.8939 11.519 12.8569 11.371 12.7729 11.2435C12.8223 11.205 12.9548 11.349 12.9746 11.2595C12.9437 11.029 12.8374 10.719 12.717 10.5595C12.6114 10.419 12.4967 10.4025 12.4002 10.5315C12.2916 10.6205 12.2687 10.9395 12.3208 11.219C12.379 11.429 12.5361 11.466 12.6477 11.8895C12.6501 11.916 12.6861 12.2055 12.6299 12.323C12.5842 12.532 11.9973 13.2125 11.9556 13.2535L11.9516 13.257H11.9401C11.9401 13.2385 11.9401 13.2375 11.9216 13.237C11.9388 13.237 11.9378 13.234 11.9374 13.2335C11.9357 13.2165 11.9374 13.173 11.9374 13.1035C11.9403 12.9478 11.9486 12.7924 11.9623 12.638V12.638C11.9759 12.6362 11.9895 12.6362 12.003 12.638V12.66H11.9643C11.9643 12.66 11.7064 13.3805 11.6704 13.55C11.1851 14.05 10.6338 14.4195 10.3163 14.9245C10.1509 15.3085 11.4555 14.484 11.6072 14.384C11.6085 14.3859 11.6097 14.3879 11.6109 14.39C11.6398 14.437 11.6421 14.6015 11.7286 14.7495C11.8631 15.0225 12.1527 15.191 12.4332 15.0865C12.904 14.834 13.1731 14.3575 13.4502 13.8285C13.4899 13.7435 13.5511 13.6785 13.6086 13.742C13.7983 14.373 14.3448 14.822 15.0514 14.868C15.2152 14.5725 15.1369 14.427 15.0706 14.3655C15.0501 14.345 14.7192 14.1535 14.667 13.9625C14.6334 13.7845 14.7134 13.627 14.8712 13.5085C15.3249 13.427 15.7708 13.336 16.2023 13.13C16.2067 12.9145 16.2921 12.592 16.3493 12.452C16.3666 12.4027 16.3924 12.3612 16.424 12.3315V12.3315C16.424 12.3315 16.424 12.3315 16.4146 12.3315V12.328C16.4253 12.3235 16.4253 12.3165 16.424 12.309L16.3507 12.2425H14.9068C14.889 12.2255 14.8755 12.215 14.8675 12.2055L14.8651 12.2015C14.8651 12.2002 14.8651 12.1988 14.8651 12.1975H14.8416H14.8819V12.1825C14.8628 12.1825 14.8634 12.1825 14.8638 12.1825C14.8637 12.1813 14.8637 12.1802 14.8638 12.179C14.8764 12.1604 14.8921 12.1468 14.9092 12.1395C15.2549 12.0695 15.8694 11.9195 15.9101 11.0395C15.9037 10.582 15.7782 10.2825 15.4009 10.1995C15.1234 10.231 14.9257 10.63 14.9573 11.0695C14.9442 11.1875 14.9842 11.4195 14.9028 11.446C14.3684 11.5 13.7892 11.9965 13.768 12.2945C13.7697 12.3141 13.7697 12.3339 13.768 12.3535H13.7657H13.763L13.7556 12.415H13.8097H13.8044C13.7687 12.4005 13.723 12.315 13.73 12.19C13.7039 11.5235 13.5754 10.8747 13.3544 10.2935C13.2773 10.1785 13.2434 10.132 13.2198 10.127H13.2091L13.2118 10.1245ZM14.5533 10.4565C14.5362 10.4623 14.5204 10.4753 14.5081 10.494C14.4958 10.5127 14.4873 10.5363 14.4837 10.562C14.477 10.602 14.4965 10.6685 14.4723 10.6885C14.4585 10.7095 14.405 10.697 14.405 10.5885C14.402 10.5532 14.3923 10.5199 14.3771 10.4925C14.3672 10.4825 14.3554 10.4779 14.3435 10.4795C14.3203 10.4795 14.3196 10.49 14.3068 10.519C14.2997 10.5488 14.2954 10.5799 14.294 10.6115C14.291 10.6505 14.2819 10.664 14.2624 10.6695C14.2429 10.675 14.2459 10.673 14.2288 10.6565C14.2184 10.6395 14.2049 10.633 14.2049 10.6035C14.2051 10.5704 14.2016 10.5374 14.1945 10.506C14.1836 10.4882 14.1688 10.4769 14.1528 10.474C14.0616 10.474 14.0563 10.628 14.0616 10.6865C14.0549 10.6975 14.0502 10.9755 14.1743 11.052C14.3425 11.17 14.7387 11.102 14.6418 10.7185C14.6418 10.6835 14.6354 10.5645 14.6331 10.532C14.6278 10.5079 14.6171 10.4874 14.6027 10.474C14.5883 10.4605 14.5712 10.455 14.5544 10.4585L14.5533 10.4565ZM20.1457 10.8C20.1412 10.7983 20.1365 10.7983 20.1319 10.8C20.1319 10.8 19.3584 11.617 19.3402 11.6455C19.2635 11.7455 19.3019 12.103 19.3402 12.062C19.3954 12.0935 20.1733 11.312 20.1585 11.218C20.1921 11.221 20.2086 10.815 20.1457 10.798V10.8ZM15.2828 10.921C15.3226 10.919 15.3619 10.9349 15.3955 10.9665C15.4533 11.0165 15.4887 11.091 15.4843 11.1455C15.4843 11.1455 15.4843 11.1495 15.4843 11.151C15.4835 11.1529 15.4826 11.1547 15.4816 11.1565V11.1625V11.166V11.17C15.4794 11.1748 15.4768 11.1791 15.4739 11.183C15.4463 11.2215 15.3824 11.216 15.3218 11.164C15.2613 11.112 15.2297 11.0395 15.2334 10.9855C15.2332 10.9835 15.2332 10.9815 15.2334 10.9795C15.2342 10.9729 15.2359 10.9666 15.2384 10.961C15.2389 10.9583 15.2397 10.9558 15.2408 10.9535V10.9535L15.2472 10.944C15.2579 10.9321 15.2705 10.9248 15.2838 10.923L15.2828 10.921ZM8.51669 11.1285C8.11613 11.1395 7.52991 11.9085 7.51444 12.3355C7.93687 12.0355 8.35189 11.7435 8.78137 11.4315C8.71209 11.278 8.77734 11.139 8.51669 11.1285ZM9.81388 11.396C9.83667 11.396 9.85887 11.4068 9.8773 11.4267C9.89572 11.4467 9.90943 11.4748 9.91646 11.507C9.92453 11.5391 9.92666 11.5739 9.92264 11.6076C9.91862 11.6414 9.90859 11.6729 9.89359 11.699C9.89359 11.699 9.89359 11.699 9.89359 11.699C9.89359 11.699 9.89359 11.702 9.89359 11.7025C9.87678 11.735 9.81792 11.7215 9.77588 11.7215C9.75512 11.7243 9.73424 11.7186 9.7155 11.7051C9.69676 11.6915 9.68089 11.6705 9.6696 11.6445C9.6548 11.576 9.6992 11.509 9.71904 11.458C9.72178 11.4526 9.72482 11.4476 9.72812 11.443C9.75214 11.4126 9.78267 11.3959 9.81422 11.396H9.81388ZM19.9954 11.6325C19.9241 11.6455 19.8565 11.746 19.8878 11.906C19.8683 11.9995 19.9843 12.3285 20.0146 12.503C20.0415 12.627 19.9809 12.978 20.0361 13.015C20.0912 13.052 20.2244 12.8065 20.2197 12.4935C20.2345 12.3325 20.181 11.739 20.0448 11.6385C20.0288 11.6317 20.012 11.6297 19.9954 11.6325V11.6325ZM11.3489 12.2105C11.286 12.217 11.2298 12.267 11.255 12.3985C11.2513 12.494 11.4329 12.6105 11.444 12.832C11.4699 12.923 11.405 13.215 11.4592 13.2425C11.5133 13.27 11.5776 13.0425 11.6035 12.824C11.6179 12.706 11.5412 12.2915 11.4111 12.218C11.3907 12.211 11.3697 12.2085 11.3489 12.2105V12.2105ZM13.9369 12.7165C13.9419 12.7165 13.9459 12.7165 13.951 12.7165H13.9533C14.1148 12.7815 14.3526 12.788 14.5587 12.82C14.7269 12.8355 14.81 13.0315 14.6526 13.1135C14.4952 13.1955 14.3479 13.2545 14.3472 13.5885C14.3677 13.7535 14.3633 13.8385 14.3472 13.88C14.3457 13.8834 14.344 13.8865 14.3421 13.8895H14.3394C14.3372 13.8918 14.3347 13.8937 14.332 13.895H14.3243C14.2873 13.903 14.2338 13.8505 14.1938 13.8195C14.098 13.7195 13.8292 13.4695 13.7902 12.9385C13.7848 12.8185 13.8454 12.715 13.9422 12.705L13.9369 12.7165ZM7.614 13.1445C7.60391 13.1445 7.58373 13.1895 7.55716 13.2405C7.31904 13.8045 7.29785 14.6465 7.42902 14.898C7.46171 14.954 7.50392 14.996 7.55126 15.0195C7.59859 15.043 7.6493 15.0471 7.69808 15.0315C7.84774 14.935 7.91332 14.4845 7.87801 14.3195C7.8279 14.2035 7.78855 14.185 7.73843 14.284C7.63317 14.6015 7.58944 14.384 7.58003 14.2065C7.56823 13.9082 7.57849 13.6089 7.61063 13.314C7.62375 13.188 7.62308 13.144 7.61299 13.1445H7.614ZM15.7295 13.885C15.71 13.8824 15.6903 13.8876 15.6726 13.9C15.6686 13.9 15.5021 14.0675 15.4483 14.1845C15.4147 14.2215 15.4194 14.2535 15.4291 14.318C15.4547 14.4055 15.4998 14.378 15.5509 14.337C15.6181 14.323 15.6518 14.387 15.6461 14.51C15.6144 14.66 15.6598 14.7175 15.6598 14.727C15.6778 14.7551 15.7018 14.773 15.7277 14.7778C15.7536 14.7825 15.7797 14.7737 15.8018 14.753C15.9635 14.6615 16.0641 14.572 16.2908 14.499C16.35 14.499 16.3466 14.2605 16.2528 14.252C16.13 14.2615 16.0174 14.2705 15.8943 14.414C15.8186 14.44 15.8058 14.372 15.789 14.3105C15.7698 14.1605 15.832 14.0515 15.8196 13.9375C15.7931 13.9071 15.7614 13.8882 15.7281 13.883L15.7295 13.885ZM20.925 14.173C20.8947 14.173 20.8631 14.181 20.8174 14.1865C20.7676 14.202 20.7501 14.2365 20.7414 14.324C20.7447 14.4595 20.8005 14.453 20.8577 14.5065C20.8913 14.569 20.9125 14.626 20.8554 14.729C20.8012 14.8025 20.7625 14.8435 20.7084 14.917C20.6828 14.982 20.6667 15.0815 20.745 15.113C20.8897 15.1735 21.224 14.8505 21.224 14.8435C21.2407 14.8227 21.2527 14.7947 21.2583 14.7634C21.264 14.7321 21.263 14.699 21.2556 14.6685C21.224 14.615 21.1527 14.647 21.1049 14.6385C21.082 14.6385 21.007 14.622 21.0427 14.5235C21.0686 14.4704 21.0891 14.4119 21.1036 14.35C21.1261 14.2765 21.1063 14.2265 21.0249 14.1865C20.9917 14.1764 20.9578 14.1719 20.924 14.173H20.925ZM18.7053 20.7315C18.4742 20.8195 18.4813 21.176 18.6296 21.3315C16.1909 21.3315 12.2993 21.265 11.4323 21.265C10.9473 21.265 9.41433 21.179 9.38373 21.179C9.71265 21.8945 10.1892 22.04 10.8128 22.0545C11.9825 22.0545 17.1545 22.034 18.6491 22.034C18.5428 22.314 18.6585 22.765 18.7419 22.8475L18.7483 22.8535C18.7515 22.8558 18.7549 22.8576 18.7584 22.859H18.7621C18.861 22.8935 18.9047 22.7875 18.938 22.709C19.0984 22.73 20.0011 22.7495 20.0838 22.709C20.1397 22.8315 20.1952 22.947 20.3014 22.927C20.4874 22.8675 20.6341 22.8375 20.6378 22.277C20.6378 22.277 20.6186 21.3195 20.1958 21.3795C20.0949 21.402 19.8155 21.444 19.8155 21.444C19.4906 21.3865 19.2524 21.3805 18.8872 21.3605C18.9208 21.297 18.9804 21.0395 18.9077 20.946C18.8827 20.9188 18.8516 20.9073 18.8209 20.914H18.8169H18.8129C18.8106 20.9112 18.8086 20.908 18.8068 20.9045L18.8045 20.901C18.7863 20.862 18.7766 20.7665 18.7648 20.7425H18.7624H18.7083L18.7053 20.7315ZM18.9286 22.068C19.2985 22.0945 19.6463 22.073 20.0166 22.1C20.0754 22.174 20.0458 22.344 20.0078 22.375L20.0014 22.3785H19.9913C19.8709 22.374 19.8013 22.37 19.6809 22.3655C19.6807 22.3565 19.6798 22.3476 19.6782 22.339C19.65 22.2135 19.4428 22.2215 19.3947 22.32L19.392 22.326L19.3897 22.3335C19.3886 22.3365 19.3877 22.3397 19.387 22.343C19.3868 22.3473 19.3868 22.3517 19.387 22.356C19.3866 22.361 19.3866 22.366 19.387 22.371C19.2242 22.4 19.0782 22.363 18.9161 22.354C18.8687 22.266 18.8741 22.104 18.9303 22.068H18.9286Z" fill="white"/>
</g>
<defs>
<clipPath id="clip0_18_11">
<rect width="30" height="30" rx="15" fill="white"/>
</clipPath>
</defs>
</svg>
