<svg width="30" height="30" viewBox="0 0 30 30" fill="none" xmlns="http://www.w3.org/2000/svg">
<g clip-path="url(#clip0_18_20)">
<path d="M29.9966 0H0V30.065H29.9966V0Z" fill="#74ACDF"/>
<path d="M30 10.04H0V20.08H30V10.04Z" fill="white"/>
<path d="M14.8721 15.11L16.0223 18.835C16.0223 18.835 16.0425 18.905 16.0727 18.885C16.103 18.865 16.0862 18.795 16.0862 18.795L15.1277 14.95M15.1008 16.4C15.0873 16.965 15.3227 17.28 15.2891 17.785C15.2555 18.29 15.4438 18.58 15.4875 18.775C15.5313 18.97 15.4405 19.09 15.4808 19.12C15.5212 19.15 15.6053 18.995 15.5783 18.715C15.5514 18.435 15.4068 18.35 15.4405 17.735C15.4741 17.12 15.2689 16.97 15.3194 16.41" fill="#F6B40E"/>
<path d="M15.4911 19.155C15.4843 19.155 15.4776 19.155 15.4709 19.15C15.4373 19.125 15.4473 19.07 15.4574 19.025C15.4776 18.95 15.481 18.865 15.4642 18.785C15.4473 18.725 15.4305 18.67 15.407 18.615C15.3364 18.425 15.2388 18.165 15.2657 17.785C15.2825 17.54 15.2321 17.335 15.1783 17.125C15.1245 16.915 15.0707 16.69 15.0774 16.4H15.1211C15.1144 16.675 15.1682 16.89 15.2186 17.095C15.2725 17.315 15.3263 17.525 15.3095 17.785C15.2859 18.145 15.3767 18.395 15.4473 18.58C15.4709 18.64 15.4911 18.7 15.5079 18.765C15.5281 18.855 15.5247 18.955 15.5012 19.045C15.4978 19.06 15.4944 19.075 15.4911 19.09C15.4944 19.09 15.4978 19.085 15.5012 19.085C15.5314 19.05 15.5751 18.925 15.555 18.72C15.5449 18.635 15.5281 18.555 15.5012 18.48C15.4507 18.325 15.3969 18.145 15.4171 17.73C15.4305 17.505 15.407 17.275 15.3532 17.065C15.3094 16.9 15.2893 16.72 15.2893 16.54L14.8521 15.125L14.8924 15.095L15.296 16.405L15.3397 16.415C15.3364 16.455 15.333 16.49 15.333 16.53L16.0393 18.825C16.0426 18.84 16.0494 18.85 16.0561 18.86C16.0662 18.855 16.0628 18.82 16.0594 18.81L15.1009 14.965L15.1447 14.94L16.1032 18.785C16.12 18.83 16.1099 18.89 16.0763 18.915C16.0628 18.925 16.0494 18.925 16.0393 18.915C16.0191 18.9 16.0056 18.875 15.9955 18.845L15.333 16.695C15.3431 16.815 15.3633 16.93 15.3902 17.04C15.4473 17.26 15.4709 17.495 15.4574 17.735C15.4373 18.13 15.4877 18.3 15.5348 18.45C15.5651 18.53 15.5819 18.62 15.5953 18.705C15.6155 18.925 15.5718 19.08 15.5247 19.13C15.518 19.145 15.5045 19.155 15.4911 19.155Z" fill="#85340A"/>
<path d="M14.8619 15.03L14.9662 19.13C14.9662 19.13 14.9662 19.205 14.9998 19.205C15.0334 19.205 15.0334 19.13 15.0334 19.13L15.1377 15.03M14.7375 16.355C14.5794 16.87 14.7139 17.29 14.5559 17.745C14.3978 18.2 14.4953 18.565 14.4852 18.77C14.4752 18.975 14.3608 19.035 14.3911 19.08C14.4213 19.125 14.5391 19.035 14.5861 18.76C14.6332 18.485 14.5222 18.33 14.7106 17.775C14.8989 17.22 14.7509 16.975 14.9393 16.48" fill="#F6B40E"/>
<path d="M14.9999 19.24C14.9629 19.24 14.9427 19.185 14.9427 19.13L14.8821 16.76C14.862 16.875 14.8485 16.99 14.8451 17.11C14.8418 17.345 14.8014 17.58 14.7274 17.79C14.6064 18.145 14.6131 18.335 14.6164 18.5C14.6232 18.59 14.6164 18.68 14.603 18.77C14.566 18.98 14.4886 19.095 14.4281 19.12C14.4079 19.13 14.3844 19.125 14.3676 19.105C14.3407 19.065 14.3642 19.02 14.3844 18.985C14.4247 18.925 14.4483 18.85 14.4516 18.77C14.4516 18.705 14.4516 18.64 14.4449 18.58C14.4281 18.365 14.4079 18.075 14.5256 17.735C14.603 17.515 14.6097 17.3 14.6131 17.075C14.6164 16.85 14.6265 16.61 14.7072 16.345L14.7476 16.375C14.6703 16.625 14.6635 16.855 14.6602 17.08C14.6534 17.315 14.6467 17.535 14.566 17.77C14.4516 18.095 14.4752 18.375 14.4886 18.58C14.4954 18.645 14.4987 18.715 14.4954 18.785C14.4886 18.88 14.4617 18.97 14.4146 19.04C14.4079 19.05 14.4046 19.06 14.3978 19.07C14.4046 19.07 14.4079 19.07 14.4146 19.065C14.4483 19.045 14.5189 18.965 14.5525 18.765C14.566 18.685 14.5694 18.6 14.5626 18.515C14.5593 18.34 14.5525 18.145 14.677 17.775C14.7476 17.57 14.7846 17.35 14.788 17.12C14.7913 16.94 14.8182 16.765 14.8653 16.6L14.825 15.05L14.8687 15.045L14.9057 16.48L14.9427 16.51C14.9292 16.545 14.9191 16.58 14.909 16.61L14.9729 19.14C14.9729 19.15 14.9763 19.185 14.983 19.185C14.9898 19.185 14.9931 19.15 14.9931 19.145L15.0974 15.045L15.1411 15.05L15.0368 19.15C15.057 19.18 15.0368 19.24 14.9999 19.24Z" fill="#85340A"/>
<path d="M14.8721 14.95L13.9135 18.8C13.9135 18.8 13.8934 18.87 13.927 18.89C13.9606 18.91 13.9774 18.84 13.9774 18.84L15.1277 15.11M14.418 16.105C14.1389 16.49 14.1557 16.96 13.8934 17.285C13.631 17.61 13.6277 18.01 13.5638 18.195C13.4999 18.38 13.3821 18.37 13.3956 18.43C13.409 18.49 13.5436 18.47 13.6579 18.245C13.7723 18.02 13.7084 17.81 14.0279 17.405C14.3474 17 14.27 16.685 14.5727 16.34" fill="#F6B40E"/>
<path d="M13.9406 18.925C13.9339 18.925 13.9272 18.925 13.9205 18.92C13.907 18.915 13.8969 18.895 13.8902 18.88C13.8835 18.85 13.8835 18.815 13.8935 18.79L14.4451 16.575C14.398 16.665 14.361 16.765 14.3274 16.87C14.2635 17.085 14.166 17.28 14.0449 17.435C13.8397 17.695 13.796 17.87 13.759 18.025C13.7422 18.11 13.7153 18.195 13.6783 18.27C13.5909 18.445 13.4832 18.51 13.4227 18.495C13.4025 18.495 13.3857 18.475 13.3756 18.445C13.3622 18.395 13.3958 18.37 13.4261 18.345C13.4765 18.315 13.5202 18.255 13.5471 18.18C13.5639 18.12 13.5808 18.055 13.5909 17.995C13.6312 17.79 13.685 17.505 13.8835 17.26C14.0113 17.1 14.0718 16.91 14.1357 16.705C14.1996 16.5 14.2669 16.28 14.4081 16.085L14.4384 16.135C14.3039 16.325 14.2366 16.535 14.1761 16.735C14.1088 16.95 14.0483 17.15 13.9137 17.315C13.7287 17.545 13.6749 17.815 13.6379 18.015C13.6279 18.085 13.611 18.15 13.5909 18.215C13.5606 18.3 13.5101 18.37 13.4496 18.405C13.4429 18.41 13.4328 18.42 13.4261 18.425C13.4328 18.43 13.4395 18.43 13.4429 18.43C13.4799 18.43 13.5639 18.385 13.6447 18.23C13.6783 18.16 13.7018 18.085 13.7187 18.005C13.759 17.84 13.8027 17.655 14.018 17.385C14.1357 17.235 14.2265 17.05 14.2904 16.845C14.3375 16.685 14.4048 16.535 14.4922 16.415L14.8588 14.945L14.9025 14.97L14.5662 16.325L14.5696 16.32L14.5965 16.375C14.5729 16.4 14.5527 16.425 14.5326 16.455L13.944 18.82C13.9406 18.835 13.9373 18.85 13.9406 18.86C13.9406 18.865 13.944 18.865 13.944 18.865C13.9474 18.865 13.9474 18.865 13.9507 18.865C13.9574 18.855 13.9642 18.845 13.9675 18.835L15.1178 15.105L15.1581 15.135L14.0012 18.85C13.9944 18.88 13.981 18.9 13.9642 18.915C13.9541 18.925 13.9474 18.925 13.9406 18.925Z" fill="#85340A"/>
<path d="M14.9025 14.885L13.0258 17.89C13.0258 17.89 12.9888 17.945 13.0123 17.98C13.0359 18.015 13.0729 17.96 13.0729 17.96L15.0942 15.17M14.1861 15.695C13.8296 15.895 13.7253 16.335 13.3991 16.485C13.0729 16.635 12.9653 17.005 12.861 17.14C12.7567 17.275 12.6458 17.195 12.6458 17.26C12.6458 17.325 12.7736 17.38 12.935 17.235C13.0964 17.09 13.0964 16.86 13.4933 16.67C13.8901 16.48 13.9002 16.145 14.2702 15.995" fill="#F6B40E"/>
<path d="M13.0324 18.025C13.019 18.025 13.0089 18.015 12.9988 18.005C12.9719 17.965 12.9854 17.905 13.0123 17.87L14.0885 16.145C14.0246 16.205 13.9641 16.27 13.9069 16.345C13.7925 16.51 13.6546 16.63 13.5033 16.7C13.2443 16.825 13.1602 16.965 13.0829 17.085C13.0459 17.155 12.9988 17.215 12.9484 17.26C12.8239 17.37 12.7129 17.375 12.6591 17.33C12.6389 17.315 12.6255 17.29 12.6255 17.255C12.6255 17.195 12.6658 17.19 12.6961 17.19C12.7533 17.19 12.8071 17.16 12.8475 17.11C12.8777 17.065 12.908 17.015 12.9315 16.965C13.0223 16.795 13.1468 16.56 13.3923 16.45C13.5504 16.375 13.658 16.23 13.769 16.08C13.88 15.93 13.9977 15.765 14.1793 15.66L14.1961 15.725C14.0246 15.82 13.9102 15.98 13.7993 16.13C13.6849 16.29 13.5739 16.44 13.4058 16.515C13.1737 16.62 13.0526 16.845 12.9652 17.01C12.9383 17.065 12.908 17.115 12.8744 17.165C12.8239 17.225 12.76 17.26 12.6961 17.26C12.686 17.26 12.6759 17.26 12.6692 17.265C12.6726 17.27 12.6759 17.275 12.6793 17.275C12.7096 17.3 12.8004 17.315 12.9215 17.205C12.9685 17.16 13.0089 17.105 13.0459 17.04C13.1266 16.91 13.2141 16.765 13.4831 16.635C13.6277 16.565 13.7623 16.45 13.8732 16.29C13.9573 16.17 14.0582 16.07 14.1692 16.005L14.8856 14.86L14.9192 14.905L14.26 15.965H14.2667L14.2802 16.03C14.2533 16.04 14.2264 16.055 14.1995 16.07L13.0459 17.915C13.0392 17.925 13.0291 17.95 13.0324 17.96C13.0358 17.97 13.056 17.95 13.0627 17.94L15.084 15.15L15.1143 15.2L13.093 17.99C13.0728 18.01 13.0526 18.025 13.0324 18.025Z" fill="#85340A"/>
<path d="M15.1748 16.5C15.1916 17.045 15.4002 17.285 15.3598 17.78C15.4506 17.385 15.232 17.085 15.2455 16.505M14.936 15.075L15.723 17.635L15.0638 15" fill="#85340A"/>
<path d="M14.7848 16.485C14.6603 17 14.7915 17.34 14.6267 17.775C14.8117 17.465 14.6906 17.06 14.8487 16.53M14.9294 15.035L15 17.85L15.0673 15.035" fill="#85340A"/>
<path d="M14.4248 16.25C14.1793 16.655 14.2096 17.045 13.9473 17.35C14.1961 17.165 14.1894 16.725 14.4719 16.33M14.9327 14.995L14.2735 17.635L15.0605 15.075" fill="#85340A"/>
<path d="M14.1557 15.83C13.8227 16.065 13.7554 16.44 13.4292 16.575C13.7083 16.55 13.8126 16.135 14.1792 15.93M14.946 14.96L13.6579 17.025L15.0435 15.11" fill="#85340A"/>
<path d="M14.9464 14.84L12.4408 16.55C12.4408 16.55 12.3937 16.58 12.4071 16.625C12.4206 16.67 12.4677 16.645 12.4677 16.645L15.054 15.22M14.0787 15.18C13.6986 15.16 13.4867 15.51 13.147 15.46C12.8074 15.41 12.6123 15.69 12.4811 15.755C12.35 15.82 12.2692 15.685 12.2491 15.745C12.2289 15.805 12.3331 15.93 12.5215 15.89C12.7098 15.85 12.767 15.635 13.1807 15.685C13.5943 15.735 13.6919 15.43 14.0719 15.505" fill="#F6B40E"/>
<path d="M12.4406 16.685C12.4171 16.69 12.3969 16.67 12.3868 16.64C12.3835 16.62 12.3835 16.6 12.3868 16.585C12.3969 16.555 12.4137 16.535 12.4339 16.52L13.8801 15.535C13.7994 15.55 13.722 15.58 13.6447 15.62C13.4967 15.705 13.3386 15.74 13.1806 15.72C12.9149 15.69 12.8005 15.765 12.6996 15.835C12.6458 15.88 12.5853 15.905 12.5281 15.925C12.3801 15.955 12.2758 15.89 12.2422 15.82C12.2288 15.795 12.2254 15.76 12.2321 15.735C12.2489 15.685 12.2859 15.7 12.3162 15.715C12.3667 15.745 12.4238 15.75 12.4776 15.725C12.518 15.7 12.555 15.675 12.592 15.64C12.7198 15.535 12.8947 15.39 13.1503 15.43C13.3151 15.455 13.453 15.38 13.5942 15.3C13.7355 15.22 13.8868 15.14 14.0819 15.15V15.215C13.8969 15.205 13.7523 15.285 13.6144 15.36C13.4664 15.44 13.3252 15.52 13.1503 15.495C12.9081 15.46 12.74 15.595 12.6155 15.7C12.5752 15.735 12.5348 15.765 12.4911 15.79C12.4306 15.82 12.3633 15.815 12.3028 15.78C12.2927 15.775 12.2826 15.77 12.2725 15.765C12.2725 15.77 12.2758 15.775 12.2758 15.78C12.2994 15.825 12.3835 15.89 12.5214 15.86C12.5785 15.845 12.629 15.815 12.6794 15.775C12.7837 15.7 12.9048 15.62 13.1839 15.65C13.3353 15.67 13.4866 15.635 13.6312 15.555C13.7456 15.49 13.8633 15.455 13.9844 15.46L14.9395 14.81L14.9597 14.87L14.0785 15.47L14.0718 15.535C14.0449 15.53 14.0214 15.525 13.9945 15.525L12.4507 16.575C12.4406 16.58 12.4339 16.59 12.4272 16.6C12.4306 16.615 12.4541 16.61 12.4608 16.605L15.0471 15.18L15.064 15.245L12.4776 16.675C12.4675 16.68 12.4541 16.685 12.4406 16.685Z" fill="#85340A"/>
<path d="M15.0002 14.825L12.2423 14.98C12.2423 14.98 12.1919 14.98 12.1919 15.03C12.1919 15.08 12.2423 15.08 12.2423 15.08L15.0002 15.235M14.1089 14.64C13.7625 14.405 13.4766 14.605 13.174 14.37C12.8713 14.135 12.6224 14.28 12.4811 14.265C12.3399 14.25 12.3029 14.08 12.2726 14.125C12.2423 14.17 12.3062 14.345 12.4879 14.415C12.6695 14.485 12.7771 14.32 13.1504 14.6C13.5237 14.88 13.6885 14.66 14.0215 14.94" fill="#F6B40E"/>
<path d="M15.0001 15.27L12.2423 15.115C12.2086 15.115 12.1716 15.09 12.1716 15.03C12.1716 14.97 12.2086 14.945 12.2456 14.945L13.8364 14.855C13.7591 14.825 13.6817 14.805 13.601 14.8C13.4429 14.795 13.2849 14.735 13.1436 14.625C12.9048 14.445 12.777 14.455 12.666 14.46C12.6055 14.47 12.5449 14.46 12.4844 14.44C12.3465 14.385 12.2658 14.265 12.249 14.18C12.2423 14.15 12.2456 14.12 12.2591 14.095C12.286 14.055 12.3162 14.095 12.3364 14.12C12.3768 14.18 12.4272 14.215 12.4844 14.225C12.5281 14.225 12.5719 14.225 12.6156 14.215C12.7602 14.19 12.9586 14.16 13.1873 14.335C13.3353 14.45 13.4766 14.46 13.6313 14.465C13.786 14.47 13.9441 14.485 14.1223 14.605L14.1021 14.665C13.934 14.55 13.7793 14.54 13.6279 14.535C13.4698 14.525 13.3219 14.515 13.1671 14.395C12.9519 14.23 12.7602 14.26 12.6223 14.28C12.5752 14.29 12.5281 14.295 12.481 14.29C12.4138 14.28 12.3532 14.24 12.3062 14.17L12.2893 14.15C12.2893 14.16 12.2893 14.165 12.2927 14.175C12.3062 14.225 12.3633 14.33 12.4945 14.38C12.5483 14.4 12.6055 14.405 12.6627 14.395C12.7804 14.39 12.9115 14.38 13.1638 14.565C13.3017 14.67 13.4497 14.725 13.6044 14.73C13.7254 14.735 13.8432 14.775 13.9508 14.845L14.9967 14.785L15.0001 14.85L14.0315 14.905L14.0113 14.96C13.9878 14.94 13.9642 14.925 13.9441 14.91L12.2423 15.005C12.2355 15.005 12.212 15.01 12.212 15.02C12.212 15.03 12.2355 15.035 12.2389 15.035L14.9967 15.19L15.0001 15.27Z" fill="#85340A"/>
<path d="M15.0538 14.84L12.4675 13.415C12.4675 13.415 12.4204 13.385 12.407 13.435C12.3935 13.485 12.4406 13.51 12.4406 13.51L14.9496 15.22M14.2769 14.165C14.0179 13.75 13.7018 13.775 13.4832 13.385C13.2646 12.995 12.9955 12.99 12.8711 12.895C12.7466 12.8 12.7534 12.625 12.713 12.645C12.6727 12.665 12.6861 12.865 12.8375 13.035C12.9888 13.205 13.1301 13.11 13.4025 13.585C13.6749 14.06 13.8868 13.945 14.1188 14.395" fill="#F6B40E"/>
<path d="M14.9396 15.25L12.4306 13.54C12.4104 13.53 12.397 13.51 12.3869 13.485C12.3768 13.445 12.3869 13.4 12.4138 13.38C12.434 13.37 12.4575 13.37 12.4743 13.385L13.9575 14.2C13.897 14.13 13.8297 14.075 13.7591 14.025C13.6145 13.93 13.4833 13.785 13.379 13.605C13.2042 13.3 13.0864 13.235 12.9822 13.18C12.925 13.155 12.8678 13.115 12.8174 13.06C12.6997 12.93 12.656 12.77 12.666 12.68C12.666 12.65 12.6795 12.625 12.6997 12.61C12.7333 12.59 12.7501 12.64 12.7669 12.685C12.7871 12.76 12.8275 12.825 12.8746 12.865C12.9149 12.89 12.9586 12.915 12.999 12.93C13.1369 12.99 13.3286 13.07 13.4934 13.365C13.601 13.555 13.7288 13.645 13.8667 13.74C14.0046 13.835 14.1526 13.935 14.2838 14.145L14.2501 14.19C14.1223 13.99 13.9811 13.89 13.8465 13.8C13.7019 13.7 13.5674 13.61 13.4564 13.41C13.3017 13.135 13.1201 13.055 12.9855 13C12.9385 12.985 12.8947 12.96 12.851 12.93C12.7938 12.885 12.7468 12.81 12.7232 12.72C12.7199 12.71 12.7131 12.695 12.7098 12.685C12.7064 12.695 12.7064 12.705 12.7064 12.715C12.7064 12.77 12.7367 12.895 12.8409 13.015C12.888 13.065 12.9385 13.1 12.9923 13.125C13.1033 13.185 13.2277 13.25 13.4093 13.57C13.5102 13.745 13.6347 13.88 13.7725 13.975C13.8802 14.045 13.9777 14.145 14.0618 14.27L15.0506 14.815L15.0338 14.88L14.1223 14.375L14.1257 14.38L14.0887 14.42C14.0719 14.385 14.0517 14.355 14.0349 14.325L12.4474 13.45C12.4373 13.445 12.4273 13.44 12.4205 13.445C12.4205 13.445 12.4172 13.445 12.4172 13.45C12.4172 13.455 12.4172 13.455 12.4172 13.46C12.4239 13.47 12.4306 13.48 12.4373 13.485L14.9463 15.195L14.9396 15.25Z" fill="#85340A"/>
<path d="M15.0977 14.885L13.0764 12.095C13.0764 12.095 13.0394 12.04 13.0159 12.075C12.9924 12.11 13.0293 12.165 13.0293 12.165L14.906 15.17M14.5563 13.82C14.4217 13.29 14.1258 13.135 14.0249 12.65C13.924 12.165 13.6751 12.005 13.5843 11.85C13.4935 11.695 13.5473 11.53 13.5036 11.53C13.4598 11.53 13.4228 11.72 13.5204 11.96C13.6179 12.2 13.7726 12.2 13.9004 12.79C14.0282 13.38 14.2536 13.395 14.3545 13.945" fill="#F6B40E"/>
<path d="M14.8892 15.195L13.0125 12.19C13.0058 12.18 12.999 12.165 12.9923 12.15C12.9755 12.115 12.9822 12.065 13.0091 12.045C13.026 12.03 13.0495 12.03 13.0663 12.045C13.0764 12.055 13.0865 12.065 13.0932 12.075L14.2603 13.685C14.2199 13.585 14.1728 13.49 14.119 13.405C14.008 13.235 13.9273 13.03 13.8802 12.805C13.7961 12.42 13.702 12.295 13.6212 12.18C13.5742 12.125 13.5338 12.055 13.5035 11.98C13.4295 11.795 13.4262 11.63 13.4564 11.55C13.4665 11.52 13.4834 11.5 13.5069 11.5C13.5473 11.5 13.5506 11.56 13.5506 11.605C13.5506 11.69 13.5674 11.77 13.6044 11.83C13.6347 11.875 13.6683 11.92 13.702 11.955C13.8163 12.09 13.9744 12.275 14.0484 12.64C14.0988 12.875 14.1964 13.035 14.2973 13.2C14.3982 13.365 14.5091 13.54 14.5798 13.81L14.536 13.835C14.4721 13.58 14.3645 13.41 14.2636 13.245C14.156 13.075 14.0551 12.91 14.0047 12.66C13.934 12.315 13.7827 12.135 13.6717 12.005C13.6347 11.965 13.6011 11.92 13.5674 11.87C13.5271 11.795 13.5035 11.7 13.5035 11.605C13.5035 11.59 13.5035 11.575 13.5002 11.565C13.4968 11.57 13.4934 11.575 13.4934 11.58C13.4766 11.625 13.4665 11.76 13.5405 11.94C13.5708 12.01 13.6078 12.07 13.6515 12.125C13.739 12.245 13.8365 12.375 13.9239 12.775C13.971 12.99 14.0484 13.19 14.156 13.355C14.2401 13.485 14.304 13.635 14.3511 13.8L15.1179 14.855L15.0876 14.905L14.3813 13.93L14.3376 13.95C14.3309 13.91 14.3208 13.875 14.3141 13.835L13.0663 12.115C13.0596 12.105 13.0428 12.085 13.036 12.095C13.0293 12.105 13.0327 12.1 13.0394 12.115C13.0428 12.125 13.0461 12.13 13.0495 12.14L14.9262 15.145L14.8892 15.195Z" fill="#85340A"/>
<path d="M14.0114 15.29C13.6448 15.315 13.4834 15.625 13.1504 15.565C13.4127 15.7 13.6179 15.375 14.008 15.395M14.9699 14.935L13.2479 16.105L15.0237 15.125" fill="#85340A"/>
<path d="M14.0214 14.71C13.675 14.525 13.4463 14.72 13.1537 14.475C13.3622 14.75 13.6347 14.57 13.9912 14.805M14.9968 14.925L13.1033 15.025L14.9968 15.13" fill="#85340A"/>
<path d="M14.1794 14.175C13.907 13.81 13.6447 13.855 13.4395 13.465C13.5639 13.835 13.8599 13.825 14.1256 14.245M15.0236 14.93L13.2478 13.95L14.9698 15.12" fill="#85340A"/>
<path d="M14.4621 13.775C14.304 13.28 14.0518 13.18 13.9609 12.695C13.9778 13.11 14.2569 13.265 14.3948 13.81M15.0473 14.955L13.6616 13.04L14.9497 15.105" fill="#85340A"/>
<path d="M15.1277 14.95L13.9775 11.225C13.9775 11.225 13.9573 11.155 13.927 11.175C13.8968 11.195 13.9136 11.265 13.9136 11.265L14.8721 15.11M14.899 13.66C14.9125 13.095 14.677 12.78 14.7107 12.275C14.7443 11.77 14.556 11.48 14.5122 11.285C14.4685 11.09 14.5593 10.97 14.519 10.94C14.4786 10.91 14.3945 11.07 14.4214 11.345C14.4483 11.62 14.593 11.71 14.5593 12.325C14.5257 12.94 14.7309 13.09 14.6804 13.65" fill="#F6B40E"/>
<path d="M14.852 15.12L13.8935 11.275C13.8767 11.23 13.8868 11.17 13.9204 11.145C13.9338 11.135 13.9473 11.135 13.9574 11.145C13.9776 11.16 13.991 11.185 14.0011 11.215L14.6637 13.365C14.6536 13.25 14.6334 13.135 14.6065 13.02C14.5493 12.8 14.5258 12.56 14.5392 12.325C14.5594 11.925 14.5056 11.755 14.4585 11.605C14.4316 11.525 14.4114 11.44 14.4013 11.35C14.3812 11.13 14.4249 10.975 14.472 10.925C14.4888 10.905 14.509 10.9 14.5291 10.91C14.5628 10.935 14.5527 10.99 14.5426 11.035C14.5224 11.11 14.519 11.195 14.5359 11.275C14.5527 11.335 14.5695 11.39 14.593 11.445C14.6637 11.635 14.7612 11.895 14.7343 12.275C14.7175 12.52 14.7679 12.725 14.8217 12.935C14.8755 13.145 14.9294 13.37 14.9226 13.66H14.8789C14.8856 13.385 14.8318 13.17 14.7814 12.965C14.7276 12.745 14.6738 12.535 14.6906 12.275C14.7141 11.915 14.6233 11.665 14.5527 11.48C14.5291 11.42 14.509 11.36 14.4921 11.295C14.472 11.205 14.4753 11.105 14.4989 11.015C14.5022 11 14.5056 10.985 14.509 10.97C14.5056 10.97 14.4989 10.975 14.4955 10.98C14.4652 11.02 14.4249 11.145 14.4451 11.34C14.4551 11.42 14.472 11.5 14.4989 11.575C14.5493 11.735 14.6065 11.915 14.5829 12.33C14.5695 12.555 14.593 12.785 14.6468 13C14.6906 13.165 14.7108 13.345 14.7108 13.525L15.148 14.94L15.1076 14.97L14.704 13.66L14.6603 13.65C14.6637 13.61 14.667 13.575 14.667 13.535L13.9608 11.235C13.9574 11.22 13.9507 11.21 13.9439 11.2C13.9338 11.205 13.9372 11.235 13.9406 11.25L14.8991 15.095L14.852 15.12Z" fill="#85340A"/>
<path d="M15.1378 15.03L15.0336 10.93C15.0336 10.93 15.0336 10.855 15 10.855C14.9663 10.855 14.9663 10.93 14.9663 10.93L14.8621 15.03M15.2623 13.705C15.4204 13.19 15.2858 12.77 15.4439 12.315C15.602 11.86 15.5044 11.495 15.5145 11.285C15.5246 11.075 15.639 11.02 15.6087 10.975C15.5784 10.93 15.4607 11.02 15.4136 11.295C15.3665 11.57 15.4775 11.725 15.2892 12.28C15.1009 12.835 15.2488 13.08 15.0605 13.575" fill="#F6B40E"/>
<path d="M15.1142 15.03L15.0772 13.59L15.0402 13.56C15.0537 13.525 15.0638 13.49 15.0739 13.46L15.01 10.93C15.01 10.92 15.0066 10.885 14.9999 10.885C14.9931 10.885 14.9898 10.92 14.9898 10.925L14.8855 15.025L14.8418 15.02L14.9461 10.92C14.9461 10.87 14.9629 10.815 15.0032 10.815C15.0436 10.815 15.0604 10.87 15.0604 10.925L15.1209 13.29C15.1411 13.175 15.1546 13.055 15.1579 12.94C15.1647 12.705 15.2017 12.475 15.2757 12.265C15.3967 11.91 15.39 11.72 15.3866 11.555C15.3799 11.465 15.3866 11.375 15.4001 11.285C15.4371 11.075 15.5144 10.96 15.575 10.935C15.5952 10.925 15.6187 10.93 15.6355 10.95C15.6624 10.99 15.6355 11.035 15.6187 11.065C15.5783 11.125 15.5548 11.2 15.5481 11.285C15.5481 11.35 15.5481 11.415 15.5548 11.48C15.5716 11.695 15.5918 11.985 15.4741 12.33C15.3967 12.55 15.39 12.765 15.3866 12.99C15.3833 13.215 15.3732 13.455 15.2925 13.72L15.2521 13.69C15.3295 13.44 15.3362 13.21 15.3396 12.985C15.3463 12.75 15.353 12.53 15.4337 12.295C15.5481 11.97 15.5245 11.69 15.5111 11.485C15.5044 11.415 15.501 11.345 15.5044 11.28C15.5111 11.18 15.538 11.09 15.5851 11.02C15.5884 11.01 15.5952 11 15.5985 10.995C15.5918 10.995 15.5884 10.995 15.5851 11C15.5514 11.02 15.4808 11.105 15.4472 11.3C15.4337 11.38 15.4304 11.465 15.4371 11.55C15.4405 11.72 15.4472 11.92 15.3227 12.29C15.2521 12.495 15.2151 12.715 15.2118 12.945C15.2084 13.125 15.1815 13.3 15.1344 13.47L15.1748 15.025L15.1142 15.03Z" fill="#85340A"/>
<path d="M15.1277 15.11L16.0862 11.265C16.0862 11.265 16.1064 11.195 16.0727 11.175C16.0391 11.155 16.0223 11.225 16.0223 11.225L14.8721 14.95M15.5817 13.955C15.8609 13.57 15.844 13.1 16.1064 12.775C16.3687 12.45 16.3721 12.05 16.436 11.865C16.4999 11.68 16.6176 11.69 16.6041 11.63C16.5907 11.57 16.4562 11.59 16.3418 11.815C16.2275 12.04 16.2914 12.25 15.9718 12.655C15.6523 13.06 15.7297 13.375 15.427 13.72" fill="#F6B40E"/>
<path d="M15.148 15.12L15.1042 15.095L15.4406 13.74L15.4372 13.745L15.4103 13.69C15.4338 13.665 15.454 13.635 15.4742 13.61L16.0628 11.25C16.0661 11.235 16.0695 11.22 16.0661 11.21C16.0661 11.21 16.0661 11.205 16.0628 11.205C16.0594 11.205 16.0594 11.205 16.056 11.205C16.0493 11.215 16.0426 11.225 16.0392 11.235L14.889 14.965L14.8486 14.935L15.9989 11.21C16.0056 11.18 16.019 11.16 16.0359 11.145C16.0628 11.13 16.093 11.145 16.1065 11.185C16.1132 11.215 16.1132 11.25 16.1031 11.275L15.5515 13.48C15.5953 13.39 15.6356 13.29 15.6693 13.19C15.7332 12.97 15.8307 12.78 15.9518 12.625C16.1569 12.365 16.2007 12.19 16.2376 12.035C16.2545 11.95 16.2814 11.865 16.3184 11.79C16.4058 11.615 16.5134 11.55 16.574 11.565C16.5941 11.565 16.611 11.585 16.6211 11.615C16.6345 11.67 16.6009 11.69 16.5706 11.715C16.5202 11.745 16.4764 11.805 16.4495 11.88C16.4327 11.94 16.4159 12.005 16.4058 12.065C16.3654 12.27 16.3116 12.555 16.1132 12.8C15.9854 12.96 15.9249 13.15 15.861 13.355C15.7971 13.56 15.7298 13.78 15.5885 13.975L15.5583 13.925C15.6928 13.735 15.7601 13.525 15.8206 13.325C15.8879 13.11 15.9484 12.91 16.0829 12.745C16.2679 12.515 16.3217 12.245 16.3587 12.045C16.3688 11.975 16.3856 11.91 16.4058 11.845C16.4361 11.76 16.4865 11.69 16.5471 11.655C16.5538 11.65 16.5639 11.64 16.5706 11.635C16.5639 11.63 16.5572 11.63 16.5538 11.63C16.5168 11.63 16.4327 11.675 16.352 11.83C16.3184 11.9 16.2948 11.975 16.278 12.055C16.2376 12.22 16.1939 12.4 15.9787 12.675C15.861 12.82 15.7668 13.005 15.7063 13.215C15.6592 13.375 15.5919 13.52 15.5078 13.645L15.148 15.12Z" fill="#85340A"/>
<path d="M15.0975 15.175L16.9741 12.17C16.9741 12.17 17.0111 12.115 16.9876 12.08C16.9641 12.045 16.9271 12.1 16.9271 12.1L14.9058 14.89M15.8138 14.37C16.1703 14.17 16.2746 13.73 16.6008 13.58C16.9271 13.43 17.0347 13.06 17.1389 12.925C17.2432 12.79 17.3508 12.87 17.3542 12.805C17.3576 12.74 17.2264 12.685 17.065 12.83C16.9035 12.975 16.9035 13.205 16.5067 13.395C16.1098 13.585 16.0997 13.92 15.7298 14.07" fill="#F6B40E"/>
<path d="M15.1143 15.2L15.0806 15.155L15.7364 14.105L15.723 14.04C15.7499 14.03 15.7734 14.015 15.8004 14.005L16.9573 12.15C16.964 12.14 16.9741 12.115 16.9708 12.105C16.9674 12.095 16.9506 12.115 16.9405 12.125L14.9192 14.915L14.8889 14.865L16.9102 12.075C16.9338 12.04 16.9741 12.015 17.001 12.055C17.0279 12.095 17.0145 12.155 16.9876 12.19L15.908 13.93C15.9752 13.87 16.0391 13.8 16.0963 13.72C16.2107 13.555 16.3486 13.435 16.4999 13.365C16.7589 13.24 16.843 13.1 16.9203 12.98C16.9573 12.91 17.0044 12.85 17.0548 12.805C17.1826 12.69 17.297 12.69 17.3508 12.74C17.3676 12.755 17.3811 12.78 17.3811 12.815C17.3777 12.87 17.3407 12.875 17.3071 12.88C17.2499 12.88 17.1961 12.905 17.1557 12.96C17.1255 13.005 17.0952 13.055 17.0717 13.105C16.9808 13.275 16.8564 13.51 16.6109 13.62C16.4528 13.695 16.3452 13.84 16.2342 13.99C16.1232 14.14 16.0055 14.305 15.8239 14.41L15.8071 14.345C15.9786 14.25 16.093 14.09 16.2039 13.94C16.3183 13.78 16.4293 13.63 16.5974 13.555C16.8295 13.45 16.9506 13.225 17.038 13.06C17.0649 13.005 17.0952 12.955 17.1288 12.905C17.1793 12.84 17.2398 12.81 17.3071 12.81C17.3172 12.81 17.3273 12.81 17.334 12.805C17.3306 12.8 17.3239 12.795 17.3205 12.79C17.2869 12.77 17.1961 12.76 17.0817 12.865C17.0347 12.91 16.9943 12.965 16.9573 13.03C16.8766 13.16 16.7891 13.305 16.5201 13.435C16.3755 13.505 16.2409 13.62 16.1299 13.78C16.0425 13.905 15.9416 14 15.8306 14.07L15.1143 15.2Z" fill="#85340A"/>
<path d="M14.8251 13.565C14.8082 13.02 14.5997 12.78 14.6401 12.285C14.5493 12.68 14.7679 12.98 14.7544 13.56M15.0639 14.985L14.2769 12.425L14.936 15.065" fill="#85340A"/>
<path d="M15.2151 13.575C15.3396 13.06 15.2084 12.72 15.3732 12.285C15.1882 12.595 15.3093 13 15.1512 13.53M15.0705 15.025L14.9999 12.21L14.9326 15.025" fill="#85340A"/>
<path d="M15.5751 13.81C15.8206 13.405 15.7903 13.015 16.0527 12.71C15.8038 12.895 15.8105 13.335 15.528 13.73M15.0673 15.065L15.7264 12.425L14.9395 14.985" fill="#85340A"/>
<path d="M15.8442 14.23C16.1772 13.995 16.2444 13.62 16.5706 13.485C16.2915 13.51 16.1872 13.925 15.8206 14.13M15.0538 15.1L16.3419 13.035L14.9563 14.95" fill="#85340A"/>
<path d="M15.0539 15.22L17.5595 13.51C17.5595 13.51 17.6066 13.48 17.5931 13.435C17.5797 13.39 17.5326 13.415 17.5326 13.415L14.9463 14.84M15.9216 14.885C16.3017 14.905 16.5136 14.555 16.8532 14.605C17.1929 14.655 17.388 14.375 17.5192 14.31C17.6503 14.245 17.731 14.38 17.7512 14.32C17.7714 14.26 17.6671 14.135 17.4754 14.175C17.2837 14.215 17.2299 14.43 16.8162 14.38C16.4026 14.33 16.305 14.635 15.925 14.56" fill="#F6B40E"/>
<path d="M15.0639 15.25L15.0437 15.19L15.9215 14.59L15.9282 14.525C15.9551 14.53 15.9787 14.535 16.0022 14.535L17.5527 13.48C17.5628 13.475 17.5695 13.465 17.5762 13.455C17.5729 13.44 17.5493 13.445 17.5426 13.45L14.9563 14.875L14.9395 14.81L17.5258 13.385C17.556 13.36 17.5964 13.375 17.6132 13.425C17.6199 13.445 17.6199 13.465 17.6132 13.48C17.6031 13.51 17.5863 13.53 17.5661 13.545L16.1132 14.535C16.1939 14.52 16.2747 14.49 16.352 14.45C16.5 14.365 16.6581 14.33 16.8161 14.35C17.0818 14.38 17.1962 14.305 17.2937 14.235C17.3475 14.19 17.4081 14.16 17.4686 14.145C17.6166 14.115 17.7242 14.18 17.7578 14.25C17.7713 14.275 17.7747 14.305 17.7679 14.335C17.7511 14.385 17.7141 14.37 17.6838 14.355C17.6334 14.325 17.5762 14.32 17.5224 14.345C17.4821 14.37 17.4451 14.395 17.4081 14.43C17.2803 14.535 17.1054 14.68 16.8498 14.64C16.685 14.615 16.5471 14.69 16.4058 14.77C16.2646 14.85 16.1132 14.93 15.9182 14.92V14.85C16.1031 14.86 16.2477 14.78 16.3856 14.705C16.5336 14.625 16.6749 14.545 16.8498 14.57C17.0919 14.605 17.2601 14.47 17.3812 14.365C17.4215 14.33 17.4619 14.3 17.5056 14.275C17.5661 14.245 17.6334 14.25 17.6939 14.285C17.704 14.29 17.7141 14.295 17.7242 14.3C17.7242 14.295 17.7208 14.29 17.7208 14.285C17.6973 14.24 17.6099 14.175 17.472 14.205C17.4148 14.22 17.361 14.25 17.3105 14.29C17.2063 14.365 17.0852 14.445 16.8094 14.415C16.6581 14.395 16.5067 14.43 16.3621 14.51C16.2477 14.575 16.1267 14.61 16.0022 14.605L15.0639 15.25Z" fill="#85340A"/>
<path d="M15 15.235L17.7578 15.08C17.7578 15.08 17.8083 15.08 17.8083 15.03C17.8083 14.98 17.7578 14.98 17.7578 14.98L15 14.825M15.8913 15.42C16.2377 15.655 16.5235 15.455 16.8262 15.69C17.1289 15.925 17.3778 15.78 17.5191 15.795C17.6603 15.81 17.6973 15.98 17.7276 15.935C17.7578 15.89 17.6939 15.715 17.5123 15.645C17.3307 15.575 17.2231 15.74 16.8498 15.46C16.4765 15.18 16.3117 15.4 15.9787 15.12" fill="#F6B40E"/>
<path d="M17.7177 15.975C17.6975 15.97 17.6773 15.955 17.6639 15.93C17.6235 15.87 17.5731 15.835 17.5159 15.825C17.4722 15.825 17.4284 15.825 17.3847 15.835C17.2401 15.86 17.0417 15.89 16.813 15.715C16.665 15.6 16.5237 15.59 16.369 15.585C16.2143 15.58 16.0562 15.565 15.878 15.445L15.8982 15.385C16.0663 15.5 16.221 15.51 16.3724 15.515C16.5305 15.525 16.6784 15.535 16.8331 15.655C17.0484 15.82 17.2401 15.79 17.378 15.77C17.4251 15.76 17.4722 15.755 17.5192 15.76C17.5865 15.77 17.647 15.81 17.6941 15.88L17.711 15.9C17.711 15.89 17.711 15.885 17.7076 15.875C17.6941 15.825 17.637 15.72 17.5058 15.67C17.452 15.65 17.3948 15.645 17.3376 15.655C17.2199 15.66 17.0888 15.67 16.8365 15.485C16.6986 15.38 16.5506 15.325 16.3959 15.32C16.2749 15.315 16.1571 15.275 16.0428 15.205L14.9968 15.265V15.2L15.9654 15.145L15.9856 15.09C16.0092 15.11 16.0327 15.125 16.0529 15.14L17.7513 15.045C17.758 15.045 17.7816 15.04 17.7816 15.03C17.7816 15.02 17.758 15.015 17.7547 15.015L14.9968 14.86L15.0002 14.795L17.758 14.95C17.7917 14.95 17.8287 14.975 17.8287 15.035C17.8287 15.095 17.7917 15.12 17.7547 15.12L16.1639 15.21C16.2412 15.24 16.3186 15.26 16.3993 15.265C16.5574 15.27 16.7154 15.33 16.8567 15.44C17.0955 15.62 17.2233 15.61 17.3343 15.605C17.3948 15.595 17.4553 15.605 17.5159 15.625C17.6538 15.68 17.7345 15.8 17.7513 15.885C17.758 15.915 17.7547 15.945 17.7412 15.97C17.7379 15.97 17.7278 15.975 17.7177 15.975Z" fill="#85340A"/>
<path d="M14.9463 15.22L17.5326 16.645C17.5326 16.645 17.5797 16.675 17.5931 16.625C17.6066 16.575 17.5595 16.55 17.5595 16.55L15.0539 14.84M15.7232 15.895C15.9822 16.31 16.2983 16.285 16.5169 16.675C16.7355 17.065 17.0046 17.07 17.129 17.165C17.2535 17.26 17.2467 17.435 17.2871 17.415C17.3275 17.395 17.314 17.195 17.1627 17.025C17.0113 16.855 16.8701 16.95 16.5976 16.475C16.3252 16 16.1133 16.115 15.8813 15.665" fill="#F6B40E"/>
<path d="M17.2803 17.45C17.2534 17.45 17.2399 17.41 17.2298 17.375C17.2096 17.3 17.1693 17.235 17.1188 17.195C17.0785 17.17 17.0347 17.145 16.9944 17.13C16.8565 17.07 16.6648 16.99 16.5 16.695C16.3924 16.505 16.2646 16.415 16.1267 16.32C15.9888 16.225 15.8408 16.125 15.7096 15.915L15.7433 15.87C15.8711 16.07 16.0123 16.17 16.1469 16.26C16.2915 16.36 16.426 16.45 16.537 16.65C16.6917 16.925 16.8733 17.005 17.0078 17.06C17.0549 17.075 17.0986 17.1 17.1424 17.13C17.1995 17.175 17.2466 17.25 17.2702 17.34C17.2735 17.35 17.2803 17.365 17.2836 17.375C17.287 17.365 17.287 17.355 17.287 17.35C17.287 17.295 17.2567 17.17 17.1525 17.05C17.1054 17 17.0549 16.965 17.0011 16.94C16.8901 16.88 16.7657 16.815 16.5841 16.495C16.4832 16.32 16.3587 16.185 16.2208 16.09C16.1132 16.02 16.0157 15.92 15.9316 15.795L14.9395 15.25L14.9563 15.185L15.8677 15.69L15.8643 15.685L15.9013 15.645C15.9182 15.68 15.9383 15.71 15.9551 15.74L17.5426 16.615C17.5527 16.62 17.5628 16.625 17.5695 16.62C17.5695 16.62 17.5729 16.62 17.5729 16.615C17.5729 16.61 17.5729 16.61 17.5729 16.605C17.5661 16.595 17.5594 16.585 17.5527 16.58L15.0471 14.87L15.0673 14.81L17.5729 16.52C17.593 16.53 17.6065 16.55 17.6166 16.575C17.6267 16.615 17.6166 16.66 17.5897 16.68C17.5695 16.69 17.546 16.69 17.5291 16.675L16.046 15.86C16.1065 15.93 16.1738 15.985 16.2444 16.035C16.389 16.13 16.5202 16.275 16.6244 16.455C16.7993 16.76 16.917 16.825 17.0213 16.88C17.0785 16.905 17.1356 16.945 17.1861 17C17.3038 17.13 17.3475 17.29 17.3374 17.38C17.3374 17.41 17.324 17.435 17.3038 17.45C17.2903 17.45 17.2836 17.45 17.2803 17.45Z" fill="#85340A"/>
<path d="M14.9026 15.175L16.9239 17.965C16.9239 17.965 16.9609 18.02 16.9844 17.985C17.008 17.95 16.971 17.895 16.971 17.895L15.0943 14.89M15.4474 16.24C15.582 16.77 15.8779 16.925 15.9788 17.41C16.0797 17.895 16.3286 18.055 16.4194 18.21C16.5102 18.365 16.4564 18.53 16.5001 18.53C16.5438 18.53 16.5808 18.34 16.4833 18.1C16.3858 17.86 16.2311 17.86 16.1033 17.27C15.9755 16.68 15.7501 16.665 15.6492 16.115" fill="#F6B40E"/>
<path d="M16.5001 18.565C16.4597 18.565 16.4564 18.505 16.4564 18.46C16.4564 18.375 16.4396 18.295 16.4026 18.235C16.3723 18.19 16.3387 18.145 16.305 18.11C16.1907 17.975 16.0326 17.79 15.9586 17.425C15.9082 17.19 15.8106 17.03 15.7097 16.865C15.6088 16.7 15.4978 16.525 15.4272 16.255L15.4709 16.23C15.5348 16.485 15.6425 16.655 15.7434 16.82C15.851 16.99 15.9519 17.155 16.0023 17.405C16.073 17.75 16.2243 17.93 16.3353 18.06C16.3723 18.1 16.4059 18.145 16.4396 18.195C16.4799 18.27 16.5035 18.365 16.5035 18.46C16.5035 18.475 16.5035 18.49 16.5068 18.5C16.5102 18.495 16.5135 18.49 16.5135 18.485C16.5304 18.44 16.5405 18.305 16.4665 18.125C16.4362 18.055 16.3992 17.995 16.3555 17.94C16.268 17.82 16.1705 17.69 16.0831 17.29C16.036 17.07 15.9586 16.875 15.851 16.705C15.7703 16.58 15.703 16.43 15.6593 16.27L14.8857 15.2L14.916 15.15L15.6257 16.13C15.6257 16.125 15.6257 16.125 15.6257 16.12L15.6694 16.1C15.6761 16.14 15.6862 16.18 15.6963 16.22L16.9373 17.935C16.944 17.945 16.9609 17.96 16.9676 17.955C16.9743 17.95 16.9609 17.925 16.9541 17.91L15.0774 14.905L15.1111 14.86L16.9878 17.865C17.0113 17.9 17.0281 17.96 17.0012 18C16.9743 18.04 16.9339 18.02 16.9104 17.98L15.7501 16.38C15.7905 16.475 15.8342 16.565 15.8846 16.65C15.9956 16.82 16.0763 17.025 16.1234 17.25C16.2075 17.635 16.3017 17.76 16.3824 17.875C16.4295 17.93 16.4698 18 16.5001 18.075C16.5741 18.26 16.5774 18.425 16.5472 18.505C16.5405 18.54 16.5203 18.56 16.5001 18.565Z" fill="#85340A"/>
<path d="M15.9889 14.77C16.3555 14.745 16.5169 14.435 16.8499 14.495C16.5875 14.36 16.3824 14.685 15.9923 14.665M15.0304 15.125L16.7523 13.955L14.9766 14.935" fill="#85340A"/>
<path d="M15.9788 15.355C16.3252 15.54 16.5539 15.345 16.8465 15.59C16.6379 15.315 16.3655 15.495 16.009 15.26M15.0034 15.135L16.8969 15.035L15.0034 14.93" fill="#85340A"/>
<path d="M15.8207 15.885C16.0932 16.25 16.3555 16.205 16.5606 16.595C16.4362 16.225 16.1402 16.235 15.8745 15.815M14.9766 15.13L16.7523 16.11L15.0304 14.94" fill="#85340A"/>
<path d="M15.5383 16.29C15.6964 16.785 15.9486 16.885 16.0394 17.37C16.0226 16.955 15.7435 16.8 15.6056 16.255M14.9531 15.11L16.3388 17.025L15.0507 14.96" fill="#85340A"/>
<path d="M15 16.7C15.6204 16.7 16.1233 15.9523 16.1233 15.03C16.1233 14.1077 15.6204 13.36 15 13.36C14.3796 13.36 13.8767 14.1077 13.8767 15.03C13.8767 15.9523 14.3796 16.7 15 16.7Z" fill="#F6B40E"/>
<path d="M15 16.745C14.3644 16.745 13.8464 15.975 13.8464 15.03C13.8464 14.085 14.3644 13.315 15 13.315C15.6357 13.315 16.1536 14.085 16.1536 15.03C16.1536 15.975 15.6357 16.745 15 16.745ZM15 13.405C14.398 13.405 13.907 14.135 13.907 15.03C13.907 15.925 14.398 16.655 15 16.655C15.602 16.655 16.0931 15.925 16.0931 15.03C16.0931 14.135 15.602 13.405 15 13.405Z" fill="#85340A"/>
<path d="M15.3833 14.675C15.3059 14.67 15.232 14.73 15.1882 14.825C15.2757 14.94 15.464 14.955 15.5952 14.81C15.5414 14.725 15.464 14.675 15.3833 14.675ZM15.3833 14.7C15.4573 14.7 15.5279 14.75 15.538 14.8C15.4573 14.93 15.3194 14.94 15.2286 14.825C15.2622 14.745 15.3194 14.695 15.3833 14.7Z" fill="#843511"/>
<path d="M15.3968 14.595C15.2858 14.595 15.2589 14.635 15.2084 14.7C15.1815 14.73 15.1546 14.755 15.121 14.765C15.1109 14.78 15.121 14.815 15.1378 14.805C15.1748 14.775 15.2118 14.74 15.242 14.7C15.2858 14.65 15.3429 14.625 15.3968 14.635C15.5515 14.635 15.6389 14.83 15.6557 14.815C15.6725 14.8 15.5716 14.595 15.3968 14.595Z" fill="#85340A"/>
<path d="M15.7095 14.67C15.5111 14.415 15.2589 14.375 15.121 14.57C15.0873 14.635 15.0671 14.705 15.0571 14.785C15.0402 14.93 15.0705 15.09 15.1479 15.25C15.1344 15.255 15.1243 15.26 15.1142 15.275C15.047 15.095 15.0234 14.89 15.0436 14.69C15.0503 14.64 15.0571 14.59 15.0705 14.545C15.2589 14.31 15.5178 14.285 15.7095 14.67Z" fill="#85340A"/>
<path d="M15.3801 14.915C15.4228 14.915 15.4574 14.8635 15.4574 14.8C15.4574 14.7365 15.4228 14.685 15.3801 14.685C15.3374 14.685 15.3027 14.7365 15.3027 14.8C15.3027 14.8635 15.3374 14.915 15.3801 14.915Z" fill="#85340A"/>
<path d="M15.6055 14.875C15.4575 15.04 15.3129 15.03 15.2255 14.95C15.138 14.87 15.138 14.845 15.1582 14.845C15.1784 14.845 15.1918 14.87 15.2624 14.92C15.3331 14.97 15.434 14.98 15.6055 14.875Z" fill="#85340A"/>
<path d="M14.8284 15.26C14.7881 15.27 14.7611 15.33 14.7679 15.39C14.7746 15.45 14.815 15.49 14.8553 15.48C14.8755 15.475 14.8923 15.455 14.9058 15.43C14.9327 15.455 14.9663 15.47 14.9999 15.47H15.01C15.0437 15.47 15.0773 15.46 15.1042 15.43C15.1177 15.46 15.1412 15.48 15.1681 15.48C15.2118 15.48 15.2455 15.43 15.2455 15.365C15.2455 15.31 15.2185 15.265 15.1849 15.255C15.2118 15.27 15.2253 15.315 15.2152 15.355C15.2051 15.395 15.1748 15.415 15.1479 15.4C15.1277 15.39 15.1143 15.36 15.1143 15.33C15.0907 15.42 15.0201 15.46 14.9629 15.42H14.9596C14.9327 15.4 14.9125 15.37 14.899 15.33C14.899 15.37 14.8755 15.405 14.8486 15.405C14.8217 15.405 14.7981 15.37 14.7981 15.33V15.325C14.7948 15.3 14.8082 15.27 14.8284 15.26Z" fill="#85340A"/>
<path d="M14.9125 15.605C14.8251 15.605 14.7915 15.72 14.7141 15.8C14.7578 15.775 14.7915 15.725 14.852 15.67C14.9125 15.615 14.963 15.68 15 15.695C15.0336 15.685 15.0874 15.62 15.148 15.67C15.2085 15.72 15.2455 15.77 15.2859 15.8C15.2085 15.725 15.1715 15.605 15.0874 15.605C15.0572 15.61 15.0303 15.62 15.0033 15.635C14.9731 15.62 14.9428 15.61 14.9125 15.605Z" fill="#85340A"/>
<path d="M14.8822 15.755C14.8317 15.76 14.7846 15.775 14.7375 15.795C14.8923 15.745 14.9259 15.82 14.9965 15.81C15.0671 15.82 15.1008 15.745 15.2555 15.795C15.084 15.72 15.047 15.77 14.9965 15.75C14.9662 15.77 14.9393 15.755 14.8822 15.755Z" fill="#85340A"/>
<path d="M14.7477 15.795H14.7141C14.8957 15.82 14.8083 15.975 15 15.99C15.1883 15.975 15.1042 15.82 15.2859 15.795C15.0975 15.77 15.1547 15.935 15 15.93C14.852 15.935 14.8957 15.79 14.7477 15.795Z" fill="#85340A"/>
<path d="M15.1546 16.215C15.158 16.09 15.0907 15.98 15.0067 15.975C14.9226 15.97 14.8486 16.07 14.8452 16.195V16.215C14.8654 16.09 14.9495 16.01 15.0369 16.04C15.0975 16.06 15.1412 16.125 15.1546 16.215Z" fill="#85340A"/>
<path d="M14.3005 14.67C14.499 14.415 14.7512 14.375 14.8891 14.57C14.9227 14.635 14.9429 14.705 14.953 14.785C14.9698 14.93 14.9395 15.09 14.8622 15.25C14.8756 15.255 14.8857 15.26 14.8958 15.275C14.9631 15.095 14.9866 14.89 14.9665 14.69C14.9597 14.64 14.953 14.59 14.9396 14.545C14.7512 14.31 14.4922 14.285 14.3005 14.67Z" fill="#85340A"/>
<path d="M14.6133 14.595C14.7243 14.595 14.7512 14.635 14.8017 14.7C14.8286 14.73 14.8588 14.75 14.8891 14.765C14.8992 14.78 14.8891 14.815 14.8723 14.805C14.8353 14.775 14.7983 14.74 14.768 14.7C14.7243 14.65 14.6671 14.625 14.6133 14.635C14.4586 14.635 14.3712 14.83 14.3544 14.815C14.3375 14.8 14.4384 14.595 14.6133 14.595Z" fill="#85340A"/>
<path d="M14.6064 14.675C14.5291 14.67 14.4551 14.73 14.4114 14.825C14.4988 14.94 14.6905 14.955 14.8183 14.81C14.7645 14.725 14.6872 14.675 14.6064 14.675ZM14.6064 14.7C14.6804 14.7 14.7511 14.75 14.7612 14.8C14.6804 14.93 14.5425 14.94 14.4517 14.825C14.4854 14.745 14.5425 14.7 14.6064 14.7Z" fill="#843511"/>
<path d="M14.6167 14.915C14.6594 14.915 14.694 14.8635 14.694 14.8C14.694 14.7365 14.6594 14.685 14.6167 14.685C14.5739 14.685 14.5393 14.7365 14.5393 14.8C14.5393 14.8635 14.5739 14.915 14.6167 14.915Z" fill="#85340A"/>
<path d="M14.4048 14.875C14.5528 15.04 14.6974 15.03 14.7848 14.95C14.8723 14.87 14.8723 14.845 14.8521 14.845C14.8319 14.845 14.8185 14.87 14.7478 14.92C14.6772 14.97 14.5763 14.98 14.4048 14.875Z" fill="#85340A"/>
</g>
<defs>
<clipPath id="clip0_18_20">
<rect width="30" height="30" rx="15" fill="white"/>
</clipPath>
</defs>
</svg>
