<svg width="30" height="30" viewBox="0 0 30 30" fill="none" xmlns="http://www.w3.org/2000/svg">
<g clip-path="url(#clip0_18_134)">
<path d="M30.0134 0.019989H0.0134277V30H30.0134V0.019989Z" fill="#00008B"/>
<path d="M0.0134277 0.019989L15.0134 11.17L0.0134277 0.019989ZM15.0134 0.019989L0.0134277 11.17L15.0134 0.019989Z" fill="black"/>
<path d="M14.62 12.34L7.51345 7.05499L0.406951 12.34L0.00672646 11.145L0.0134529 9.70999L5.54933 5.59499L0 1.47499V0.0599888L1.98094 0.019989L7.51345 4.13499L13.0157 0.044989L15.0269 0.0649888L15.407 1.18999L9.48094 5.59499L15.407 9.99999L14.62 12.34Z" fill="white"/>
<path d="M0.0134277 0.019989L15.0134 11.17L0.0134277 0.019989ZM15.0134 0.019989L0.0134277 11.17L15.0134 0.019989Z" fill="black"/>
<path d="M14.805 11.795L7.51356 6.37499L0.225446 11.795L0.00683594 11.145L0.0101992 10.395L6.4676 5.59499L0.0135624 0.799989V0.019989H1.06625L7.51356 4.81499L13.9205 0.049989L15.0136 0.019989L15.2221 0.644989L8.56289 5.59499L15.2221 10.545L14.805 11.795Z" fill="#FF0000"/>
<path d="M7.51343 0.019989V13.03V0.019989ZM0.0134277 5.59499H17.5123H0.0134277Z" fill="black"/>
<path d="M8.6872 13.03H6.34303V7.33999H0.0134277V3.85499H6.34303V0.019989H8.6872V3.85499H17.5157V7.33999H8.6872V13.03Z" fill="white"/>
<path d="M7.51343 0.019989V11.955V0.019989ZM0.0134277 5.59499H15.5415H0.0134277Z" fill="black"/>
<path d="M8.21635 11.955H6.81052V6.63999H0.0134277V4.54999H6.81052V0.019989H8.21635V4.54999H15.5415V6.63999H8.21635V11.955Z" fill="#FF0000"/>
<path d="M0.0134277 11.17H15.0134V0.019989H20.0146V14.885H0.0134277V11.17Z" fill="#00008B"/>
<path d="M7.51338 13.4L7.94724 15.405L9.27235 14.66L8.48872 16.415L9.70621 17.49L8.29365 17.67L8.48872 19.755L7.51338 18.23L6.53805 19.755L6.73311 17.67L5.32056 17.49L6.53805 16.415L5.75441 14.66L7.07953 15.405L7.51338 13.4Z" fill="white"/>
<path d="M22.5134 17.01L22.7219 17.965L23.3542 17.61L22.9809 18.445L23.5627 18.955L22.8901 19.04L22.9843 20.035L22.5201 19.31L22.056 20.035L22.1502 19.04L21.4775 18.955L22.0594 18.445L21.6861 17.61L22.3183 17.965L22.5134 17.01Z" fill="white"/>
<path d="M18.7634 8.185L18.9719 9.14L19.6042 8.785L19.2308 9.62L19.8127 10.13L19.14 10.215L19.2342 11.21L18.7667 10.485L18.3026 11.21L18.3968 10.215L17.7241 10.13L18.306 9.62L17.9259 8.785L18.5582 9.14L18.7634 8.185Z" fill="white"/>
<path d="M22.5134 2.14499L22.7219 3.09999L23.3542 2.74499L22.9809 3.57999L23.5627 4.08999L22.8901 4.17499L22.9843 5.16999L22.5201 4.44499L22.056 5.16999L22.1502 4.17499L21.4775 4.08999L22.0594 3.57999L21.6861 2.74499L22.3183 3.09999L22.5134 2.14499Z" fill="white"/>
<path d="M25.8463 6.69998L26.0548 7.65498L26.6871 7.29998L26.3138 8.13498L26.8956 8.64498L26.223 8.72998L26.3172 9.72498L25.8463 8.99998L25.3822 9.72498L25.4764 8.72998L24.8037 8.64498L25.3855 8.13498L25.0122 7.29998L25.6445 7.65498L25.8463 6.69998Z" fill="white"/>
<path d="M24.0134 11.17L24.1782 11.765L24.6087 11.81L24.2791 12.225L24.3833 12.845L24.0167 12.51L23.6501 12.845L23.7544 12.22L23.4248 11.805L23.8553 11.76L24.0134 11.17Z" fill="white"/>
</g>
<defs>
<clipPath id="clip0_18_134">
<rect width="30" height="30" rx="15" fill="white"/>
</clipPath>
</defs>
</svg>
