<svg width="30" height="30" viewBox="0 0 30 30" fill="none" xmlns="http://www.w3.org/2000/svg">
<g clip-path="url(#clip0_18_631)">
<path d="M30.1044 0H-0.0671387V30H30.1044V0Z" fill="#009B3A"/>
<path d="M2.49902 15.25L15.0203 26.795L27.5416 15.25L15.0203 3.70499L2.49902 15.25Z" fill="#FEDF00"/>
<path d="M15.0203 22.875C17.9365 22.875 20.3005 19.4612 20.3005 15.25C20.3005 11.0388 17.9365 7.625 15.0203 7.625C12.104 7.625 9.73999 11.0388 9.73999 15.25C9.73999 19.4612 12.104 22.875 15.0203 22.875Z" fill="#002776"/>
<path d="M-0.820557 30.5C-0.820557 20.275 4.92047 11.98 12.0034 11.98C19.0864 11.98 24.8241 20.275 24.8241 30.5H24.0707C24.0707 20.875 18.666 13.07 12.0001 13.07C5.33415 13.07 -0.0671934 20.875 -0.0671934 30.5H-0.820557Z" fill="white"/>
<rect width="2.83986" height="1.97915" transform="matrix(0.733965 0.679188 -0.386201 0.922415 3.91748 14.0217)" fill="#FEDF00"/>
<rect width="3.5902" height="4.62247" transform="matrix(0.166596 0.986025 -0.936813 0.349829 9.07251 12.0835)" fill="#FEDF00"/>
<rect width="3.62325" height="1.88868" transform="matrix(-0.110672 0.993857 -0.971023 -0.238984 10.1387 11.0514)" fill="#FEDF00"/>
<rect width="3.81742" height="1.28286" transform="matrix(0.384923 0.922949 -0.735281 0.677762 21.1482 16.2679)" fill="#FEDF00"/>
<rect width="3.98738" height="2.04342" transform="matrix(-0.258575 0.965991 -0.86066 -0.50918 22.4099 16.4101)" fill="#FEDF00"/>
<rect x="20.2466" y="16.9" width="0.6" height="0.470852" transform="rotate(-90 20.2466 16.9)" fill="#FEDF00"/>
<path d="M10.7086 12.62C10.6918 12.42 10.5774 12.275 10.453 12.3C10.3286 12.32 10.2411 12.5 10.2579 12.7C10.2747 12.9 10.3891 13.04 10.5135 13.02C10.6413 13 10.7254 12.82 10.7086 12.62ZM10.4866 12.44C10.6582 12.44 10.6582 12.88 10.4866 12.88C10.3151 12.88 10.3151 12.44 10.4866 12.44Z" fill="#009B3A"/>
<path d="M12.2019 12.89L12.6559 12.915L12.6593 12.78L12.2927 12.76L12.2961 12.575L12.5819 12.59L12.5853 12.465L12.2994 12.45L12.3028 12.305L12.6492 12.32L12.6526 12.185L12.2221 12.165L12.2019 12.89Z" fill="#009B3A"/>
<path d="M12.8408 12.93L12.9249 12.94L12.9552 12.445L13.0258 12.955L13.1032 12.965L13.2343 12.48L13.204 12.975L13.2881 12.985L13.3319 12.26L13.2074 12.245L13.0762 12.73L13.0056 12.22L12.8812 12.205L12.8408 12.93Z" fill="#009B3A"/>
<path d="M13.8801 13.1L14.2501 13.19L14.2635 13.065L13.9777 12.995L13.9978 12.83L14.2299 12.89L14.2434 12.765L14.0079 12.705L14.0214 12.59L14.3005 12.66L14.314 12.535L13.9508 12.445L13.8801 13.1Z" fill="#009B3A"/>
<path d="M16.9675 14.13L16.9978 14.035L17.1727 14.145L17.1424 14.24L16.9675 14.13Z" fill="#009B3A"/>
<path d="M17.0078 14.44L17.1053 14.105L17.1726 14.15L17.0717 14.48L17.0078 14.44Z" fill="#009B3A"/>
<path d="M17.8083 15.01L18.2018 15.33L18.2489 15.21L17.9294 14.95L17.99 14.785L18.2388 14.99L18.2826 14.88L18.0337 14.675L18.0841 14.55L18.3835 14.795L18.4272 14.68L18.0505 14.375L17.8083 15.01Z" fill="#009B3A"/>
<path d="M18.545 15.37C18.518 15.43 18.545 15.5 18.6055 15.555C18.666 15.61 18.7064 15.61 18.7232 15.57C18.777 15.445 18.4609 15.265 18.5584 15.045C18.6425 14.86 18.7871 15.005 18.8409 15.055C18.8947 15.105 18.9822 15.235 18.9149 15.385L18.8241 15.3C18.8544 15.235 18.8207 15.17 18.7737 15.125C18.7266 15.08 18.6896 15.06 18.6593 15.125C18.6122 15.225 18.925 15.415 18.8275 15.635C18.7568 15.795 18.6358 15.725 18.5517 15.65C18.481 15.585 18.3768 15.435 18.4441 15.28L18.545 15.37Z" fill="#009B3A"/>
<path d="M19.0831 15.88C19.0528 15.94 19.0797 16.01 19.1369 16.07C19.1941 16.13 19.2378 16.13 19.2546 16.095C19.3151 15.975 19.0024 15.77 19.11 15.56C19.2008 15.38 19.3387 15.535 19.3925 15.59C19.4463 15.645 19.527 15.78 19.453 15.925L19.3656 15.835C19.3959 15.77 19.3689 15.705 19.3219 15.66C19.2748 15.615 19.2378 15.59 19.2075 15.65C19.1571 15.745 19.4598 15.965 19.3589 16.17C19.2815 16.325 19.1638 16.245 19.0831 16.165C19.0158 16.095 18.9183 15.935 18.9889 15.79L19.0831 15.88Z" fill="#009B3A"/>
<path d="M10.7086 13.555L10.6379 13.865L10.7456 13.915" fill="white"/>
<path d="M10.7086 13.555L10.7793 13.865L10.6716 13.915" fill="white"/>
<path d="M10.9238 13.78H10.6985V13.945" fill="white"/>
<path d="M10.9239 13.78L10.7389 13.975L10.6716 13.845" fill="white"/>
<path d="M10.4934 13.78L10.675 13.975L10.7423 13.845" fill="white"/>
<path d="M10.4934 13.78H10.7187V13.945" fill="white"/>
<path d="M10.8433 14.145L10.7727 13.835L10.665 13.885" fill="white"/>
<path d="M10.8432 14.145L10.6616 13.95L10.7289 13.82" fill="white"/>
<path d="M10.5774 14.145L10.7624 13.95L10.6951 13.82" fill="white"/>
<path d="M10.5774 14.145L10.648 13.835L10.7556 13.885" fill="white"/>
<path d="M11.1761 16.76L11.1055 17.07L11.2131 17.12" fill="white"/>
<path d="M11.1762 16.76L11.2468 17.07L11.1392 17.12" fill="white"/>
<path d="M11.3911 16.985H11.1658V17.15" fill="white"/>
<path d="M11.3912 16.985L11.2096 17.175L11.1423 17.045" fill="white"/>
<path d="M10.9609 16.985L11.1459 17.175L11.2132 17.045" fill="white"/>
<path d="M10.9609 16.985H11.1863V17.15" fill="white"/>
<path d="M11.3108 17.35L11.2402 17.04L11.1326 17.09" fill="white"/>
<path d="M11.3107 17.35L11.1257 17.16L11.193 17.03" fill="white"/>
<path d="M11.0415 17.35L11.2231 17.16L11.1559 17.03" fill="white"/>
<path d="M11.0415 17.35L11.1121 17.04L11.2198 17.09" fill="white"/>
<path d="M10.5303 17.5L10.4731 17.76L10.564 17.8" fill="white"/>
<path d="M10.5302 17.5L10.5874 17.76L10.4966 17.8" fill="white"/>
<path d="M10.7086 17.685H10.5203V17.82" fill="white"/>
<path d="M10.7086 17.685L10.5572 17.845L10.5034 17.735" fill="white"/>
<path d="M10.3486 17.685L10.5 17.845L10.5538 17.735" fill="white"/>
<path d="M10.3486 17.685H10.537V17.82" fill="white"/>
<path d="M10.6414 17.99L10.5843 17.73L10.4968 17.775" fill="white"/>
<path d="M10.6413 17.99L10.49 17.83L10.5438 17.72" fill="white"/>
<path d="M10.4194 17.99L10.5708 17.83L10.517 17.72" fill="white"/>
<path d="M10.4194 17.99L10.4766 17.73L10.5674 17.77" fill="white"/>
<path d="M15.0203 18.38L14.9497 18.69L15.0573 18.74" fill="white"/>
<path d="M15.0204 18.38L15.091 18.69L14.9834 18.74" fill="white"/>
<path d="M14.8049 18.605L14.9899 18.8L15.0572 18.67" fill="white"/>
<path d="M14.8049 18.605H15.0303V18.77" fill="white"/>
<path d="M15.2353 18.605H15.01V18.77" fill="white"/>
<path d="M15.2355 18.605L15.0538 18.8L14.9866 18.67" fill="white"/>
<path d="M15.1516 18.97L15.081 18.66L14.9734 18.71" fill="white"/>
<path d="M15.1515 18.97L14.9666 18.775L15.0338 18.645" fill="white"/>
<path d="M14.8857 18.97L15.0674 18.775L15.0001 18.645" fill="white"/>
<path d="M14.8857 18.97L14.9564 18.66L15.064 18.71" fill="white"/>
<path d="M12.9049 18.93L12.8342 19.24L12.9419 19.29" fill="white"/>
<path d="M12.9049 18.93L12.9755 19.24L12.8679 19.29" fill="white"/>
<path d="M12.6895 19.155L12.8744 19.35L12.9417 19.22" fill="white"/>
<path d="M12.6895 19.155H12.9148V19.32" fill="white"/>
<path d="M13.1199 19.155H12.8945V19.32" fill="white"/>
<path d="M13.12 19.155L12.9384 19.35L12.8711 19.22" fill="white"/>
<path d="M13.0362 19.52L12.9655 19.21L12.8579 19.26" fill="white"/>
<path d="M13.0361 19.52L12.8511 19.325L12.9183 19.195" fill="white"/>
<path d="M12.7703 19.52L12.9519 19.325L12.8846 19.195" fill="white"/>
<path d="M12.7703 19.52L12.8409 19.21L12.9485 19.26" fill="white"/>
<path d="M18.7164 17.595L18.6458 17.905L18.7534 17.955" fill="white"/>
<path d="M18.7164 17.595L18.7871 17.905L18.6794 17.955" fill="white"/>
<path d="M18.5046 17.82L18.6896 18.015L18.7569 17.885" fill="white"/>
<path d="M18.5046 17.82H18.73V17.985" fill="white"/>
<path d="M18.9351 17.82H18.7097V17.985" fill="white"/>
<path d="M18.9352 17.82L18.7535 18.015L18.6863 17.885" fill="white"/>
<path d="M18.8511 18.185L18.7805 17.875L18.6729 17.925" fill="white"/>
<path d="M18.851 18.185L18.666 17.99L18.7333 17.86" fill="white"/>
<path d="M18.5852 18.185L18.7668 17.99L18.6996 17.86" fill="white"/>
<path d="M18.5852 18.185L18.6558 17.875L18.7635 17.925" fill="white"/>
<path d="M16.5976 20.105L16.5371 20.365L16.6279 20.41" fill="white"/>
<path d="M16.5977 20.105L16.6582 20.365L16.5674 20.41" fill="white"/>
<path d="M16.416 20.295L16.5707 20.455L16.6279 20.345" fill="white"/>
<path d="M16.416 20.295H16.6077V20.43" fill="white"/>
<path d="M16.7793 20.295H16.5876V20.43" fill="white"/>
<path d="M16.7793 20.295L16.6246 20.455L16.5674 20.345" fill="white"/>
<path d="M16.7088 20.605L16.6516 20.345L16.5608 20.385" fill="white"/>
<path d="M16.7087 20.605L16.554 20.445L16.6111 20.335" fill="white"/>
<path d="M16.4866 20.605L16.6413 20.445L16.5841 20.335" fill="white"/>
<path d="M16.4866 20.605L16.5437 20.345L16.6346 20.385" fill="white"/>
<path d="M17.657 19.91L17.5964 20.17L17.6872 20.21" fill="white"/>
<path d="M17.657 19.91L17.7175 20.17L17.6267 20.21" fill="white"/>
<path d="M17.4753 20.1L17.6301 20.26L17.6872 20.15" fill="white"/>
<path d="M17.4753 20.1H17.667V20.235" fill="white"/>
<path d="M17.8353 20.1H17.6436V20.235" fill="white"/>
<path d="M17.8352 20.1L17.6805 20.26L17.6233 20.15" fill="white"/>
<path d="M17.7681 20.41L17.7109 20.15L17.6201 20.195" fill="white"/>
<path d="M17.768 20.41L17.6133 20.25L17.6705 20.14" fill="white"/>
<path d="M17.5427 20.41L17.6974 20.25L17.6403 20.14" fill="white"/>
<path d="M17.5427 20.41L17.5999 20.15L17.6907 20.195" fill="white"/>
<path d="M18.6155 18.93L18.5549 19.19L18.6457 19.23" fill="white"/>
<path d="M18.6154 18.93L18.6726 19.19L18.5818 19.23" fill="white"/>
<path d="M18.4338 19.12L18.5885 19.28L18.6457 19.17" fill="white"/>
<path d="M18.4338 19.12H18.6255V19.255" fill="white"/>
<path d="M18.7972 19.12H18.6055V19.255" fill="white"/>
<path d="M18.7971 19.12L18.6424 19.28L18.5852 19.17" fill="white"/>
<path d="M18.7265 19.425L18.666 19.165L18.5752 19.21" fill="white"/>
<path d="M18.7265 19.425L18.5718 19.265L18.629 19.155" fill="white"/>
<path d="M18.5046 19.425L18.6593 19.265L18.6022 19.155" fill="white"/>
<path d="M18.5046 19.425L18.5652 19.165L18.656 19.21" fill="white"/>
<path d="M18.9351 18.335L18.8779 18.595L18.9687 18.635" fill="white"/>
<path d="M18.9351 18.335L18.9956 18.595L18.9048 18.635" fill="white"/>
<path d="M18.7534 18.525L18.9081 18.685L18.9653 18.575" fill="white"/>
<path d="M18.7534 18.525H18.9451V18.66" fill="white"/>
<path d="M19.1133 18.525H18.9216V18.66" fill="white"/>
<path d="M19.1133 18.525L18.9585 18.685L18.9014 18.575" fill="white"/>
<path d="M19.0462 18.835L18.989 18.575L18.8982 18.62" fill="white"/>
<path d="M19.0461 18.835L18.8914 18.675L18.9485 18.565" fill="white"/>
<path d="M18.8208 18.835L18.9755 18.675L18.9183 18.565" fill="white"/>
<path d="M18.8208 18.835L18.8813 18.575L18.9721 18.62" fill="white"/>
<path d="M15.629 16.895L15.5718 17.155L15.6626 17.2" fill="white"/>
<path d="M15.6288 16.895L15.686 17.155L15.5952 17.2" fill="white"/>
<path d="M15.4473 17.085L15.602 17.245L15.6591 17.135" fill="white"/>
<path d="M15.4473 17.085H15.639V17.22" fill="white"/>
<path d="M15.8104 17.085H15.6221V17.22" fill="white"/>
<path d="M15.8105 17.085L15.6558 17.245L15.5986 17.135" fill="white"/>
<path d="M15.74 17.39L15.6794 17.13L15.5886 17.17" fill="white"/>
<path d="M15.7399 17.39L15.5852 17.23L15.6424 17.12" fill="white"/>
<path d="M15.5181 17.39L15.6728 17.23L15.6156 17.12" fill="white"/>
<path d="M15.5181 17.39L15.5786 17.13L15.6694 17.17" fill="white"/>
<path d="M15.0203 16.23L14.9631 16.49L15.0539 16.535" fill="white"/>
<path d="M15.0203 16.23L15.0808 16.49L14.99 16.535" fill="white"/>
<path d="M14.8386 16.415L14.9933 16.575L15.0505 16.465" fill="white"/>
<path d="M14.8386 16.415H15.027V16.55" fill="white"/>
<path d="M15.202 16.415H15.0103V16.55" fill="white"/>
<path d="M15.2019 16.415L15.0472 16.575L14.99 16.46" fill="white"/>
<path d="M15.1313 16.725L15.0708 16.465L14.98 16.505" fill="white"/>
<path d="M15.1313 16.725L14.9766 16.56L15.0337 16.45" fill="white"/>
<path d="M14.9092 16.725L15.0639 16.565L15.0067 16.455" fill="white"/>
<path d="M14.9092 16.725L14.9697 16.465L15.0605 16.505" fill="white"/>
<path d="M16.675 12.595L16.6145 12.855L16.7053 12.895" fill="white"/>
<path d="M16.675 12.595L16.7356 12.855L16.6448 12.895" fill="white"/>
<path d="M16.4934 12.785L16.6481 12.945L16.7053 12.835" fill="white"/>
<path d="M16.4934 12.785H16.6817V12.92" fill="white"/>
<path d="M16.8566 12.785H16.6682V12.92" fill="white"/>
<path d="M16.8567 12.785L16.702 12.945L16.6448 12.835" fill="white"/>
<path d="M16.7861 13.095L16.7256 12.835L16.6348 12.875" fill="white"/>
<path d="M16.7861 13.095L16.6313 12.935L16.6885 12.825" fill="white"/>
<path d="M16.564 13.095L16.7187 12.935L16.6615 12.825" fill="white"/>
<path d="M16.564 13.095L16.6245 12.835L16.7153 12.875" fill="white"/>
<path d="M13.0125 15.29L12.9553 15.545L13.0428 15.585" fill="white"/>
<path d="M13.0124 15.29L13.0696 15.545L12.9822 15.585" fill="white"/>
<path d="M12.8342 15.47L12.9856 15.625L13.0394 15.515" fill="white"/>
<path d="M12.8342 15.47H13.0192V15.605" fill="white"/>
<path d="M13.1874 15.47H13.0024V15.605" fill="white"/>
<path d="M13.1874 15.47L13.0394 15.625L12.9856 15.515" fill="white"/>
<path d="M13.1202 15.77L13.063 15.515L12.9756 15.555" fill="white"/>
<path d="M13.1201 15.77L12.9688 15.615L13.0226 15.505" fill="white"/>
<path d="M12.9014 15.77L13.0493 15.615L12.9955 15.505" fill="white"/>
<path d="M12.9014 15.77L12.9585 15.515L13.046 15.555" fill="white"/>
<path d="M19.4563 17.78L19.4092 17.995L19.4832 18.03" fill="white"/>
<path d="M19.4562 17.78L19.5066 17.995L19.4326 18.03" fill="white"/>
<path d="M19.3083 17.935L19.4362 18.07L19.4832 17.98" fill="white"/>
<path d="M19.3083 17.935H19.4664V18.05" fill="white"/>
<path d="M19.6078 17.935H19.4497V18.05" fill="white"/>
<path d="M19.6077 17.935L19.4799 18.065L19.4329 17.975" fill="white"/>
<path d="M19.5505 18.19L19.5034 17.975L19.4294 18.01" fill="white"/>
<path d="M19.5504 18.19L19.4226 18.055L19.4697 17.965" fill="white"/>
<path d="M19.3655 18.19L19.4933 18.055L19.4462 17.965" fill="white"/>
<path d="M19.3655 18.19L19.4126 17.975L19.4866 18.01" fill="white"/>
<path d="M16.4665 14.64L16.4194 14.855L16.4934 14.89" fill="white"/>
<path d="M16.4666 14.64L16.5137 14.855L16.4397 14.89" fill="white"/>
<path d="M16.3152 14.8L16.443 14.935L16.4901 14.845" fill="white"/>
<path d="M16.3152 14.8H16.4733V14.91" fill="white"/>
<path d="M16.6146 14.8H16.4565V14.91" fill="white"/>
<path d="M16.6146 14.8L16.4868 14.935L16.4397 14.845" fill="white"/>
<path d="M16.5574 15.05L16.5103 14.835L16.4363 14.87" fill="white"/>
<path d="M16.5572 15.05L16.4294 14.915L16.4765 14.825" fill="white"/>
<path d="M16.3723 15.05L16.5001 14.915L16.453 14.825" fill="white"/>
<path d="M16.3723 15.05L16.4194 14.835L16.4934 14.87" fill="white"/>
<path d="M17.6401 19.225L17.593 19.44L17.667 19.475" fill="white"/>
<path d="M17.6402 19.225L17.6873 19.44L17.6133 19.475" fill="white"/>
<path d="M17.4922 19.38L17.62 19.515L17.6671 19.425" fill="white"/>
<path d="M17.4922 19.38H17.6503V19.495" fill="white"/>
<path d="M17.7916 19.38H17.6335V19.495" fill="white"/>
<path d="M17.7916 19.38L17.6638 19.515L17.6167 19.425" fill="white"/>
<path d="M17.7346 19.635L17.6875 19.42L17.6135 19.455" fill="white"/>
<path d="M17.7345 19.635L17.6067 19.5L17.6538 19.41" fill="white"/>
<path d="M17.5493 19.635L17.6771 19.5L17.63 19.41" fill="white"/>
<path d="M17.5493 19.635L17.5964 19.42L17.6704 19.455" fill="white"/>
<path d="M18.195 19.36L18.1479 19.575L18.2219 19.61" fill="white"/>
<path d="M18.1951 19.36L18.2422 19.575L18.1682 19.61" fill="white"/>
<path d="M18.0437 19.515L18.1715 19.65L18.2186 19.56" fill="white"/>
<path d="M18.0437 19.515H18.2018V19.63" fill="white"/>
<path d="M18.3431 19.515H18.1851V19.63" fill="white"/>
<path d="M18.3431 19.515L18.2153 19.65L18.1682 19.56" fill="white"/>
<path d="M18.2861 19.77L18.239 19.555L18.165 19.59" fill="white"/>
<path d="M18.286 19.77L18.1582 19.635L18.2053 19.545" fill="white"/>
<path d="M18.1011 19.77L18.2289 19.635L18.1818 19.545" fill="white"/>
<path d="M18.1011 19.77L18.1482 19.555L18.2221 19.59" fill="white"/>
<path d="M17.6672 20.74L17.6201 20.955L17.6941 20.99" fill="white"/>
<path d="M17.6673 20.74L17.7144 20.955L17.6404 20.99" fill="white"/>
<path d="M17.519 20.9L17.6468 21.035L17.6939 20.945" fill="white"/>
<path d="M17.519 20.9H17.6771V21.015" fill="white"/>
<path d="M17.8185 20.9H17.6604V21.015" fill="white"/>
<path d="M17.8184 20.9L17.6906 21.03L17.6436 20.94" fill="white"/>
<path d="M17.7615 21.15L17.7144 20.935L17.6404 20.97" fill="white"/>
<path d="M17.7613 21.15L17.6335 21.015L17.6806 20.925" fill="white"/>
<path d="M17.5764 21.15L17.7042 21.015L17.6571 20.925" fill="white"/>
<path d="M17.5764 21.15L17.6235 20.935L17.6975 20.97" fill="white"/>
<path d="M17.0549 19.475L17.0078 19.69L17.0818 19.725" fill="white"/>
<path d="M17.055 19.475L17.1021 19.69L17.0281 19.725" fill="white"/>
<path d="M16.907 19.635L17.0348 19.77L17.0819 19.68" fill="white"/>
<path d="M16.907 19.635H17.0651V19.75" fill="white"/>
<path d="M17.203 19.635H17.0449V19.75" fill="white"/>
<path d="M17.203 19.635L17.0752 19.77L17.0281 19.68" fill="white"/>
<path d="M17.146 19.885L17.0989 19.67L17.0249 19.705" fill="white"/>
<path d="M17.1459 19.885L17.0181 19.75L17.0652 19.66" fill="white"/>
<path d="M16.9641 19.885L17.0919 19.75L17.0448 19.66" fill="white"/>
<path d="M16.9641 19.885L17.0112 19.67L17.0852 19.705" fill="white"/>
<path d="M16.1806 19.305L16.1335 19.52L16.2075 19.555" fill="white"/>
<path d="M16.1807 19.305L16.2278 19.52L16.1538 19.555" fill="white"/>
<path d="M16.0325 19.46L16.1603 19.595L16.2074 19.505" fill="white"/>
<path d="M16.0325 19.46H16.1905V19.57" fill="white"/>
<path d="M16.3319 19.46H16.1738V19.57" fill="white"/>
<path d="M16.3319 19.46L16.2041 19.595L16.157 19.505" fill="white"/>
<path d="M16.2749 19.715L16.2278 19.5L16.1538 19.535" fill="white"/>
<path d="M16.2748 19.715L16.147 19.58L16.1941 19.49" fill="white"/>
<path d="M16.0898 19.715L16.2176 19.58L16.1706 19.49" fill="white"/>
<path d="M16.0898 19.715L16.1369 19.5L16.2109 19.535" fill="white"/>
<path d="M12.286 17.58L12.2322 17.815L12.3129 17.855" fill="white"/>
<path d="M12.2859 17.58L12.3398 17.815L12.259 17.855" fill="white"/>
<path d="M12.1245 17.75L12.2624 17.895L12.3129 17.8" fill="white"/>
<path d="M12.1245 17.75H12.296V17.875" fill="white"/>
<path d="M12.4508 17.75H12.2793V17.875" fill="white"/>
<path d="M12.4508 17.75L12.3129 17.895L12.2625 17.8" fill="white"/>
<path d="M12.387 18.025L12.3332 17.79L12.2524 17.83" fill="white"/>
<path d="M12.3869 18.025L12.249 17.88L12.2995 17.785" fill="white"/>
<path d="M12.1885 18.025L12.3264 17.88L12.2759 17.785" fill="white"/>
<path d="M12.1885 18.025L12.2423 17.79L12.323 17.83" fill="white"/>
<path d="M12.1245 18.39L12.0774 18.605L12.1514 18.64" fill="white"/>
<path d="M12.1244 18.39L12.1748 18.605L12.1008 18.64" fill="white"/>
<path d="M11.9766 18.545L12.1044 18.68L12.1514 18.59" fill="white"/>
<path d="M11.9766 18.545H12.1346V18.66" fill="white"/>
<path d="M12.276 18.545H12.1179V18.66" fill="white"/>
<path d="M12.276 18.545L12.1482 18.68L12.1011 18.59" fill="white"/>
<path d="M12.2187 18.8L12.1716 18.585L12.0977 18.62" fill="white"/>
<path d="M12.2186 18.8L12.0908 18.665L12.1379 18.575" fill="white"/>
<path d="M12.0337 18.8L12.1615 18.665L12.1144 18.575" fill="white"/>
<path d="M12.0337 18.8L12.0808 18.585L12.1548 18.62" fill="white"/>
<path d="M14.4856 16.95L14.4385 17.165L14.5125 17.2" fill="white"/>
<path d="M14.4856 16.95L14.5327 17.165L14.4587 17.2" fill="white"/>
<path d="M14.3374 17.105L14.4652 17.24L14.5123 17.15" fill="white"/>
<path d="M14.3374 17.105H14.4955V17.22" fill="white"/>
<path d="M14.6335 17.105H14.4788V17.22" fill="white"/>
<path d="M14.6334 17.105L14.5056 17.24L14.4585 17.145" fill="white"/>
<path d="M14.5764 17.355L14.5293 17.14L14.4553 17.175" fill="white"/>
<path d="M14.5763 17.355L14.4485 17.22L14.4956 17.13" fill="white"/>
<path d="M14.3948 17.355L14.5226 17.22L14.4755 17.13" fill="white"/>
<path d="M14.3948 17.355L14.4419 17.14L14.5159 17.175" fill="white"/>
<path d="M11.6873 16.495L11.657 16.625L11.7041 16.645" fill="white"/>
<path d="M11.6872 16.495L11.7175 16.625L11.6704 16.645" fill="white"/>
<path d="M11.5999 16.59L11.6772 16.67L11.7041 16.615" fill="white"/>
<path d="M11.5999 16.59H11.694V16.66" fill="white"/>
<path d="M11.778 16.59H11.6838V16.66" fill="white"/>
<path d="M11.7781 16.59L11.7042 16.67L11.6772 16.615" fill="white"/>
<path d="M11.7444 16.74L11.7141 16.61L11.6704 16.63" fill="white"/>
<path d="M11.7443 16.74L11.667 16.655L11.6939 16.6" fill="white"/>
<path d="M11.6335 16.74L11.7109 16.66L11.684 16.605" fill="white"/>
<path d="M11.6335 16.74L11.6638 16.61L11.7109 16.63" fill="white"/>
<path d="M14.7512 17.535L14.7209 17.665L14.7647 17.685" fill="white"/>
<path d="M14.7512 17.535L14.7815 17.665L14.7344 17.685" fill="white"/>
<path d="M14.6604 17.63L14.7378 17.71L14.7647 17.655" fill="white"/>
<path d="M14.6604 17.63H14.7546V17.7" fill="white"/>
<path d="M14.842 17.63H14.7478V17.7" fill="white"/>
<path d="M14.8421 17.63L14.7647 17.71L14.7378 17.655" fill="white"/>
<path d="M14.8049 17.785L14.7746 17.655L14.7275 17.675" fill="white"/>
<path d="M14.8049 17.785L14.7275 17.705L14.7544 17.65" fill="white"/>
<path d="M14.6941 17.785L14.7714 17.705L14.7445 17.65" fill="white"/>
<path d="M14.6941 17.785L14.7244 17.655L14.7714 17.675" fill="white"/>
<path d="M15.017 21.11L14.9934 21.205L15.027 21.22" fill="white"/>
<path d="M15.0169 21.11L15.0405 21.205L15.0068 21.22" fill="white"/>
<path d="M14.9463 21.18L15.0068 21.24L15.027 21.2" fill="white"/>
<path d="M14.9463 21.18H15.0203V21.23" fill="white"/>
<path d="M15.0843 21.18H15.0137V21.23" fill="white"/>
<path d="M15.0842 21.18L15.027 21.24L15.0068 21.2" fill="white"/>
<path d="M15.0572 21.3L15.0336 21.2L15 21.215" fill="white"/>
<path d="M15.0572 21.3L15 21.24L15.0202 21.2" fill="white"/>
<path d="M14.9731 21.35L15.0337 21.29L15.0135 21.25" fill="white"/>
<path d="M14.9731 21.35L14.9967 21.25L15.0303 21.265" fill="white"/>
<path d="M19.9742 16.6C20.0381 16.42 20.0011 16.21 19.8901 16.125C19.7791 16.04 19.6379 16.12 19.574 16.295C19.5101 16.47 19.5471 16.685 19.6581 16.77C19.7691 16.86 19.9103 16.78 19.9742 16.6ZM19.8599 16.27C20.0011 16.41 19.8262 16.775 19.685 16.635C19.5471 16.495 19.7186 16.13 19.8599 16.27Z" fill="#009B3A"/>
<path d="M11.9731 12.3C11.9328 12.22 11.8722 12.17 11.805 12.165L11.5527 12.17L11.5628 12.895C11.5628 12.895 11.7613 12.895 11.8151 12.89C11.8756 12.88 11.9328 12.835 11.9698 12.76C12 12.695 12.0135 12.615 12.0101 12.535C12.0169 12.455 12.0034 12.37 11.9731 12.3ZM11.768 12.76H11.6536C11.6536 12.76 11.6503 12.395 11.6469 12.305C11.7512 12.305 11.7545 12.305 11.7949 12.305C11.8521 12.31 11.8991 12.36 11.916 12.44C11.9193 12.485 11.9227 12.53 11.9227 12.57C11.9193 12.625 11.9025 12.675 11.8756 12.71C11.8487 12.75 11.8083 12.765 11.768 12.76Z" fill="#009B3A"/>
<path d="M11.2872 12.615C11.3208 12.575 11.3443 12.52 11.3544 12.46C11.3645 12.335 11.304 12.22 11.2199 12.205H11.2098C11.1594 12.21 10.9004 12.235 10.9004 12.235L10.9273 12.96L11.0215 12.95L11.008 12.68L11.1694 12.665L11.2098 12.66C11.2502 12.74 11.2703 12.835 11.267 12.93H11.3578C11.3578 12.86 11.3511 12.79 11.3342 12.725C11.3208 12.685 11.304 12.65 11.2872 12.615ZM11.23 12.505C11.2064 12.52 11.1829 12.53 11.156 12.53L11.0013 12.545C11.0013 12.545 10.9946 12.42 10.9912 12.36C11.0147 12.36 11.1392 12.345 11.1425 12.345C11.1661 12.345 11.1964 12.34 11.1964 12.34C11.2132 12.34 11.2266 12.35 11.2367 12.365C11.2502 12.38 11.2569 12.405 11.2569 12.43C11.2535 12.455 11.2434 12.485 11.23 12.505Z" fill="#009B3A"/>
<path d="M16.5977 13.72C16.6179 13.52 16.5304 13.34 16.4093 13.315C16.2883 13.29 16.1705 13.43 16.1504 13.63C16.1302 13.83 16.2176 14.01 16.3387 14.035C16.4598 14.06 16.5775 13.92 16.5977 13.72ZM16.4127 13.46C16.5775 13.525 16.5001 13.95 16.3353 13.89C16.1705 13.825 16.2479 13.4 16.4127 13.46Z" fill="#009B3A"/>
<path d="M15.8746 13.44C15.9149 13.415 15.9486 13.375 15.9721 13.325C16.0125 13.215 15.9788 13.075 15.9015 13.02L15.8914 13.015C15.8409 12.995 15.5954 12.895 15.5954 12.895L15.4575 13.595L15.5483 13.63L15.5954 13.37L15.7535 13.43L15.7905 13.445C15.8006 13.515 15.8039 13.585 15.8006 13.65C15.7972 13.675 15.7905 13.7 15.7838 13.725L15.8678 13.77C15.8846 13.705 15.8947 13.635 15.8914 13.565C15.8914 13.52 15.8846 13.475 15.8746 13.44ZM15.8477 13.305C15.8207 13.31 15.7972 13.305 15.7703 13.295L15.619 13.235L15.6526 13.055C15.6761 13.065 15.7938 13.11 15.7972 13.11C15.8207 13.12 15.8477 13.13 15.8477 13.13C15.8611 13.14 15.8746 13.155 15.8813 13.175C15.8914 13.195 15.8914 13.22 15.8846 13.245C15.8813 13.275 15.8678 13.295 15.8477 13.305Z" fill="#009B3A"/>
<path d="M17.7006 14.505C17.741 14.485 17.778 14.45 17.8049 14.4C17.852 14.295 17.8284 14.15 17.7544 14.085L17.7443 14.075C17.6973 14.045 17.4551 13.92 17.4551 13.92L17.2769 14.6L17.3643 14.65L17.4282 14.395L17.5795 14.475L17.6165 14.495C17.6233 14.565 17.6233 14.635 17.6132 14.7C17.6065 14.725 17.5997 14.75 17.593 14.775L17.6771 14.83C17.6973 14.765 17.7107 14.7 17.7141 14.625C17.7141 14.59 17.7107 14.55 17.7006 14.505ZM17.6804 14.37C17.6535 14.37 17.63 14.365 17.6065 14.35L17.4618 14.275L17.5056 14.1C17.5257 14.115 17.6434 14.175 17.6468 14.175C17.6704 14.19 17.6973 14.2 17.6973 14.2C17.7107 14.21 17.7208 14.23 17.7275 14.25C17.7343 14.27 17.7343 14.295 17.7275 14.32C17.7174 14.34 17.7006 14.36 17.6804 14.37Z" fill="#009B3A"/>
<path d="M15.2557 13.195C15.2961 13.17 15.3297 13.13 15.3533 13.075C15.3902 12.96 15.3566 12.825 15.2793 12.77L15.2692 12.765C15.2187 12.745 14.9698 12.655 14.9698 12.655L14.842 13.36L14.9328 13.39L14.9766 13.13L15.1346 13.185L15.1716 13.2M15.2254 13.065C15.1985 13.07 15.175 13.065 15.1481 13.055L15.0001 13L15.0304 12.82C15.0539 12.83 15.175 12.87 15.175 12.87C15.1985 12.88 15.2254 12.89 15.2254 12.89C15.2389 12.9 15.2524 12.915 15.2591 12.935C15.2692 12.955 15.2725 12.98 15.2658 13.005C15.2591 13.03 15.2456 13.05 15.2254 13.065Z" fill="#009B3A"/>
<path d="M17.1258 14.115C17.1123 14.105 17.0988 14.1 17.0854 14.095C17.045 14.2 16.9576 14.28 16.8802 14.2C16.739 14.06 16.9139 13.695 17.0518 13.835C17.082 13.865 17.1022 13.91 17.1022 13.965C17.1224 13.98 17.1459 13.985 17.1695 14L17.1964 14.02C17.2065 13.89 17.1627 13.765 17.082 13.7C16.971 13.615 16.8298 13.695 16.7659 13.87C16.702 14.05 16.739 14.26 16.85 14.345C16.961 14.43 17.1022 14.35 17.1661 14.175C17.1695 14.17 17.1695 14.16 17.1728 14.155L17.1258 14.115Z" fill="#009B3A"/>
<rect width="0.0788766" height="1.11953" transform="matrix(0.90045 0.43496 -0.213516 0.97694 10.0596 12.3)" fill="#FEDF00"/>
<rect width="0.166287" height="1.11953" transform="matrix(0.90045 0.43496 -0.213516 0.97694 10.0623 11.885)" fill="#FEDF00"/>
<rect x="10.2197" y="7.95001" width="9.59417" height="14.75" rx="4.79709" stroke="#FEDF00"/>
<rect width="3.26547" height="7.18947" transform="matrix(0.735281 0.677762 -0.384923 0.922949 2.95508 15.6682)" fill="#009B3A"/>
<rect y="20.75" width="1.44619" height="9.25" fill="#009B3A"/>
<rect x="21.8945" y="20.5" width="4.00224" height="9.5" fill="#009B3A"/>
<rect width="0.87403" height="2.43197" transform="matrix(0.38748 0.921878 -0.732647 0.680609 23.1638 19.2807)" fill="#009B3A"/>
</g>
<defs>
<clipPath id="clip0_18_631">
<rect width="30" height="30" rx="15" fill="white"/>
</clipPath>
</defs>
</svg>
