<svg width="30" height="30" viewBox="0 0 30 30" fill="none" xmlns="http://www.w3.org/2000/svg">
<g clip-path="url(#clip0_18_1121)">
<path d="M30 0H0V30H30V0Z" fill="#DD0000"/>
<path d="M22.5 0H7.5V30H22.5V0Z" fill="white"/>
<path d="M15 5.94049L13.9766 8.77849C13.8606 9.08699 13.6524 9.05799 13.4445 8.88599L12.7046 8.31549L13.2569 12.674C13.3729 13.4705 13.0003 13.4705 12.8163 13.124L11.5235 10.974L11.3136 12.067C11.2956 12.1561 11.2559 12.2321 11.2022 12.2799C11.1485 12.3277 11.0847 12.344 11.0234 12.3255L9.38681 11.814L9.8163 14.1355C9.90811 14.652 9.97975 14.866 9.72347 15.002L9.14062 15.409L11.9553 18.809C12.0115 18.8752 12.0535 18.9643 12.0763 19.0654C12.099 19.1666 12.1015 19.2753 12.0835 19.3785L11.8369 20.5785C12.8062 20.4125 13.6746 20.1625 14.6442 20.009C14.7296 19.995 14.8729 20.205 14.8722 20.3525L14.7441 24.756H15.215L15.1406 20.362C15.1406 20.2145 15.2701 19.995 15.3555 20.009C16.3252 20.1625 17.1935 20.4125 18.1628 20.5785L17.9163 19.3785C17.8982 19.2753 17.9007 19.1666 17.9235 19.0654C17.9462 18.9643 17.9882 18.8752 18.0444 18.809L20.8591 15.409L20.2766 15C20.02 14.864 20.092 14.65 20.1838 14.1335L20.6133 11.812L18.9781 12.3235C18.9167 12.342 18.8529 12.3257 18.7992 12.2779C18.7455 12.2301 18.7058 12.1541 18.6878 12.065L18.478 10.972L17.1848 13.122C17.0012 13.4665 16.6285 13.4665 16.7445 12.672L17.2968 8.31349L16.5569 8.88399C16.3487 9.05599 16.1408 9.08399 16.0248 8.77649" fill="#DD0000"/>
</g>
<defs>
<clipPath id="clip0_18_1121">
<rect width="30" height="30" rx="15" fill="white"/>
</clipPath>
</defs>
</svg>
