<svg width="30" height="30" viewBox="0 0 30 30" fill="none" xmlns="http://www.w3.org/2000/svg">
<g clip-path="url(#clip0_18_3526)">
<path d="M29.9967 0H0.00341797V30H29.9967V0Z" fill="#DA0000"/>
<path d="M30 0H0V10H30V0Z" fill="#239F40"/>
<path d="M0.0908203 8.33501V9.42001H0.706291V8.33501M0.427143 8.33501V9.42001" stroke="white" stroke-width="3.33"/>
<path d="M0.0908203 20.415V21.5H0.706291V20.415M0.427143 20.5V21.5" stroke="white" stroke-width="3.33"/>
<path d="M0.931641 8.50001H3.00675M1.04263 9.50001V8.91501H1.6581V9.41501H2.27357V8.91501H1.88343M1.26796 9.41501H1.43612M3.06056 9.41501H2.61325V8.91501H3.2859M3.22873 8.33501V9.42001H3.8442V8.33501M3.56505 8.33501V9.42001" stroke="white" stroke-width="3.33"/>
<path d="M0.931614 10H2.38789M0 10H0.823991M2.49888 10H3.95516" stroke="white" stroke-width="3.33"/>
<path d="M0.931614 20H2.38789M0 20H0.840807M2.49888 20H3.95516" stroke="white" stroke-width="3.33"/>
<path d="M0.931641 20.585H3.00675M1.04263 21.665V21H1.6581V21.5H2.27357V21H1.88343M1.26796 21.5H1.43612M3.06056 21.5H2.61325V21H3.2859M3.22873 20.415V21.5H3.8442V20.415M3.56505 20.5V21.5" stroke="white" stroke-width="3.33"/>
<path d="M4.06958 8.50001H6.14469M4.18057 9.50001V8.91501H4.79604V9.41501H5.41487V8.91501H5.02137M4.4059 9.41501H4.57406M6.1985 9.41501H5.75119V8.91501H6.42384M6.36667 8.33501V9.42001H6.98214V8.33501M6.70299 8.33501V9.42001" stroke="white" stroke-width="3.33"/>
<path d="M4.06958 10H5.52586M5.64021 10H7.09649" stroke="white" stroke-width="3.33"/>
<path d="M4.06958 20H5.52586M5.64021 20H7.09649" stroke="white" stroke-width="3.33"/>
<path d="M4.06958 20.585H6.14469M4.18057 21.665V21H4.79604V21.5H5.41487V21H5.02137M4.4059 21.5H4.57406M6.1985 21.5H5.75119V21H6.42384M6.36667 20.415V21.5H6.98214V20.415M6.70299 20.5V21.5" stroke="white" stroke-width="3.33"/>
<path d="M7.20752 8.50001H9.28263M7.32187 9.50001V8.91501H7.93734V9.41501H8.55281V8.91501H8.15931M7.54384 9.41501H7.712M9.33981 9.41501H8.8925V8.91501H9.56514M9.50797 8.33501V9.42001H10.1234V8.33501M9.84429 8.33501V9.42001" stroke="white" stroke-width="3.33"/>
<path d="M7.20752 10H8.6638M8.77815 10H10.2344" stroke="white" stroke-width="3.33"/>
<path d="M7.20752 20H8.6638M8.77815 20H10.2344" stroke="white" stroke-width="3.33"/>
<path d="M7.20752 20.585H9.28263M7.32187 21.665V21H7.93734V21.5H8.55281V21H8.15931M7.54384 21.5H7.712M9.33981 21.5H8.8925V21H9.56514M9.50797 20.415V21.5H10.1234V20.415M9.84429 20.5V21.5" stroke="white" stroke-width="3.33"/>
<path d="M30 10H0V19.965H30V10Z" fill="white"/>
<path d="M10.3486 8.50001H12.4237M10.4596 9.50001V8.91501H11.0751V9.41501H11.6906V8.91501H11.3004M10.685 9.41501H10.8531M12.4776 9.41501H12.0302V8.91501H12.7029M12.6457 8.33501V9.42001H13.2612V8.33501M12.982 8.33501V9.42001" stroke="white" stroke-width="3.33"/>
<path d="M10.3486 10H11.8049M11.9159 10H13.3722" stroke="white" stroke-width="3.33"/>
<path d="M10.3486 20H11.8049M11.9159 20H13.3722" stroke="white" stroke-width="3.33"/>
<path d="M10.3486 20.585H12.4237M10.4596 21.665V21H11.0751V21.5H11.6906V21H11.3004M10.685 21.5H10.8531M12.4776 21.5H12.0302V21H12.7029M12.6457 20.415V21.5H13.2612V20.415M12.982 20.5V21.5" stroke="white" stroke-width="3.33"/>
<path d="M13.4866 8.50001H15.5617M13.5976 9.50001V8.91501H14.213V9.41501H14.8319V8.91501H14.4384M13.8229 9.41501H13.9911M15.6155 9.41501H15.1682V8.91501H15.8408M15.7837 8.33501V9.42001H16.3991V8.33501M16.12 8.33501V9.42001" stroke="white" stroke-width="3.33"/>
<path d="M13.4866 10H14.9428M15.0572 10H16.5135" stroke="white" stroke-width="3.33"/>
<path d="M13.4866 20H14.9428M15.0572 20H16.5135" stroke="white" stroke-width="3.33"/>
<path d="M13.4866 20.585H15.5617M13.5976 21.665V21H14.213V21.5H14.8319V21H14.4384M13.8229 21.5H13.9911M15.6155 21.5H15.1682V21H15.8408M15.7837 20.415V21.5H16.3991V20.415M16.12 20.5V21.5" stroke="white" stroke-width="3.33"/>
<path d="M16.6245 8.50001H18.6996M16.7389 9.50001V8.91501H17.3543V9.41501H17.9698V8.91501H17.5763M16.9608 9.41501H17.129M18.7568 9.41501H18.3095V8.91501H18.9821M18.925 8.33501V9.42001H19.5404V8.33501M19.2613 8.33501V9.42001" stroke="white" stroke-width="3.33"/>
<path d="M16.6245 10H18.0808M18.1951 10H19.6514" stroke="white" stroke-width="3.33"/>
<path d="M16.6245 20H18.0808M18.1951 20H19.6514" stroke="white" stroke-width="3.33"/>
<path d="M16.6245 20.585H18.6996M16.7389 21.665V21H17.3543V21.5H17.9698V21H17.5763M16.9608 21.5H17.129M18.7568 21.5H18.3095V21H18.9821M18.925 20.415V21.5H19.5404V20.415M19.2613 20.5V21.5" stroke="white" stroke-width="3.33"/>
<path d="M19.7656 8.50001H21.8407M19.8766 9.50001V8.91501H20.4921V9.41501H21.1076V8.91501H20.7174M20.1019 9.41501H20.2701M21.8945 9.41501H21.4472V8.91501H22.1199M22.0627 8.33501V9.42001H22.6782V8.33501M22.399 8.33501V9.42001" stroke="white" stroke-width="3.33"/>
<path d="M19.7656 10H21.2219M21.3329 10H22.7892" stroke="white" stroke-width="3.33"/>
<path d="M19.7656 20H21.2219M21.3329 20H22.7892" stroke="white" stroke-width="3.33"/>
<path d="M19.7656 20.585H21.8407M19.8766 21.665V21H20.4921V21.5H21.1076V21H20.7174M20.1019 21.5H20.2701M21.8945 21.5H21.4472V21H22.1199M22.0627 20.415V21.5H22.6782V20.415M22.399 20.5V21.5" stroke="white" stroke-width="3.33"/>
<path d="M22.9036 8.50001H24.9787M23.0146 9.50001V8.91501H23.63V9.41501H24.2489V8.91501H23.8554M23.2399 9.41501H23.408M25.0325 9.41501H24.5852V8.91501H25.2578M25.2006 8.33501V9.42001H25.8161V8.33501M25.537 8.33501V9.42001" stroke="white" stroke-width="3.33"/>
<path d="M22.9036 10H24.3598M24.4742 10H25.9305" stroke="white" stroke-width="3.33"/>
<path d="M22.9036 20H24.3598M24.4742 20H25.9305" stroke="white" stroke-width="3.33"/>
<path d="M22.9036 20.585H24.9787M23.0146 21.665V21H23.63V21.5H24.2489V21H23.8554M23.2399 21.5H23.408M25.0325 21.5H24.5852V21H25.2578M25.2006 20.415V21.5H25.8161V20.415M25.537 20.5V21.5" stroke="white" stroke-width="3.33"/>
<path d="M26.0415 8.50001H28.1166M26.1559 9.50001V8.91501H26.7713V9.41501H27.3868V8.91501H26.9933M26.3778 9.41501H26.546M28.1738 9.41501H27.7265V8.91501H28.3991M28.342 8.33501V9.42001H28.9574V8.33501M28.6783 8.33501V9.42001" stroke="white" stroke-width="3.33"/>
<path d="M26.0415 10H27.4978M27.6121 10H29.0684" stroke="white" stroke-width="3.33"/>
<path d="M26.0415 20H27.4978M27.6121 20H29.0684" stroke="white" stroke-width="3.33"/>
<path d="M26.0415 20.585H28.1166M26.1559 21.665V21H26.7713V21.5H27.3868V21H26.9933M26.3778 21.5H26.546M28.1738 21.5H27.7265V21H28.3991M28.342 20.415V21.5H28.9574V20.415M28.6783 20.5V21.5" stroke="white" stroke-width="3.33"/>
<path d="M29.1829 8.5H30.0001M29.2938 9.5V8.915H29.9093V9.415H30.0001M29.5192 9.415H29.6873" stroke="white" stroke-width="3.33"/>
<path d="M29.1829 10H30.0001" stroke="white" stroke-width="3.33"/>
<path d="M29.1829 20.585H29.9968M29.2938 21.665V21H29.9093V21.5H30.0001M29.5192 21.5H29.6873" stroke="white" stroke-width="3.33"/>
<path d="M13.6177 18.135C14.8251 18.72 16.1233 17.735 16.5168 15.94C16.8027 14.63 16.5336 13.19 15.8273 12.29C16.6076 14.005 16.3049 16.335 15.1513 17.495C14.7006 17.95 14.1625 18.175 13.6177 18.135Z" fill="#DA0000"/>
<path d="M16.5605 17.48C17.482 16.69 17.7982 14.935 17.2634 13.565C17.0011 12.895 16.5706 12.41 16.0627 12.22C17.176 13.465 17.4013 15.815 16.5639 17.47L16.5605 17.48Z" fill="#DA0000"/>
<path d="M14.983 18.75L14.8552 15L14.983 12.05C15.0604 12.21 15.1613 12.335 15.2824 12.42V14.625L15.1815 18.35L14.983 18.75Z" fill="#DA0000"/>
<path d="M14.9495 11.815L14.9999 11.885C15.1176 12.13 15.343 12.185 15.5078 12.015C15.6457 11.87 15.6961 11.605 15.6356 11.375C15.6019 11.655 15.4203 11.835 15.2353 11.785C15.1378 11.755 15.0504 11.665 14.9999 11.54" fill="#DA0000"/>
<path d="M16.3823 18.135C15.1749 18.72 13.8767 17.735 13.4832 15.94C13.1973 14.63 13.4663 13.19 14.1726 12.29C13.3923 14.005 13.695 16.335 14.8486 17.495C15.2993 17.95 15.8374 18.175 16.3823 18.135Z" fill="#DA0000"/>
<path d="M13.4395 17.48C12.5179 16.69 12.2018 14.935 12.7366 13.565C12.9989 12.895 13.4294 12.41 13.9372 12.22C12.824 13.465 12.5987 15.815 13.4361 17.47L13.4395 17.48Z" fill="#DA0000"/>
<path d="M15.0169 18.75L15.1447 15L15.0169 12.05C14.9395 12.21 14.8386 12.335 14.7175 12.42V14.625L14.8184 18.35L15.0169 18.75Z" fill="#DA0000"/>
<path d="M15.0505 11.815L15 11.885C14.8823 12.13 14.657 12.185 14.4922 12.015C14.3543 11.87 14.3038 11.605 14.3644 11.375C14.398 11.655 14.5796 11.835 14.7646 11.785C14.8621 11.755 14.9496 11.665 15 11.54" fill="#DA0000"/>
</g>
<defs>
<clipPath id="clip0_18_3526">
<rect width="30" height="30" rx="15" fill="white"/>
</clipPath>
</defs>
</svg>
