<svg width="30" height="30" viewBox="0 0 30 30" fill="none" xmlns="http://www.w3.org/2000/svg">
<g clip-path="url(#clip0_18_3605)">
<path d="M1.34184 0H28.658C28.8337 0.00124381 29.0076 0.0539808 29.1696 0.155195C29.3316 0.256409 29.4787 0.404115 29.6023 0.589866C29.7259 0.775617 29.8236 0.995769 29.89 1.23773C29.9563 1.47969 29.9899 1.73872 29.9888 2V28C29.9899 28.2613 29.9563 28.5203 29.89 28.7623C29.8236 29.0042 29.7259 29.2244 29.6023 29.4101C29.4787 29.5959 29.3316 29.7436 29.1696 29.8448C29.0076 29.946 28.8337 29.9988 28.658 30H1.34184C1.16609 29.9988 0.992231 29.946 0.830202 29.8448C0.668173 29.7436 0.521154 29.5959 0.397553 29.4101C0.273952 29.2244 0.176193 29.0042 0.109866 28.7623C0.0435401 28.5203 0.00994792 28.2613 0.0110108 28V2C0.00994792 1.73872 0.0435401 1.47969 0.109866 1.23773C0.176193 0.995769 0.273952 0.775617 0.397553 0.589866C0.521154 0.404115 0.668173 0.256409 0.830202 0.155195C0.992231 0.0539808 1.16609 0.00124381 1.34184 0V0Z" fill="white"/>
<path d="M15.1344 22.79C18.0284 22.79 20.3744 19.3023 20.3744 15C20.3744 10.6977 18.0284 7.20999 15.1344 7.20999C12.2405 7.20999 9.89453 10.6977 9.89453 15C9.89453 19.3023 12.2405 22.79 15.1344 22.79Z" fill="#DD0000"/>
</g>
<defs>
<clipPath id="clip0_18_3605">
<rect width="30" height="30" rx="15" fill="white"/>
</clipPath>
</defs>
</svg>
