<svg width="30" height="30" viewBox="0 0 30 30" fill="none" xmlns="http://www.w3.org/2000/svg">
<g clip-path="url(#clip0_18_3613)">
<path d="M30 0H0V30H30V0Z" fill="white"/>
<path d="M4.85645 9.455L7.65465 3.215ZM5.90577 10.495L8.70398 4.255ZM6.9551 11.535L9.75331 5.29Z" fill="black"/>
<path d="M7.31828 11.895L6.59182 11.17L9.39003 4.93001L10.1165 5.65001L7.31828 11.895ZM6.26895 10.855L5.54249 10.135L8.3407 3.89001L9.06715 4.61001L6.26895 10.855ZM5.21962 9.81501L4.49316 9.09501L7.29137 2.85001L8.01783 3.57501L5.21962 9.81501Z" fill="black"/>
<path d="M20.2466 24.705L23.0448 18.465ZM21.2959 25.75L24.0941 19.51ZM22.3452 26.79L25.1434 20.55Z" fill="black"/>
<path d="M22.7084 27.15L21.982 26.425L24.7802 20.185L25.5066 20.905L22.7084 27.15ZM21.6591 26.11L20.9326 25.39L23.7308 19.15L24.4573 19.87L21.6591 26.11ZM20.6098 25.07L19.8833 24.35L22.6815 18.11L23.408 18.83L20.6098 25.07Z" fill="black"/>
<path d="M20.9463 20.895L24.444 24.36Z" fill="black"/>
<path d="M21.0576 20.6419L20.8337 21.1411L24.3319 24.608L24.5558 24.1088L21.0576 20.6419Z" fill="white"/>
<path d="M14.9999 22.5C17.7861 22.5 20.0448 19.1421 20.0448 15C20.0448 10.8579 17.7861 7.5 14.9999 7.5C12.2137 7.5 9.95508 10.8579 9.95508 15C9.95508 19.1421 12.2137 22.5 14.9999 22.5Z" fill="#C60C30"/>
<path d="M10.8026 10.84C10.0291 12.565 10.3419 14.89 11.5022 16.04C12.6625 17.19 14.2264 16.725 14.9999 15C15.7735 13.275 17.3374 12.81 18.4977 13.96C19.658 15.11 19.9708 17.435 19.1972 19.16C17.6502 22.605 14.519 23.54 12.2017 21.24C9.88447 18.94 9.25555 14.285 10.8026 10.84Z" fill="#003478"/>
<path d="M7.65465 26.79L4.85645 20.55ZM8.70398 25.75L5.90577 19.505ZM9.75331 24.705L6.9551 18.465Z" fill="black"/>
<path d="M7.29137 27.15L4.49316 20.91L5.21962 20.19L8.01783 26.43L7.29137 27.15ZM8.3407 26.11L5.54249 19.87L6.26895 19.15L9.06715 25.39L8.3407 26.11ZM9.39003 25.07L6.59182 18.825L7.31828 18.105L10.1165 24.345L9.39003 25.07Z" fill="black"/>
<path d="M23.0448 11.535L20.2466 5.29ZM24.0941 10.495L21.2959 4.255ZM25.1434 9.455L22.3452 3.215Z" fill="black"/>
<path d="M22.6815 11.895L19.8833 5.65501L20.6098 4.93501L23.408 11.17L22.6815 11.895ZM23.7308 10.855L20.9326 4.61501L21.6591 3.89001L24.4573 10.13L23.7308 10.855ZM24.7802 9.81501L21.982 3.57501L22.7084 2.85001L25.5066 9.09001L24.7802 9.81501Z" fill="black"/>
<path d="M6.78027 23.145L7.8296 22.105ZM20.9462 9.105L22.1704 7.89ZM23.2197 6.855L24.2691 5.815Z" fill="black"/>
<path d="M6.89116 23.395L6.66919 22.895L7.71852 21.855L7.94385 22.355L6.89116 23.395ZM21.0571 9.355L20.8317 8.855L22.056 7.64L22.2813 8.14L21.0571 9.355ZM23.3306 7.1L23.1053 6.6L24.1546 5.56L24.38 6.06L23.3306 7.1Z" fill="white"/>
</g>
<defs>
<clipPath id="clip0_18_3613">
<rect width="30" height="30" rx="15" fill="white"/>
</clipPath>
</defs>
</svg>
