<svg width="30" height="30" viewBox="0 0 30 30" fill="none" xmlns="http://www.w3.org/2000/svg">
<circle cx="15" cy="15" r="15" fill="#D9D9D9"/>
<path d="M15.46 18.92C15.2067 18.92 15.0067 18.84 14.86 18.68C14.7267 18.5067 14.66 18.28 14.66 18C14.66 17.5867 14.7067 17.2 14.8 16.84C14.9067 16.4667 15.0733 16.0933 15.3 15.72C15.5267 15.3467 15.8267 14.9533 16.2 14.54C16.48 14.22 16.7 13.94 16.86 13.7C17.0333 13.4467 17.1533 13.2067 17.22 12.98C17.3 12.7533 17.34 12.52 17.34 12.28C17.34 11.84 17.18 11.4933 16.86 11.24C16.54 10.9867 16.0867 10.86 15.5 10.86C14.9667 10.86 14.48 10.9333 14.04 11.08C13.6133 11.2133 13.18 11.4067 12.74 11.66C12.4467 11.8333 12.18 11.9133 11.94 11.9C11.7133 11.8733 11.5267 11.7867 11.38 11.64C11.2333 11.4933 11.14 11.3133 11.1 11.1C11.06 10.8867 11.0933 10.6667 11.2 10.44C11.3067 10.2133 11.5 10.0067 11.78 9.82C12.3267 9.46 12.9533 9.18667 13.66 9C14.3667 8.8 15.0333 8.7 15.66 8.7C16.5 8.7 17.2333 8.84 17.86 9.12C18.5 9.4 18.9933 9.78667 19.34 10.28C19.7 10.7733 19.88 11.3533 19.88 12.02C19.88 12.4333 19.82 12.8267 19.7 13.2C19.58 13.56 19.3867 13.9267 19.12 14.3C18.8533 14.66 18.4867 15.0533 18.02 15.48C17.6067 15.8533 17.2733 16.1933 17.02 16.5C16.78 16.8067 16.6 17.1 16.48 17.38C16.3733 17.66 16.3 17.96 16.26 18.28C16.2467 18.4667 16.1667 18.62 16.02 18.74C15.8867 18.86 15.7 18.92 15.46 18.92ZM15.42 23.1C14.9667 23.1 14.6 22.96 14.32 22.68C14.0533 22.4 13.92 22.04 13.92 21.6C13.92 21.1733 14.0533 20.8267 14.32 20.56C14.6 20.28 14.9667 20.14 15.42 20.14C15.8867 20.14 16.2467 20.28 16.5 20.56C16.7667 20.8267 16.9 21.1733 16.9 21.6C16.9 22.04 16.7667 22.4 16.5 22.68C16.2467 22.96 15.8867 23.1 15.42 23.1Z" fill="black"/>
</svg>
