<svg width="30" height="30" viewBox="0 0 30 30" fill="none" xmlns="http://www.w3.org/2000/svg">
<g clip-path="url(#clip0_18_4434)">
<path d="M30.2691 0H0V30H30.2691V0Z" fill="#FF0000"/>
<path d="M12.1076 0H0V30H12.1076V0Z" fill="#006600"/>
<path d="M16.0559 19.655C14.529 19.585 7.54361 13.1 7.49316 12.065L7.87994 11.11C8.57276 12.61 15.7163 18.915 16.4192 18.69L16.0559 19.655Z" fill="#FFFF00"/>
<path d="M16.0561 19.67C15.2455 19.635 12.9417 17.795 11.2164 16.235C9.38007 14.575 7.51011 12.61 7.48657 12.07C7.48657 12.065 7.48657 12.065 7.48657 12.06L7.86998 11.1C7.87334 11.095 7.87334 11.095 7.87671 11.095C7.88007 11.095 7.88343 11.1 7.8868 11.1C8.2433 11.87 10.2848 13.88 12.1514 15.53C13.9507 17.125 16.0561 18.79 16.4159 18.675C16.4193 18.675 16.4227 18.675 16.426 18.68C16.4294 18.685 16.4294 18.69 16.426 18.695L16.0628 19.655C16.0594 19.665 16.0594 19.665 16.0561 19.67ZM7.50339 12.07C7.53366 12.545 9.09756 14.285 11.2265 16.21C12.9451 17.77 15.2355 19.595 16.0494 19.64L16.4025 18.71C16.3958 18.71 16.3857 18.71 16.3789 18.71C15.9115 18.71 13.944 17.15 12.1446 15.555C10.2915 13.915 8.26348 11.92 7.88343 11.135L7.50339 12.07Z" fill="black"/>
<path d="M7.79922 10.975C7.66133 11.525 9.62209 13.33 11.9831 15.46C14.3441 17.59 16.3755 18.91 16.5268 18.72C16.5503 18.66 16.5739 18.595 16.5941 18.53C16.5672 18.595 16.4965 18.615 16.3889 18.565C15.7499 18.29 14.0885 17.16 12.0302 15.3C9.97186 13.44 8.18263 11.745 7.90348 11.015C7.87994 10.94 7.86985 10.855 7.87321 10.775H7.86648L7.80594 10.955L7.79922 10.975ZM16.0929 19.685C16.066 19.755 16.0189 19.755 15.9281 19.74C15.3564 19.645 13.6277 18.395 11.5828 16.575C9.20168 14.455 7.2342 12.525 7.44608 12.02L7.50325 11.865L7.51334 11.87C7.32164 12.725 11.3945 16.19 11.6367 16.41C13.9943 18.58 15.982 19.85 16.1568 19.52L16.0929 19.685Z" fill="#FFFF00"/>
<path d="M15.999 19.76C15.9788 19.76 15.9519 19.755 15.925 19.755C15.3432 19.66 13.5976 18.385 11.573 16.585C8.8723 14.18 7.51355 12.735 7.42275 12.165C7.41266 12.115 7.41602 12.055 7.4362 12.01L7.49337 11.86C7.49674 11.855 7.5001 11.85 7.50346 11.855L7.51355 11.86C7.51692 11.86 7.51692 11.865 7.52028 11.865C7.52028 11.87 7.52028 11.875 7.52028 11.875C7.44293 12.225 8.06512 13.265 11.4788 16.255C11.5629 16.33 11.6167 16.375 11.6402 16.395C13.971 18.54 15.9754 19.83 16.147 19.51C16.1503 19.505 16.1571 19.505 16.1604 19.505C16.1638 19.51 16.1671 19.515 16.1638 19.525L16.0999 19.69C16.0797 19.745 16.0461 19.76 15.999 19.76ZM7.5001 11.905L7.45302 12.025C7.4362 12.065 7.43284 12.115 7.44293 12.16C7.53373 12.725 8.88911 14.165 11.5864 16.565C13.6077 18.36 15.3532 19.635 15.9284 19.73C16.0192 19.745 16.0629 19.74 16.0831 19.68L16.1268 19.57C16.0999 19.585 16.073 19.59 16.0427 19.59C15.5483 19.59 13.749 18.38 11.6301 16.43C11.6066 16.41 11.5528 16.36 11.4687 16.29C8.82521 13.965 7.45301 12.45 7.5001 11.905ZM16.4766 18.755C16.1066 18.755 14.1929 17.48 11.9766 15.475C9.44068 13.18 7.65481 11.515 7.78934 10.97C7.78934 10.97 7.78934 10.97 7.78934 10.965L7.79943 10.945L7.8566 10.765C7.85997 10.76 7.86333 10.755 7.86669 10.755H7.87342C7.87678 10.755 7.88015 10.755 7.88015 10.76C7.88351 10.765 7.88351 10.765 7.88351 10.77C7.88014 10.85 7.89023 10.93 7.91378 11.005C8.20974 11.775 10.2714 13.7 12.0371 15.29C13.9743 17.035 15.6929 18.25 16.3925 18.55C16.49 18.59 16.5573 18.58 16.5875 18.52C16.5875 18.515 16.5909 18.515 16.5943 18.515C16.5976 18.515 16.601 18.515 16.6044 18.52C16.6077 18.53 16.6111 18.53 16.5438 18.705L16.5371 18.725C16.5371 18.725 16.5371 18.73 16.5337 18.73C16.5136 18.75 16.4934 18.755 16.4766 18.755ZM7.80615 10.98C7.67163 11.545 9.86445 13.53 11.9866 15.45C14.2736 17.515 16.1402 18.73 16.4732 18.73C16.49 18.73 16.5035 18.725 16.5169 18.715L16.5236 18.695C16.5337 18.675 16.5505 18.625 16.564 18.59C16.5236 18.62 16.4631 18.62 16.3858 18.585C15.6862 18.285 13.9642 17.065 12.027 15.32C10.2613 13.725 8.19293 11.8 7.89696 11.02C7.87678 10.955 7.86669 10.885 7.86669 10.815L7.81961 10.96L7.80615 10.98Z" fill="black"/>
<path d="M12.1177 12.69C13.6446 12.67 15.5247 12.38 16.6076 11.74L16.3756 11.175C15.7366 11.7 13.8431 12.05 12.1043 12.1C10.0493 12.07 8.5998 11.785 7.87334 11.06L7.65137 11.66C8.98657 12.505 10.3554 12.685 12.1177 12.69Z" fill="#FFFF00"/>
<path d="M12.1176 12.705C10.3553 12.695 8.98982 12.52 7.64789 11.675C7.64453 11.675 7.64453 11.67 7.64453 11.665C7.64453 11.66 7.64453 11.655 7.64453 11.655L7.8665 11.055C7.8665 11.05 7.86987 11.05 7.87323 11.05C7.87659 11.05 7.87996 11.05 7.87996 11.05C8.55597 11.725 9.90126 12.055 12.1075 12.085C13.6782 12.04 15.6826 11.73 16.3721 11.16C16.3755 11.155 16.3822 11.16 16.3856 11.165L16.6176 11.73C16.6176 11.735 16.6176 11.74 16.6176 11.74C16.6176 11.745 16.6143 11.745 16.6109 11.75C15.464 12.43 13.5369 12.69 12.1176 12.705ZM7.66471 11.655C9.00328 12.495 10.3587 12.665 12.1176 12.675C13.5335 12.66 15.4539 12.4 16.5941 11.73L16.3721 11.19C15.6726 11.755 13.6714 12.065 12.1042 12.11C9.90462 12.08 8.55933 11.755 7.87323 11.08L7.66471 11.655Z" fill="black"/>
<path d="M16.6715 11.775C16.6345 11.865 15.9283 12.225 14.8857 12.495C13.9675 12.7 13.0393 12.8 12.111 12.795C11.2231 12.8 10.3352 12.715 9.45405 12.545C8.361 12.29 7.79598 11.935 7.59082 11.81C7.611 11.75 7.62445 11.71 7.64463 11.655C8.24329 12.01 8.81167 12.225 9.47423 12.375C10.3487 12.545 11.2298 12.63 12.111 12.625C13.0325 12.625 13.954 12.525 14.8655 12.32C15.9316 12.065 16.5168 11.735 16.5975 11.58L16.6715 11.775ZM16.463 11.18C16.3487 11.32 15.7702 11.62 14.7579 11.865C13.8834 12.05 13.0023 12.14 12.1211 12.14C11.0785 12.14 10.2242 12.035 9.57513 11.895C8.54598 11.695 7.99777 11.335 7.79934 11.23C7.81952 11.18 7.8397 11.13 7.85988 11.08C8.01459 11.195 8.54261 11.515 9.58521 11.735C10.2276 11.87 11.0819 11.97 12.1211 11.97C12.9955 11.97 13.8733 11.88 14.7377 11.695C15.7567 11.485 16.3049 11.1 16.389 11L16.463 11.18Z" fill="#FFFF00"/>
<path d="M12.0909 12.805C11.2097 12.81 10.3286 12.725 9.45413 12.555C8.39808 12.31 7.82633 11.965 7.61108 11.835L7.58754 11.82C7.58417 11.82 7.58417 11.815 7.58081 11.81C7.58081 11.805 7.58081 11.8 7.58081 11.8L7.60099 11.735C7.61108 11.705 7.62117 11.68 7.63126 11.645C7.63462 11.64 7.63799 11.635 7.64471 11.64C8.21982 11.98 8.78485 12.205 9.47431 12.36C10.342 12.53 11.2165 12.615 12.0909 12.61H12.1111C13.0326 12.61 13.9541 12.51 14.8656 12.305C15.9216 12.05 16.5102 11.725 16.5909 11.57C16.5943 11.565 16.5976 11.565 16.601 11.565C16.6044 11.565 16.6077 11.57 16.6077 11.57L16.6817 11.765C16.6851 11.77 16.6851 11.775 16.6817 11.78V11.785C16.6279 11.89 15.9014 12.25 14.8925 12.505C13.9743 12.71 13.0461 12.81 12.1144 12.805H12.0909ZM7.60099 11.8L7.61444 11.805C7.82969 11.935 8.40144 12.28 9.45413 12.525C10.3286 12.695 11.2097 12.78 12.0909 12.775H12.1111C13.0393 12.78 13.9676 12.68 14.8857 12.475C15.9452 12.205 16.601 11.855 16.6615 11.77L16.5943 11.6C16.49 11.75 15.9485 12.07 14.8656 12.33C13.9541 12.53 13.0292 12.635 12.1077 12.635H12.0875C11.2131 12.64 10.3387 12.555 9.47095 12.385C8.78485 12.23 8.21982 12.005 7.64471 11.665C7.63462 11.695 7.6279 11.715 7.61781 11.74L7.60099 11.8ZM12.0976 12.155C11.1795 12.155 10.3084 12.07 9.57184 11.91C8.66041 11.735 8.13238 11.435 7.87677 11.29L7.79269 11.245C7.78933 11.24 7.78597 11.235 7.78597 11.225C7.80615 11.175 7.82633 11.125 7.84651 11.075C7.84987 11.07 7.85323 11.065 7.85996 11.07C7.95077 11.135 8.45525 11.485 9.5853 11.725C10.0931 11.83 10.9407 11.96 12.0943 11.96H12.1178C12.9922 11.96 13.8667 11.87 14.7344 11.685C15.7097 11.485 16.2815 11.11 16.3824 10.995C16.3857 10.99 16.3857 10.99 16.3891 10.99C16.3925 10.99 16.3958 10.995 16.3958 10.995L16.4698 11.18V11.185C16.4698 11.19 16.4698 11.195 16.4665 11.195C16.3521 11.33 15.7905 11.635 14.7546 11.88C13.8801 12.065 12.999 12.155 12.1144 12.155H12.0976ZM7.81287 11.22L7.88686 11.26C8.13911 11.405 8.66713 11.705 9.57521 11.88C10.3118 12.04 11.1828 12.125 12.0976 12.125H12.1178C12.999 12.125 13.8801 12.035 14.7546 11.85C15.7635 11.61 16.3252 11.315 16.4496 11.18L16.3857 11.02C16.2647 11.145 15.6929 11.51 14.7378 11.705C13.87 11.89 12.9956 11.985 12.1178 11.98H12.0943C10.9373 11.98 10.0898 11.855 9.58193 11.745C8.47879 11.515 7.97095 11.175 7.85996 11.095C7.84651 11.14 7.82969 11.18 7.81287 11.22Z" fill="black"/>
<path d="M7.11664 15.425C8.05499 16.175 10.1402 16.555 12.111 16.58C13.907 16.585 16.2444 16.165 17.1222 15.48L17.0987 14.73C16.8263 15.365 14.3173 15.975 12.0942 15.95C9.87113 15.925 7.80274 15.41 7.11328 14.75L7.11664 15.425Z" fill="#FFFF00"/>
<path d="M12.1378 16.595H12.1109C10.3654 16.57 8.1389 16.255 7.11312 15.44C7.10975 15.44 7.10639 15.435 7.10639 15.425L7.10303 14.75C7.10303 14.74 7.10639 14.735 7.11312 14.735C7.11648 14.735 7.11648 14.735 7.11984 14.735C7.81603 15.405 9.90796 15.905 12.0941 15.93C14.3003 15.955 16.8228 15.34 17.0918 14.715C17.0952 14.71 17.0985 14.705 17.1019 14.71C17.1053 14.71 17.1086 14.715 17.1086 14.725L17.1322 15.475C17.1322 15.48 17.1322 15.485 17.1288 15.49C16.2443 16.18 13.9068 16.595 12.1378 16.595ZM7.12657 15.415C8.14899 16.225 10.3687 16.54 12.1109 16.565H12.1378C13.9001 16.565 16.2308 16.155 17.112 15.47L17.0885 14.77C16.7488 15.39 14.4046 15.965 12.2286 15.965H12.0907C9.91805 15.94 7.83285 15.445 7.12321 14.78L7.12657 15.415Z" fill="black"/>
<path d="M17.1692 15.325V15.505C17.0381 15.74 16.2107 16.09 15.1782 16.34C14.3912 16.52 13.362 16.655 12.084 16.655C10.8699 16.655 9.89792 16.525 9.14792 16.355C7.9607 16.1 7.20061 15.65 7.0459 15.515V15.305C7.5033 15.755 8.74433 16.09 9.16137 16.19C9.90801 16.36 10.8733 16.49 12.0807 16.49C13.3553 16.49 14.3744 16.355 15.158 16.175C15.9013 16.015 16.9607 15.605 17.1692 15.325ZM17.1692 14.68V14.86C17.0381 15.095 16.2107 15.45 15.1782 15.695C14.3912 15.875 13.362 16.01 12.084 16.01C10.8699 16.01 9.89792 15.88 9.14792 15.71C7.9607 15.45 7.19724 15 7.0459 14.87V14.66C7.5033 15.11 8.74433 15.445 9.16137 15.545C9.90801 15.715 10.8733 15.845 12.0807 15.845C13.3553 15.845 14.3744 15.71 15.158 15.53C15.9013 15.37 16.9607 14.955 17.1692 14.68Z" fill="#FFFF00"/>
<path d="M12.0841 16.67C11.0079 16.67 10.0191 16.57 9.14463 16.37C8.00786 16.125 7.22423 15.69 7.03925 15.525C7.03589 15.52 7.03589 15.52 7.03589 15.515V15.305C7.03589 15.3 7.03925 15.295 7.03925 15.29C7.04262 15.285 7.04598 15.285 7.04934 15.29C7.5101 15.745 8.78477 16.08 9.16145 16.17C10.0292 16.37 11.0112 16.47 12.0807 16.47C13.2108 16.47 14.2467 16.365 15.1547 16.155C15.8913 15.995 16.9507 15.585 17.1592 15.31C17.1626 15.305 17.1659 15.305 17.1693 15.305C17.1727 15.305 17.176 15.31 17.176 15.32V15.5C17.176 15.505 17.176 15.505 17.1727 15.51C17.0381 15.75 16.1973 16.105 15.1749 16.35C14.2601 16.565 13.2209 16.67 12.0841 16.67ZM7.05607 15.505C7.18723 15.615 7.91705 16.075 9.148 16.34C10.0224 16.54 11.0079 16.64 12.0841 16.64C13.2209 16.64 14.2601 16.535 15.1749 16.325C16.1872 16.08 17.018 15.735 17.1592 15.5V15.355C16.9171 15.63 15.8845 16.035 15.1614 16.19C14.25 16.395 13.2141 16.505 12.0841 16.505C11.0146 16.505 10.0292 16.405 9.16145 16.205C8.78477 16.115 7.53028 15.78 7.05607 15.33V15.505ZM12.0841 16.025C11.0079 16.025 10.0191 15.925 9.14463 15.725C8.00786 15.48 7.22423 15.045 7.03925 14.88C7.03589 14.875 7.03589 14.875 7.03589 14.87V14.66C7.03589 14.655 7.03925 14.65 7.03925 14.645C7.04262 14.64 7.04598 14.64 7.04934 14.645C7.5101 15.1 8.78477 15.435 9.16145 15.53C10.0292 15.73 11.0112 15.83 12.0807 15.83C13.2108 15.83 14.2467 15.725 15.1547 15.515C15.8913 15.355 16.9507 14.945 17.1592 14.67C17.1626 14.665 17.1659 14.665 17.1693 14.665C17.1727 14.665 17.176 14.67 17.176 14.675V14.68V14.86C17.176 14.865 17.176 14.865 17.1727 14.87C17.0381 15.11 16.1973 15.465 15.1749 15.71C14.2601 15.92 13.2209 16.025 12.0841 16.025ZM7.05607 14.86C7.18723 14.97 7.91705 15.43 9.148 15.695C10.0191 15.895 11.0079 15.995 12.0841 15.995C13.2209 15.995 14.2601 15.89 15.1749 15.68C16.1872 15.435 17.018 15.09 17.1592 14.855V14.71C16.9171 14.99 15.8845 15.39 15.1614 15.545C14.25 15.755 13.2141 15.86 12.0841 15.86C11.0112 15.86 10.0292 15.76 9.16145 15.56C8.78477 15.47 7.53028 15.14 7.05607 14.685V14.86Z" fill="black"/>
<path d="M12.0976 19.525C9.94181 19.505 8.09204 18.65 7.7019 18.51L7.98778 19.175C8.67724 19.605 10.4799 20.25 12.1212 20.175C13.7624 20.1 15.1952 19.915 16.2041 19.185L16.4967 18.5C15.8039 18.98 13.4631 19.52 12.0976 19.525Z" fill="#FFFF00"/>
<path d="M11.8655 20.195C10.3184 20.195 8.65698 19.61 7.98097 19.185C7.97761 19.185 7.97761 19.18 7.97761 19.18L7.69173 18.515C7.68837 18.51 7.68837 18.505 7.69173 18.5C7.69509 18.495 7.69846 18.495 7.70182 18.495C7.74891 18.51 7.81617 18.54 7.90025 18.57C8.52918 18.82 10.194 19.49 12.0976 19.51C13.4731 19.505 15.8106 18.96 16.4899 18.485C16.4933 18.485 16.5 18.485 16.5 18.49C16.5034 18.495 16.5034 18.5 16.5 18.51L16.2074 19.195L16.2041 19.2C15.1514 19.96 13.6177 20.125 12.1177 20.195C12.0337 20.19 11.9496 20.195 11.8655 20.195ZM7.99106 19.16C8.70406 19.605 10.5068 20.23 12.1177 20.16C13.6144 20.095 15.1446 19.93 16.194 19.17L16.4664 18.525C15.75 18.995 13.4529 19.53 12.0976 19.535C10.194 19.52 8.52245 18.845 7.89689 18.595C7.82626 18.565 7.76572 18.545 7.722 18.525L7.99106 19.16Z" fill="black"/>
<path d="M16.3118 19.025C16.268 19.125 16.2243 19.22 16.1806 19.31C15.703 19.56 14.953 19.82 14.6369 19.9C13.9911 20.1 12.9889 20.245 12.101 20.245C10.1907 20.205 8.62342 19.645 7.89023 19.175L7.82969 19.025L7.83642 19L7.93732 19.06C9.24561 19.755 10.7153 20.035 12.1077 20.085C12.9923 20.09 13.8768 19.935 14.5931 19.745C15.6896 19.42 16.1369 19.17 16.2714 19.06L16.305 19.03L16.3118 19.025ZM16.564 18.41L16.5674 18.415C16.5337 18.495 16.5035 18.58 16.4698 18.66C16.2176 18.795 15.5281 19.095 14.5192 19.305C13.8566 19.44 13.4429 19.57 12.1245 19.605C9.6492 19.51 8.0483 18.795 7.66826 18.615L7.61108 18.455C9.04382 19.01 10.5068 19.4 12.1212 19.44C13.3286 19.4 13.8431 19.27 14.499 19.135C15.6727 18.865 16.2647 18.575 16.4429 18.495C16.4396 18.49 16.4362 18.485 16.4362 18.48L16.564 18.41Z" fill="#FFFF00"/>
<path d="M12.1008 20.26C10.1535 20.215 8.61314 19.655 7.88332 19.185C7.87996 19.185 7.87996 19.18 7.87996 19.18L7.81942 19.03C7.81606 19.025 7.81606 19.02 7.81942 19.015L7.82951 18.99C7.83288 18.985 7.83624 18.98 7.8396 18.985L7.9405 19.045C9.1109 19.665 10.5134 20.01 12.1109 20.07C13.0862 20.075 14.001 19.89 14.5963 19.73C15.8239 19.365 16.1905 19.115 16.2712 19.045L16.3048 19.015C16.3082 19.01 16.3116 19.015 16.3149 19.015C16.3183 19.02 16.3183 19.025 16.3149 19.03C16.2712 19.13 16.2275 19.23 16.1838 19.32L16.1804 19.325C15.6759 19.575 15.158 19.77 14.6333 19.915C13.964 20.12 12.945 20.26 12.1008 20.26ZM7.89678 19.165C8.68041 19.67 10.2847 20.195 12.1008 20.235C12.945 20.235 13.964 20.095 14.6367 19.89C15.158 19.75 15.6726 19.55 16.1737 19.305C16.2073 19.23 16.2443 19.15 16.2813 19.07C16.1972 19.14 15.8306 19.39 14.5997 19.755C13.7925 19.975 12.9719 20.085 12.1513 20.095H12.1109C10.51 20.04 9.10754 19.695 7.93714 19.07L7.84297 19.015L7.8396 19.02L7.89678 19.165ZM12.1244 19.62C9.91471 19.535 8.38445 18.965 7.66808 18.63C7.66471 18.63 7.66471 18.625 7.66135 18.625L7.60418 18.465C7.60081 18.46 7.60418 18.45 7.60754 18.445C7.6109 18.445 7.6109 18.445 7.61427 18.445C9.25216 19.08 10.6849 19.395 12.1244 19.43C13.2006 19.395 13.732 19.285 14.2936 19.17L14.5022 19.125C15.6356 18.865 16.2275 18.585 16.4226 18.495L16.4293 18.49C16.4293 18.485 16.4293 18.48 16.4293 18.48C16.4293 18.475 16.4327 18.47 16.436 18.47L16.5638 18.4C16.5672 18.4 16.5739 18.4 16.5739 18.405L16.5773 18.41C16.5806 18.415 16.5806 18.42 16.5773 18.425C16.5436 18.505 16.5134 18.59 16.4797 18.67C16.4797 18.675 16.4764 18.675 16.4764 18.675C16.1367 18.855 15.4203 19.135 14.5257 19.32C14.4282 19.34 14.3374 19.36 14.2466 19.38C13.7051 19.49 13.2477 19.585 12.1244 19.62ZM7.6748 18.605C8.39117 18.94 9.92144 19.51 12.1244 19.595C13.2477 19.565 13.7084 19.465 14.2365 19.35C14.3273 19.33 14.4181 19.31 14.5156 19.29C15.4069 19.105 16.1199 18.83 16.4629 18.65C16.4932 18.575 16.5235 18.505 16.5504 18.435L16.4528 18.49C16.4528 18.495 16.4528 18.5 16.4528 18.505C16.4528 18.51 16.4495 18.51 16.4461 18.515L16.4259 18.525C16.2309 18.615 15.6356 18.895 14.5022 19.16L14.2936 19.205C13.732 19.32 13.2006 19.43 12.1244 19.465C10.6916 19.43 9.26225 19.12 7.63108 18.49L7.6748 18.605ZM16.5638 18.41L16.5705 18.4L16.5638 18.41Z" fill="black"/>
<path d="M16.5875 14.83C16.5942 16.94 15.8678 18.835 15.2826 19.67C14.4552 20.85 13.3555 21.61 12.0741 21.645C10.6447 21.685 9.29268 20.295 8.93281 19.69C8.22654 18.5 7.64806 16.985 7.63124 14.945C7.71869 12.64 8.32743 11.04 9.2086 9.94001C10.0898 8.84001 11.2635 8.30501 12.2422 8.34001C13.3689 8.38501 14.6873 9.20501 15.5987 10.84C16.194 11.91 16.453 13.07 16.5875 14.83ZM12.0909 7.60501C14.8386 7.60501 17.0987 10.93 17.0987 15.005C17.0987 19.08 14.8386 22.41 12.0909 22.41C9.34313 22.41 7.09985 19.085 7.09985 15.005C7.09985 10.925 9.33976 7.61001 12.0909 7.60501Z" fill="#FFFF00"/>
<path d="M12.0907 22.425C9.33287 22.425 7.0896 19.1 7.0896 15.01C7.0896 10.92 9.33287 7.59499 12.0907 7.59499C13.4192 7.58999 14.6939 8.37499 15.6322 9.76999C17.5795 12.615 17.6064 17.27 15.6894 20.165C15.6692 20.195 15.649 20.225 15.6322 20.25C14.6939 21.645 13.4192 22.43 12.0907 22.425ZM12.0907 7.61999C9.34296 7.61999 7.10978 10.935 7.10978 15.01C7.10978 19.085 9.34296 22.4 12.0907 22.4C14.8486 22.4 17.0885 19.085 17.0885 15.01C17.0885 10.935 14.8452 7.61999 12.0907 7.61999ZM12.0167 21.665C10.5504 21.665 9.24207 20.235 8.92929 19.7C8.0683 18.25 7.64117 16.695 7.62435 14.945C7.70507 12.825 8.23646 11.135 9.20507 9.92499C10.0291 8.89499 11.1927 8.27999 12.2454 8.32499C13.4865 8.37499 14.7746 9.335 15.6087 10.83C16.1804 11.855 16.4596 12.975 16.6008 14.825C16.6075 16.865 15.9282 18.77 15.2925 19.675C14.408 20.94 13.2981 21.625 12.0806 21.655L12.0167 21.665ZM12.1445 8.355C11.1255 8.355 10.0122 8.95999 9.21852 9.94999C8.25328 11.155 7.72525 12.835 7.64453 14.95C7.66135 16.69 8.08512 18.235 8.9461 19.68C9.25888 20.21 10.5605 21.635 12.0201 21.635H12.0806C13.2948 21.6 14.4013 20.92 15.2824 19.66C15.9147 18.76 16.5907 16.865 16.584 14.83C16.4427 12.985 16.1636 11.87 15.5952 10.85C14.7645 9.35999 13.4797 8.405 12.2454 8.355C12.2084 8.355 12.1748 8.355 12.1445 8.355Z" fill="black"/>
<path d="M12.1043 7.57999C14.8554 7.57999 17.0987 10.915 17.0987 15.005C17.0987 19.095 14.8554 22.43 12.1043 22.43C9.35314 22.43 7.10986 19.1 7.10986 15.005C7.10986 10.91 9.35314 7.57999 12.1043 7.57999ZM7.21749 15.005C7.21749 19 9.42376 22.27 12.1043 22.27C14.7848 22.27 16.9877 19 16.9877 15.005C16.9877 11.01 14.7814 7.73999 12.1043 7.73999C9.42713 7.73999 7.21749 11.015 7.21749 15.005Z" fill="#FFFF00"/>
<path d="M12.1043 22.45C9.34313 22.45 7.09985 19.11 7.09985 15.01C7.09985 10.91 9.34649 7.57001 12.1043 7.57001C14.8622 7.57001 17.1088 10.91 17.1088 15.01C17.1088 19.11 14.8622 22.45 12.1043 22.45ZM12.1043 7.59501C9.35658 7.59501 7.12003 10.92 7.12003 15.005C7.12003 19.09 9.35658 22.415 12.1043 22.415C14.8521 22.415 17.0886 19.09 17.0886 15C17.0886 10.91 14.8521 7.59501 12.1043 7.59501ZM12.1043 22.285C9.39021 22.3 7.18057 19.04 7.17048 15.005C7.16039 10.97 9.34985 7.69001 12.064 7.67501C14.7781 7.66001 16.9877 10.915 16.9978 14.95C17.0046 16.9 16.4833 18.77 15.555 20.15C14.6436 21.52 13.3992 22.285 12.1043 22.285ZM12.1043 7.76001C9.41712 7.76001 7.22766 11.01 7.22766 15.01C7.22766 19.01 9.41375 22.26 12.1043 22.26C14.7949 22.26 16.981 19.01 16.981 15.01C16.981 11.01 14.7916 7.76001 12.1043 7.76001Z" fill="black"/>
<path d="M12.1077 8.20001C14.6167 8.20001 16.6817 11.26 16.6817 15C16.6817 18.74 14.6167 21.805 12.1077 21.805C9.59871 21.805 7.53369 18.745 7.53369 15C7.53369 11.255 9.59871 8.20001 12.1077 8.20001ZM7.64131 15C7.64131 18.65 9.65925 21.64 12.1077 21.64C14.5561 21.64 16.574 18.65 16.574 15C16.574 11.35 14.5561 8.36001 12.1077 8.36001C9.65925 8.36001 7.64131 11.35 7.64131 15Z" fill="#FFFF00"/>
<path d="M12.1077 21.82C9.56508 21.835 7.4967 18.785 7.48661 15.005C7.47652 11.225 9.52809 8.15 12.0707 8.135C14.6133 8.12 16.6817 11.17 16.6918 14.95C16.6951 16.775 16.2108 18.53 15.3431 19.82C14.4889 21.1 13.3218 21.82 12.1077 21.82ZM12.1077 8.215C9.58863 8.215 7.54042 11.26 7.54042 15.005C7.54042 18.75 9.58863 21.79 12.1077 21.79C14.6267 21.79 16.6716 18.745 16.6716 15C16.6716 11.255 14.6234 8.215 12.1077 8.215ZM12.1077 21.655C9.62562 21.67 7.60769 18.69 7.5976 15.005C7.58751 11.315 9.59199 8.315 12.0707 8.3C14.5528 8.285 16.5707 11.265 16.5808 14.95C16.5841 16.73 16.1099 18.44 15.2624 19.7C14.4317 20.95 13.2949 21.655 12.1077 21.655ZM12.1077 8.375C9.64917 8.375 7.65141 11.35 7.65141 15C7.65141 18.65 9.64917 21.625 12.1077 21.625C14.5662 21.625 16.564 18.655 16.564 15C16.564 11.345 14.5628 8.375 12.1077 8.375Z" fill="black"/>
<path d="M12.3228 7.57501H11.8889V22.475H12.3261L12.3228 7.57501Z" fill="#FFFF00"/>
<path d="M12.3262 22.49H11.889C11.8823 22.49 11.8789 22.485 11.8789 22.475V7.575C11.8789 7.565 11.8823 7.56 11.889 7.56H12.3229C12.3296 7.56 12.3329 7.565 12.3329 7.575L12.3363 22.475C12.3363 22.485 12.3329 22.49 12.3262 22.49ZM11.8991 22.46H12.3161L12.3128 7.59H11.8957L11.8991 22.46Z" fill="black"/>
<path d="M12.2591 7.47501H12.36V22.575H12.2591V7.47501ZM11.8555 7.47501H11.9564V22.575H11.8555V7.47501Z" fill="#FFFF00"/>
<path d="M12.3598 22.59H12.2589C12.2522 22.59 12.2488 22.585 12.2488 22.575V7.47499C12.2488 7.46999 12.2488 7.46999 12.2522 7.46499C12.2555 7.45999 12.2555 7.45999 12.2589 7.45999H12.3598C12.3665 7.45999 12.3699 7.46499 12.3699 7.47499V22.575C12.3699 22.58 12.3699 22.58 12.3665 22.585C12.3665 22.59 12.3632 22.59 12.3598 22.59ZM12.269 22.56H12.3531V7.48999H12.269V22.56ZM11.9562 22.59H11.8553C11.8486 22.59 11.8452 22.585 11.8452 22.575V7.47499C11.8452 7.46499 11.8486 7.45999 11.8553 7.45999H11.9562C11.9629 7.45999 11.9663 7.46499 11.9663 7.47499V22.575C11.9663 22.58 11.9663 22.58 11.9629 22.585C11.9629 22.59 11.9596 22.59 11.9562 22.59ZM11.8654 22.56H11.9461V7.48999H11.8654V22.56Z" fill="black"/>
<path d="M17.102 15.32V14.77L16.7993 14.35L15.0841 13.675L12.6087 13.3L9.62892 13.525L7.50672 14.275L7.07959 14.745V15.295L8.16591 14.57L10.7421 13.97H13.2175L15.0336 14.27L16.2948 14.72L17.102 15.32Z" fill="#FFFF00"/>
<path d="M17.1021 15.335H17.0987L16.2916 14.74L15.0303 14.29L13.2142 13.99H10.7389L8.16599 14.59L7.08303 15.31C7.07967 15.31 7.07631 15.31 7.07294 15.31C7.06958 15.305 7.06958 15.305 7.06958 15.3V14.75C7.06958 14.745 7.06958 14.74 7.07294 14.74L7.50007 14.27H7.50344L9.62563 13.52L12.6055 13.295L15.0808 13.67L16.7994 14.345C16.7994 14.345 16.8028 14.345 16.8028 14.35L17.1055 14.77C17.1088 14.775 17.1088 14.775 17.1088 14.78V15.33C17.1088 15.335 17.1055 15.34 17.1055 15.345C17.1055 15.335 17.1021 15.335 17.1021 15.335ZM13.2142 13.96L15.0337 14.26L16.2983 14.71L17.092 15.295V14.775L16.7927 14.365L15.0774 13.69L12.6055 13.315L9.629 13.54L7.51353 14.29L7.08976 14.755V15.28L8.15927 14.565H8.16263L10.7389 13.965L13.2142 13.96Z" fill="black"/>
<path d="M12.1109 13.855C13.2914 13.85 14.4383 14.02 15.3463 14.285C16.2847 14.565 16.9439 14.91 17.1692 15.305V15.5C16.8968 15.015 16.0089 14.655 15.3262 14.45C14.4248 14.19 13.2847 14.02 12.1109 14.025C10.8699 14.03 9.7163 14.205 8.82841 14.46C8.11541 14.67 7.16361 15.09 7.0459 15.5V15.3C7.1098 15.015 7.81944 14.59 8.81159 14.295C9.70958 14.035 10.8632 13.86 12.1109 13.855ZM12.1109 13.22C13.2914 13.215 14.4383 13.385 15.3463 13.65C16.2847 13.93 16.9439 14.275 17.1692 14.67V14.865C16.8968 14.38 16.0089 14.02 15.3262 13.815C14.4248 13.555 13.2881 13.385 12.1109 13.39C10.8699 13.395 9.72303 13.57 8.83514 13.825C8.14567 14.02 7.15688 14.455 7.0459 14.865V14.665C7.1098 14.385 7.83289 13.94 8.81159 13.66C9.70958 13.395 10.8632 13.225 12.1109 13.22Z" fill="#FFFF00"/>
<path d="M7.04598 15.515C7.03925 15.515 7.03589 15.51 7.03589 15.5V15.3V15.295C7.10652 14.99 7.85315 14.565 8.80831 14.28C9.76347 14.005 10.9372 13.85 12.1076 13.845C13.2276 13.84 14.3778 13.995 15.3464 14.275C16.3251 14.565 16.9574 14.92 17.176 15.3C17.176 15.305 17.1794 15.305 17.1794 15.31V15.505C17.1794 15.51 17.176 15.515 17.1727 15.52C17.1693 15.52 17.1659 15.52 17.1626 15.515C16.8733 15 15.8879 14.64 15.3229 14.47C14.3711 14.195 13.2444 14.045 12.1446 14.045H12.111C10.9541 14.05 9.78701 14.205 8.83185 14.48C8.05495 14.71 7.16705 15.13 7.05607 15.51C7.05271 15.51 7.04934 15.515 7.04598 15.515ZM12.1446 14.01C13.2478 14.01 14.3745 14.16 15.3262 14.435C15.8812 14.6 16.8464 14.95 17.1592 15.46V15.31C16.9406 14.935 16.315 14.59 15.3431 14.3C14.3845 14.025 13.2511 13.87 12.1413 13.87H12.1076C10.9372 13.875 9.76683 14.025 8.81167 14.305C7.8767 14.585 7.12333 15.01 7.0527 15.3V15.445C7.24105 15.015 8.24329 14.62 8.82513 14.445C9.78365 14.165 10.9507 14.015 12.1076 14.01H12.1446ZM7.04598 14.88C7.03925 14.88 7.03589 14.875 7.03589 14.865V14.665V14.66C7.10652 14.35 7.86997 13.915 8.81167 13.64C9.76683 13.365 10.9406 13.21 12.111 13.205H12.1446C13.2545 13.205 14.3913 13.355 15.3498 13.635C16.3285 13.925 16.9608 14.28 17.1794 14.66C17.1794 14.665 17.1827 14.665 17.1827 14.67V14.865C17.1827 14.87 17.1794 14.875 17.176 14.88C17.1727 14.88 17.1693 14.88 17.1659 14.875C16.8767 14.36 15.8913 14 15.3262 13.83C14.3778 13.555 13.2478 13.405 12.148 13.405H12.1144C10.9608 13.41 9.7971 13.56 8.83858 13.84C8.20966 14.015 7.17042 14.455 7.05607 14.87C7.05607 14.875 7.04934 14.88 7.04598 14.88ZM12.1446 13.375C13.2478 13.375 14.3745 13.525 15.3262 13.8C15.8812 13.965 16.8464 14.315 17.1592 14.825V14.675C16.9406 14.3 16.315 13.955 15.3431 13.665C14.3745 13.385 13.2276 13.235 12.111 13.235C10.9406 13.24 9.77019 13.39 8.81504 13.67C7.79262 13.965 7.11997 14.41 7.05607 14.665V14.805C7.23432 14.39 8.20293 13.985 8.83185 13.81C9.79037 13.53 10.9541 13.38 12.111 13.375H12.1446Z" fill="black"/>
<path d="M12.0807 9.97001C13.9405 9.95501 15.5616 10.355 16.3015 10.92L16.5706 11.615C15.9248 11.1 14.1759 10.56 12.0807 10.64C10.3721 10.655 8.54926 10.92 7.6311 11.645L7.95397 10.84C8.7107 10.27 10.4798 9.97501 12.0807 9.97001Z" fill="#FFFF00"/>
<path d="M7.63449 11.665C7.63113 11.665 7.62777 11.665 7.62777 11.66C7.6244 11.655 7.6244 11.65 7.62777 11.64L7.95064 10.835L7.954 10.83C8.73427 10.23 10.5874 9.95501 12.0807 9.95001H12.1749C13.9305 9.95001 15.5448 10.32 16.3083 10.905L16.3116 10.91L16.5807 11.605C16.584 11.61 16.5807 11.615 16.5807 11.62C16.5773 11.625 16.574 11.625 16.5706 11.625C15.8946 11.08 14.1356 10.575 12.084 10.655C10.8834 10.665 8.70736 10.81 7.64122 11.66C7.63786 11.665 7.63786 11.665 7.63449 11.665ZM7.96409 10.86L7.6614 11.615C8.74436 10.785 10.8935 10.64 12.084 10.63C14.1087 10.55 15.8509 11.045 16.5504 11.58L16.2982 10.93C15.5213 10.34 13.8699 9.97001 12.084 9.98001C10.5941 9.99001 8.74436 10.26 7.96409 10.86Z" fill="black"/>
<path d="M12.1076 10.525C13.167 10.52 14.1928 10.61 15.0067 10.83C15.7668 11.04 16.4899 11.355 16.5908 11.525L16.6715 11.735C16.4193 11.49 15.7937 11.22 14.9899 10.99C14.1861 10.76 13.1569 10.69 12.1042 10.695C10.9069 10.69 9.97869 10.785 9.17824 10.99C8.33407 11.225 7.74887 11.56 7.60425 11.72L7.6816 11.495C7.96075 11.28 8.40806 11.025 9.1547 10.825C9.98541 10.6 10.9271 10.535 12.1076 10.525ZM12.1076 9.92501C13.1233 9.92001 14.1255 10.005 14.9058 10.215C15.5213 10.395 16.13 10.67 16.3554 10.92L16.4731 11.195C16.2747 10.865 15.5213 10.555 14.8587 10.38C14.0852 10.18 13.1233 10.105 12.1076 10.09C11.0415 10.095 10.0594 10.19 9.29595 10.4C8.56613 10.605 8.09864 10.85 7.89685 11.04L8.00111 10.81C8.27689 10.595 8.71748 10.4 9.27577 10.235C10.046 10.025 11.0347 9.93001 12.1076 9.92501Z" fill="#FFFF00"/>
<path d="M16.6715 11.75C16.6682 11.75 16.6682 11.75 16.6648 11.745C16.4193 11.505 15.8072 11.235 14.9866 11.005C14.2668 10.805 13.2949 10.705 12.1009 10.71C10.9036 10.705 9.97535 10.8 9.17826 11.005C8.33746 11.24 7.75562 11.57 7.60764 11.73C7.60427 11.735 7.59755 11.735 7.59418 11.73C7.59082 11.725 7.59082 11.72 7.59082 11.71L7.66817 11.485L7.67154 11.48C8.04822 11.195 8.53252 10.975 9.148 10.81C9.89463 10.605 10.7489 10.52 12.0975 10.51C13.241 10.505 14.2433 10.61 15 10.815C15.7736 11.03 16.4866 11.345 16.5908 11.515L16.6715 11.73C16.6749 11.735 16.6715 11.745 16.6682 11.75C16.6749 11.75 16.6749 11.75 16.6715 11.75ZM12.185 10.68C13.3453 10.68 14.287 10.78 14.9933 10.975C15.7836 11.195 16.3789 11.455 16.648 11.69L16.5875 11.53C16.4866 11.365 15.7635 11.05 15.0067 10.84C14.25 10.63 13.2478 10.535 12.1076 10.535C10.7623 10.545 9.90808 10.635 9.16145 10.835C8.54934 11 8.0684 11.215 7.69172 11.5L7.63118 11.67C7.81952 11.5 8.38454 11.19 9.17826 10.97C9.97871 10.765 10.907 10.67 12.1043 10.675H12.185V10.68ZM16.4697 11.21C16.4664 11.21 16.463 11.21 16.463 11.205C16.2579 10.865 15.4675 10.555 14.8554 10.395C14.1491 10.215 13.2511 10.12 12.1076 10.105C10.9944 10.11 10.0224 10.215 9.29598 10.415C8.65024 10.6 8.12894 10.835 7.9036 11.055C7.90024 11.06 7.89351 11.06 7.89015 11.055C7.88678 11.05 7.88678 11.04 7.89015 11.035L7.99441 10.805L7.99777 10.8C8.27019 10.585 8.71414 10.39 9.2758 10.225C10.0023 10.03 10.981 9.92001 12.1076 9.92001H12.1749C13.2545 9.92001 14.1962 10.02 14.9058 10.21C15.565 10.4 16.1502 10.685 16.3588 10.915C16.3588 10.915 16.3621 10.915 16.3621 10.92L16.4798 11.195C16.4832 11.2 16.4832 11.21 16.4765 11.215C16.4697 11.21 16.4697 11.21 16.4697 11.21ZM12.1043 10.075C13.2511 10.09 14.1491 10.185 14.8554 10.365C15.4271 10.515 16.1502 10.795 16.4193 11.11L16.3419 10.925C16.1334 10.695 15.5549 10.415 14.8991 10.225C14.176 10.03 13.2108 9.93501 12.1043 9.93501C10.9776 9.94001 9.99889 10.045 9.2758 10.24C8.71414 10.405 8.27356 10.6 8.0045 10.81L7.92714 10.985C8.17266 10.775 8.67378 10.55 9.28925 10.375C10.0191 10.185 10.991 10.08 12.1043 10.075Z" fill="black"/>
<path d="M14.5863 18.095C13.6682 17.84 12.7467 17.805 12.1043 17.815C9.00675 17.87 8.00451 18.76 7.88343 19.03L7.65137 18.47C8.43836 17.62 10.1267 17.145 12.1211 17.195C13.157 17.22 14.0482 17.32 14.8016 17.54L14.5863 18.095Z" fill="#FFFF00"/>
<path d="M7.88349 19.045C7.88013 19.045 7.87677 19.045 7.87677 19.04L7.6447 18.48C7.64134 18.475 7.6447 18.465 7.64807 18.46C8.43843 17.61 10.11 17.13 12.1212 17.18C13.2142 17.205 14.092 17.32 14.8017 17.525C14.805 17.525 14.8084 17.53 14.8084 17.535C14.8084 17.54 14.8084 17.545 14.8084 17.55L14.5965 18.1C14.5931 18.105 14.5898 18.11 14.5864 18.105C13.8566 17.905 13.0225 17.81 12.1077 17.825C9.09089 17.875 8.02811 18.74 7.89358 19.035C7.89022 19.04 7.88686 19.045 7.88349 19.045ZM7.66488 18.47L7.88349 19C8.05165 18.685 9.13461 17.85 12.1043 17.795C13.0191 17.78 13.8532 17.87 14.583 18.075L14.7848 17.54C14.0786 17.34 13.2041 17.225 12.1212 17.2C10.12 17.155 8.45524 17.63 7.66488 18.47Z" fill="black"/>
<path d="M12.0908 17.735C12.9518 17.755 13.7994 17.805 14.6133 18.035L14.5527 18.19C13.796 17.98 12.9855 17.9 12.0908 17.91C10.9474 17.895 9.7904 18.055 8.7848 18.485C8.46865 18.615 7.94063 18.92 7.88681 19.17L7.82628 19.025C7.84309 18.875 8.1626 18.57 8.75453 18.32C9.91484 17.83 10.9911 17.745 12.0908 17.735ZM12.1245 17.09C13.0157 17.115 13.9406 17.175 14.8352 17.44L14.7747 17.6C13.9642 17.36 13.194 17.28 12.1312 17.255C10.9843 17.26 9.76686 17.38 8.66036 17.86C8.30385 18.015 7.68838 18.35 7.6682 18.615L7.60767 18.46C7.62112 18.22 8.15587 17.905 8.63345 17.7C9.75004 17.215 10.9709 17.095 12.1245 17.09Z" fill="#FFFF00"/>
<path d="M7.89007 19.18C7.8867 19.18 7.88334 19.18 7.88334 19.175L7.82617 19.03C7.82617 19.025 7.82617 19.025 7.82617 19.02C7.84635 18.855 8.17931 18.55 8.76114 18.305C9.86092 17.835 10.8901 17.73 12.0941 17.72C12.9114 17.74 13.7824 17.785 14.6199 18.02C14.6233 18.02 14.6266 18.025 14.6266 18.025C14.6266 18.03 14.6266 18.035 14.6266 18.04L14.5661 18.195C14.5627 18.2 14.5593 18.205 14.556 18.2C13.843 18.005 13.0392 17.91 12.0975 17.92H11.9629C10.7522 17.92 9.68603 18.115 8.79141 18.495C8.45173 18.635 7.95061 18.94 7.90016 19.17C7.89679 19.18 7.89343 19.18 7.89007 19.18ZM7.83962 19.02L7.8867 19.135C7.97079 18.885 8.47191 18.595 8.78469 18.465C9.71294 18.07 10.8295 17.875 12.0941 17.89C13.0358 17.885 13.8363 17.975 14.5526 18.17L14.6031 18.04C13.7724 17.81 12.9046 17.765 12.0941 17.745C10.8934 17.76 9.86765 17.86 8.76787 18.33C8.15913 18.585 7.86316 18.885 7.83962 19.02ZM7.66809 18.63C7.66473 18.63 7.66137 18.625 7.66137 18.625L7.60083 18.47C7.60083 18.465 7.60083 18.465 7.60083 18.46C7.61428 18.215 8.14231 17.9 8.63334 17.685C9.58514 17.275 10.695 17.08 12.1244 17.075C12.9988 17.1 13.9304 17.16 14.8385 17.425C14.8419 17.425 14.8452 17.43 14.8452 17.43C14.8452 17.435 14.8452 17.44 14.8452 17.445L14.7847 17.605C14.7813 17.61 14.778 17.615 14.7746 17.61C13.9136 17.355 13.0963 17.29 12.1311 17.265C10.7085 17.27 9.60531 17.46 8.66361 17.865C8.19948 18.065 7.695 18.385 7.67482 18.605C7.67482 18.62 7.67146 18.625 7.66809 18.63ZM7.61765 18.455L7.66473 18.575C7.74545 18.25 8.56271 17.885 8.66025 17.845C9.60195 17.44 10.7085 17.245 12.1311 17.24C13.093 17.26 13.9136 17.33 14.7712 17.58L14.8217 17.445C13.9203 17.18 12.9921 17.125 12.1244 17.1C10.695 17.105 9.5885 17.295 8.6367 17.71C8.1793 17.91 7.63783 18.225 7.61765 18.455Z" fill="black"/>
<path d="M16.5269 18.555L16.1535 19.415L15.084 18L12.3094 15.225L9.18157 12.675L7.55713 11.85L7.90354 10.895L8.02125 10.8L9.03022 11.175L12.3598 13.725L14.2769 15.525L15.8912 17.25L16.547 18.375L16.5269 18.555Z" fill="#FFFF00"/>
<path d="M16.1536 19.425C16.1503 19.425 16.1503 19.425 16.1469 19.42L15.0774 18.005L12.3027 15.23L9.17492 12.68L7.55385 11.855C7.54712 11.85 7.54712 11.845 7.54712 11.835L7.89353 10.88L7.8969 10.875L8.01461 10.78C8.01797 10.78 8.01797 10.78 8.02133 10.78L9.0303 11.155L12.3633 13.705L14.2803 15.505L15.8947 17.23L16.5505 18.355C16.5538 18.36 16.5538 18.365 16.5538 18.365L16.5337 18.545V18.55L16.1637 19.41C16.1603 19.425 16.157 19.425 16.1536 19.425ZM7.57066 11.84L9.18501 12.66L12.3128 15.21L15.0875 17.985L16.1503 19.385L16.5135 18.545L16.5337 18.375L15.8812 17.255L14.2669 15.53L12.3498 13.73L9.02021 11.18L8.01797 10.81L7.90699 10.9L7.57066 11.84Z" fill="black"/>
<path d="M7.49994 11.875C7.78581 11.59 9.87774 12.975 12.0672 14.94C14.2499 16.91 16.3385 19.135 16.1502 19.55L16.0896 19.695L16.0594 19.73C16.0661 19.725 16.0963 19.665 16.056 19.51C15.9618 19.055 14.482 17.3 12.0268 15.09C9.63222 12.965 7.63447 11.69 7.43604 12.055L7.49994 11.875ZM16.5975 18.54C16.7791 18.01 14.8351 15.835 12.4271 13.72C9.96518 11.645 8.1894 10.425 7.86653 10.79L7.7959 10.985C7.7959 10.995 7.79926 10.97 7.81272 10.955C7.87325 10.88 7.97079 10.885 8.01451 10.885C8.57281 10.9 10.167 11.99 12.4035 13.895C13.3822 14.745 16.5437 17.755 16.5302 18.605C16.5302 18.68 16.5336 18.695 16.5168 18.73L16.5975 18.54Z" fill="#FFFF00"/>
<path d="M16.0594 19.74C16.0561 19.74 16.0527 19.74 16.0527 19.735C16.0493 19.73 16.0493 19.72 16.0527 19.715C16.0527 19.715 16.0863 19.665 16.046 19.515C15.9484 19.045 14.3845 17.225 12.0202 15.105C9.5045 12.875 7.62109 11.735 7.44284 12.065C7.43948 12.07 7.43275 12.07 7.42939 12.065C7.42603 12.06 7.42603 12.055 7.42603 12.05L7.48993 11.87L7.49329 11.865C7.78925 11.565 9.88791 12.97 12.0706 14.93C14.0348 16.7 16.0729 18.825 16.1671 19.45C16.1738 19.49 16.1704 19.53 16.157 19.565L16.0964 19.705L16.0931 19.71L16.0628 19.745C16.0662 19.74 16.0628 19.74 16.0594 19.74ZM7.57401 11.98C8.12221 11.98 9.97535 13.255 12.0336 15.08C14.435 17.235 15.9686 19.02 16.0695 19.505C16.0863 19.56 16.0931 19.615 16.0897 19.675L16.1469 19.545C16.157 19.515 16.1603 19.485 16.1536 19.455C16.0628 18.84 14.028 16.725 12.0673 14.955C9.93163 13.04 7.80607 11.61 7.51011 11.89L7.46638 12.01C7.50002 11.985 7.53701 11.975 7.57401 11.98ZM16.5168 18.74C16.5135 18.74 16.5135 18.74 16.5101 18.74C16.5067 18.735 16.5067 18.725 16.5067 18.72L16.5135 18.7C16.5202 18.675 16.5202 18.655 16.5168 18.63V18.6C16.5303 17.755 13.3049 14.695 12.3935 13.905C10.1671 12.005 8.56616 10.91 8.00786 10.895H7.99777C7.95069 10.895 7.86661 10.895 7.81616 10.965C7.80943 10.97 7.80607 10.98 7.80271 10.99C7.79934 11 7.79598 11.005 7.78925 11C7.78589 10.995 7.78253 10.99 7.78253 10.98V10.975L7.85316 10.78C7.85316 10.78 7.85316 10.775 7.85652 10.775C8.24329 10.34 10.5572 12.13 12.4271 13.705C14.5964 15.615 16.796 17.96 16.6009 18.545L16.5303 18.71C16.5269 18.715 16.5236 18.725 16.5202 18.73C16.5236 18.735 16.5202 18.735 16.5168 18.74ZM8.01459 10.865C8.57625 10.88 10.1771 11.975 12.407 13.875C13.4697 14.8 16.5538 17.75 16.5404 18.6V18.625V18.64L16.5875 18.535C16.7523 18.04 14.9227 15.935 12.4238 13.735C9.79037 11.515 8.17603 10.47 7.87333 10.8L7.82961 10.92C7.88342 10.88 7.9406 10.865 8.00114 10.87L8.01459 10.865Z" fill="black"/>
<path d="M9.11086 15.825C9.11086 17 9.42701 18.13 9.99203 18.955C10.5369 19.765 11.2801 20.275 12.1008 20.275C12.8945 20.275 13.6579 19.805 14.2196 18.97C14.7645 18.165 15.1008 15.875 15.1008 15.875H15.084V9.87499L9.09741 9.86499V15.825H9.11086Z" fill="white" stroke="black" stroke-width="0.67"/>
<path d="M9.23212 15.85V15.82C9.23549 16.95 9.53818 18.03 10.0797 18.82C11.1996 20.49 13.0124 20.49 14.1357 18.83C14.1357 18.83 14.1357 18.83 14.1391 18.825C14.6772 18.03 14.9799 16.95 14.9799 15.82H14.9832V10.07H9.23212L9.22876 15.85M13.8061 11.835L13.8397 15.47V15.875H13.8061C13.8061 15.98 13.8028 16.085 13.7927 16.19C13.7456 16.75 13.5741 17.27 13.3016 17.665C12.6256 18.655 11.5359 18.64 10.87 17.63C10.5572 17.16 10.3823 16.525 10.379 15.865V11.825L13.8061 11.835Z" fill="#FF0000"/>
<path d="M9.23212 15.85V15.82C9.23549 16.95 9.53818 18.03 10.0797 18.82C11.1996 20.49 13.0124 20.49 14.1357 18.83C14.1357 18.83 14.1357 18.83 14.1391 18.825C14.6772 18.03 14.9799 16.95 14.9799 15.82H14.9832V10.07H9.23212L9.22876 15.85M13.8061 11.835L13.8397 15.47V15.875H13.8061C13.8061 15.98 13.8028 16.085 13.7927 16.19C13.7456 16.75 13.5741 17.27 13.3016 17.665C12.6256 18.655 11.5359 18.64 10.87 17.63C10.5572 17.16 10.3823 16.525 10.379 15.865V11.825L13.8061 11.835Z" stroke="black" stroke-width="0.51"/>
<path d="M9.59529 11.595C9.60202 11.18 9.80045 11.085 9.80045 11.08C9.80045 11.075 10.0123 11.185 10.0123 11.6L9.58521 11.595" fill="#FFFF00"/>
<path d="M9.43386 11.075L9.39014 11.525H9.59866C9.60202 11.16 9.80045 11.095 9.80381 11.095C9.80718 11.095 10.009 11.575 10.009 11.575H10.2612L10.2209 11.075H9.43386Z" fill="#FFFF00" stroke="black" stroke-width="0.5"/>
<path d="M9.37665 11.575H10.2309C10.2477 11.555 10.2645 11.58 10.2645 11.615C10.2645 11.645 10.2511 11.67 10.2309 11.675H9.37665C9.35647 11.67 9.34302 11.645 9.34302 11.615C9.34302 11.58 9.35647 11.555 9.37665 11.575Z" fill="#FFFF00" stroke="black" stroke-width="0.5"/>
<path d="M9.68604 11.575C9.68604 11.325 9.80038 11.255 9.80038 11.255C9.80038 11.255 9.9181 11.325 9.9181 11.575H9.68604Z" fill="#FFFF00" stroke="black" stroke-width="0.5"/>
<path d="M9.41693 10.875H10.1905C10.2107 10.875 10.2241 10.895 10.2241 10.925C10.2241 10.955 10.2107 10.975 10.1905 10.975H9.41693C9.39675 10.975 9.3833 10.955 9.3833 10.925C9.3833 10.895 9.39675 10.875 9.41693 10.875Z" fill="#FFFF00" stroke="black" stroke-width="0.5"/>
<path d="M9.43378 10.975H10.1771C10.1972 10.975 10.2107 10.995 10.2107 11.025C10.2107 11.055 10.1972 11.075 10.1771 11.075H9.43378C9.4136 11.075 9.40015 11.055 9.40015 11.025C9.40015 10.995 9.4136 10.975 9.43378 10.975Z" fill="#FFFF00" stroke="black" stroke-width="0.5"/>
<path d="M9.66577 10.225H9.77003V10.175H9.8373V10.225H9.87093V10.175H9.93819V10.335C9.93819 10.355 9.9281 10.375 9.91129 10.375H9.69604C9.67922 10.375 9.66913 10.355 9.66913 10.335V10.175H9.66577V10.225Z" fill="#FFFF00" stroke="black" stroke-width="0.5"/>
<path d="M9.90139 10.375L9.91484 10.875H9.69287L9.70632 10.375H9.88794" fill="#FFFF00"/>
<path d="M9.90139 10.375L9.91484 10.875H9.69287L9.70632 10.375H9.88794" stroke="black" stroke-width="0.5"/>
<path d="M9.62896 10.625L9.63569 10.875H9.43726L9.44398 10.625H9.62896Z" fill="#FFFF00" stroke="black" stroke-width="0.5"/>
<path d="M10.1636 10.625L10.1704 10.875H9.97192L9.97865 10.625H10.1636Z" fill="#FFFF00" stroke="black" stroke-width="0.5"/>
<path d="M9.40015 10.475H9.50104V10.425H9.56831V10.475H9.60194V10.425H9.6692V10.585C9.6692 10.605 9.65912 10.625 9.6423 10.625H9.42705C9.4136 10.625 9.40015 10.605 9.40015 10.585V10.425V10.475Z" fill="#FFFF00" stroke="black" stroke-width="0.5"/>
<path d="M9.93506 10.475H10.0393V10.425H10.1066V10.475H10.1402V10.425H10.2075V10.585C10.2075 10.605 10.1974 10.625 10.1806 10.625H9.96533C9.94851 10.625 9.93842 10.605 9.93842 10.585V10.425H9.93506V10.475Z" fill="#FFFF00" stroke="black" stroke-width="0.5"/>
<path d="M9.78369 10.545C9.78369 10.5 9.82741 10.495 9.82069 10.545V10.65H9.78705V10.55" fill="black"/>
<path d="M9.51465 10.715C9.51465 10.67 9.55837 10.67 9.55164 10.715V10.8H9.51801V10.7" fill="black"/>
<path d="M10.0492 10.715C10.0459 10.7 10.056 10.685 10.0661 10.68C10.0761 10.675 10.0862 10.69 10.0896 10.705C10.0896 10.71 10.0896 10.71 10.0896 10.715V10.8H10.056V10.7" fill="black"/>
<path d="M9.59529 15.045C9.60202 14.63 9.80045 14.535 9.80045 14.53C9.80045 14.525 10.0123 14.635 10.0123 15.05L9.58521 15.045" fill="#FFFF00"/>
<path d="M9.43386 14.55L9.39014 15.025H9.59866C9.60202 14.635 9.80045 14.57 9.80381 14.57C9.80718 14.57 10.009 15.075 10.009 15.075H10.2175L10.1805 14.525H9.43049V14.55H9.43386Z" fill="#FFFF00" stroke="black" stroke-width="0.5"/>
<path d="M9.37665 15.025H10.2309C10.2511 15.03 10.2645 15.055 10.2645 15.09C10.2645 15.12 10.2511 15.15 10.2309 15.13H9.37665C9.35983 15.15 9.34302 15.125 9.34302 15.09C9.34302 15.055 9.35647 15.03 9.37665 15.025Z" fill="#FFFF00" stroke="black" stroke-width="0.5"/>
<path d="M9.68604 15.025C9.68604 14.775 9.80038 14.705 9.80038 14.705C9.80038 14.705 9.9181 14.78 9.9181 15.025H9.68604Z" fill="#FFFF00" stroke="black" stroke-width="0.5"/>
<path d="M9.41693 14.375H10.1905C10.2107 14.375 10.2241 14.395 10.2241 14.425C10.2241 14.455 10.2107 14.475 10.1905 14.475H9.41693C9.39675 14.475 9.3833 14.455 9.3833 14.425C9.3833 14.395 9.39675 14.375 9.41693 14.375Z" fill="#FFFF00" stroke="black" stroke-width="0.5"/>
<path d="M9.43378 14.475H10.1771C10.1972 14.475 10.2107 14.495 10.2107 14.525C10.2107 14.555 10.1972 14.575 10.1771 14.575H9.43378C9.4136 14.575 9.40015 14.555 9.40015 14.525C9.40015 14.495 9.4136 14.475 9.43378 14.475Z" fill="#FFFF00" stroke="black" stroke-width="0.5"/>
<path d="M9.66577 13.675H9.7364V13.725H9.77003V13.675H9.8373V13.725H9.87093V13.675H9.93819V13.835C9.93819 13.855 9.9281 13.875 9.91129 13.875H9.69604C9.67922 13.875 9.66913 13.855 9.66913 13.835V13.625H9.66577V13.675Z" fill="#FFFF00" stroke="black" stroke-width="0.5"/>
<path d="M9.90139 13.875L9.91484 14.375H9.69287L9.70632 13.875H9.88794" fill="#FFFF00"/>
<path d="M9.90139 13.875L9.91484 14.375H9.69287L9.70632 13.875H9.88794" stroke="black" stroke-width="0.5"/>
<path d="M9.62896 14.075L9.63569 14.325H9.43726L9.44398 14.075H9.62896Z" fill="#FFFF00" stroke="black" stroke-width="0.5"/>
<path d="M10.1636 14.075L10.1704 14.325H9.97192L9.97865 14.075H10.1636Z" fill="#FFFF00" stroke="black" stroke-width="0.5"/>
<path d="M9.40015 13.925H9.46741V13.975H9.50104V13.925L9.56831 13.875V13.975H9.60194V13.875H9.6692V14.035C9.6692 14.055 9.65912 14.075 9.6423 14.075H9.42705C9.4136 14.075 9.40015 14.055 9.40015 14.035V13.875V13.925Z" fill="#FFFF00" stroke="black" stroke-width="0.5"/>
<path d="M9.93506 13.925H10.0057V13.975H10.0393V13.925L10.1066 13.875V13.975H10.1402V13.875H10.2075V14.035C10.2075 14.055 10.1974 14.075 10.1806 14.075H9.96533C9.94851 14.075 9.93842 14.055 9.93842 14.035V13.875H9.93506V13.925Z" fill="#FFFF00" stroke="black" stroke-width="0.5"/>
<path d="M9.78369 14.02C9.78369 13.975 9.82741 13.97 9.82069 14.02V14.15H9.78705V14" fill="black"/>
<path d="M9.51465 14.185C9.51465 14.14 9.55837 14.14 9.55164 14.185V14.3H9.51801V14.2" fill="black"/>
<path d="M10.0492 14.185C10.0459 14.17 10.056 14.155 10.0661 14.15C10.0761 14.145 10.0862 14.16 10.0896 14.175C10.0896 14.18 10.0896 14.18 10.0896 14.185V14.3H10.056V14.2" fill="black"/>
<path d="M10.5069 18.675C10.3152 18.375 10.406 18.1 10.406 18.095C10.406 18.09 10.6078 17.945 10.8029 18.235L10.5069 18.675Z" fill="#FFFF00"/>
<path d="M10.1436 18.495L10.3453 18.865L10.4933 18.645C10.3084 18.365 10.416 18.11 10.4193 18.105C10.4227 18.1 10.6043 17.955 10.7826 18.21L10.9305 17.99L10.6749 17.69L10.1436 18.495Z" fill="#FFFF00" stroke="black" stroke-width="0.5"/>
<path d="M10.3386 18.885L10.9406 17.985C10.9575 17.965 10.9844 17.975 10.9978 18C11.0079 18.02 11.0079 18.045 10.9978 18.065L10.3958 18.965C10.379 18.985 10.3521 18.98 10.3386 18.95C10.3285 18.93 10.3285 18.905 10.3386 18.885Z" fill="#FFFF00" stroke="black" stroke-width="0.5"/>
<path d="M10.5572 18.555C10.4395 18.38 10.4866 18.21 10.4866 18.21C10.4866 18.21 10.6043 18.135 10.722 18.31L10.5572 18.555Z" fill="#FFFF00" stroke="black" stroke-width="0.5"/>
<path d="M10.0294 18.39L10.6079 17.525C10.6213 17.505 10.6415 17.51 10.6549 17.53C10.6684 17.55 10.6718 17.58 10.6583 17.6L10.0798 18.465C10.0664 18.485 10.0428 18.48 10.0294 18.46C10.0193 18.44 10.0159 18.41 10.0294 18.39Z" fill="#FFFF00" stroke="black" stroke-width="0.5"/>
<path d="M10.0933 18.445L10.6449 17.62C10.6583 17.605 10.6785 17.605 10.6919 17.625C10.7054 17.645 10.7088 17.675 10.6953 17.695L10.1437 18.52C10.1303 18.535 10.1101 18.535 10.0966 18.515C10.0832 18.495 10.0798 18.465 10.0933 18.445Z" fill="#FFFF00" stroke="black" stroke-width="0.5"/>
<path d="M9.89136 17.62L9.93508 17.555L9.96535 17.6L9.99562 17.55L9.96199 17.5L10.0057 17.435L10.036 17.48L10.0696 17.43L10.036 17.385L10.0797 17.32L10.1503 17.425C10.1604 17.44 10.1604 17.465 10.1503 17.48L9.99225 17.715C9.98216 17.73 9.96535 17.735 9.9519 17.715L9.89136 17.62Z" fill="#FFFF00" stroke="black" stroke-width="0.5"/>
<path d="M10.1504 17.515L10.3926 17.84L10.2378 18.07L10.0159 17.715L10.1504 17.515Z" fill="#FFFF00" stroke="black" stroke-width="0.5"/>
<path d="M10.073 17.95L10.2008 18.125L10.0561 18.35L9.93506 18.16L10.073 17.95Z" fill="#FFFF00" stroke="black" stroke-width="0.5"/>
<path d="M10.4496 17.39L10.5774 17.565L10.4294 17.785L10.3083 17.595L10.4496 17.39Z" fill="#FFFF00" stroke="black" stroke-width="0.5"/>
<path d="M9.81738 18.065L9.86111 18L9.89137 18.045L9.92164 17.995L9.88801 17.95L9.93173 17.885L9.96536 17.93L9.99563 17.885L9.962 17.84L10.0057 17.775L10.0764 17.88C10.0864 17.895 10.0864 17.92 10.0764 17.935L9.92164 18.165C9.91155 18.18 9.89474 18.18 9.88465 18.165L9.81738 18.065Z" fill="#FFFF00" stroke="black" stroke-width="0.5"/>
<path d="M10.1941 17.5L10.2378 17.435L10.2681 17.48L10.2984 17.435L10.2647 17.39L10.3084 17.325L10.3387 17.37L10.369 17.325L10.3353 17.28L10.3791 17.215L10.4497 17.32C10.4598 17.335 10.4598 17.36 10.4497 17.375L10.295 17.605C10.2849 17.62 10.2681 17.62 10.258 17.605L10.1941 17.5Z" fill="#FFFF00" stroke="black" stroke-width="0.5"/>
<path d="M10.1435 17.745C10.1335 17.735 10.1335 17.715 10.1402 17.7C10.1469 17.685 10.1604 17.685 10.1705 17.695L10.1738 17.7L10.2276 17.78L10.1974 17.825L10.1435 17.745Z" fill="black"/>
<path d="M10.0327 18.145C10.0226 18.135 10.0226 18.115 10.0293 18.1C10.0361 18.085 10.0495 18.085 10.0596 18.095C10.0596 18.095 10.0596 18.095 10.063 18.1L10.1067 18.165L10.0764 18.21L10.0327 18.145Z" fill="black"/>
<path d="M10.4126 17.58C10.4025 17.57 10.4025 17.55 10.4092 17.535C10.416 17.52 10.4294 17.52 10.4395 17.53C10.4429 17.53 10.4429 17.535 10.4429 17.535L10.4866 17.6L10.4563 17.645L10.4126 17.58Z" fill="black"/>
<path d="M11.9023 11.595C11.9091 11.18 12.1075 11.085 12.1075 11.08C12.1075 11.075 12.3194 11.185 12.3194 11.6L11.9057 11.595" fill="#FFFF00"/>
<path d="M11.7208 11.075L11.6973 11.525H11.9058C11.9091 11.16 12.1076 11.095 12.1109 11.095C12.1143 11.095 12.3161 11.575 12.3161 11.575H12.5515L12.5112 11.075H11.7208Z" fill="#FFFF00" stroke="black" stroke-width="0.5"/>
<path d="M11.6838 11.575H12.538C12.5549 11.555 12.5717 11.58 12.5717 11.615C12.5717 11.645 12.5582 11.67 12.538 11.675H11.6838C11.6636 11.67 11.6501 11.645 11.6501 11.615C11.6501 11.58 11.6636 11.555 11.6838 11.575Z" fill="#FFFF00" stroke="black" stroke-width="0.5"/>
<path d="M11.9932 11.575C11.9932 11.325 12.1075 11.255 12.1075 11.255C12.1075 11.255 12.2252 11.325 12.2252 11.575H12.0066" fill="#FFFF00"/>
<path d="M11.9932 11.575C11.9932 11.325 12.1075 11.255 12.1075 11.255C12.1075 11.255 12.2252 11.325 12.2252 11.575H12.0066" stroke="black" stroke-width="0.5"/>
<path d="M11.7209 10.875H12.4978C12.518 10.875 12.5314 10.895 12.5314 10.925C12.5314 10.955 12.518 10.975 12.4978 10.975H11.7209C11.7007 10.975 11.6873 10.955 11.6873 10.925C11.6873 10.895 11.7041 10.875 11.7209 10.875Z" fill="#FFFF00" stroke="black" stroke-width="0.5"/>
<path d="M11.7375 10.975H12.4808C12.5009 10.975 12.5144 10.995 12.5144 11.025C12.5144 11.055 12.5009 11.075 12.4808 11.075H11.7375C11.7173 11.075 11.7039 11.055 11.7039 11.025C11.7039 10.995 11.7173 10.975 11.7375 10.975Z" fill="#FFFF00" stroke="black" stroke-width="0.5"/>
<path d="M11.9697 10.225H12.0572V10.175H12.1581V10.225H12.1917V10.175H12.259V10.335C12.259 10.355 12.2489 10.375 12.2321 10.375H12.0168C12 10.375 11.9899 10.355 11.9899 10.335V10.175H11.9697V10.225Z" fill="#FFFF00" stroke="black" stroke-width="0.5"/>
<path d="M12.2051 10.375L12.2186 10.875H11.9966L12.01 10.375H12.2051Z" fill="#FFFF00" stroke="black" stroke-width="0.5"/>
<path d="M11.9361 10.625L11.9428 10.875H11.7444L11.7511 10.625H11.9361Z" fill="#FFFF00" stroke="black" stroke-width="0.5"/>
<path d="M12.4707 10.625L12.4774 10.875H12.2756L12.2824 10.625H12.4707Z" fill="#FFFF00" stroke="black" stroke-width="0.5"/>
<path d="M11.704 10.475H11.7881V10.425H11.889V10.475H11.9226V10.425H11.9899V10.58C11.9798 10.6 11.9663 10.615 11.9495 10.625H11.7309C11.7141 10.61 11.7007 10.595 11.6838 10.575V10.425H11.7007V10.475H11.704Z" fill="#FFFF00" stroke="black" stroke-width="0.5"/>
<path d="M12.2388 10.475H12.3262V10.425H12.4271V10.475H12.4608V10.425H12.4944V10.585C12.4944 10.605 12.4843 10.625 12.4675 10.625H12.2522C12.2354 10.625 12.2253 10.605 12.2253 10.585V10.425H12.2388V10.475Z" fill="#FFFF00" stroke="black" stroke-width="0.5"/>
<path d="M12.0874 10.545C12.0874 10.5 12.1311 10.495 12.1412 10.545V10.65H12.1076V10.55" fill="black"/>
<path d="M11.8184 10.715C11.8184 10.67 11.8621 10.67 11.8722 10.715V10.8H11.8385V10.7" fill="black"/>
<path d="M12.3564 10.715C12.3564 10.67 12.4002 10.67 12.4103 10.715V10.8H12.3766V10.7" fill="black"/>
<path d="M14.61 11.595C14.6032 11.18 14.4048 11.085 14.4048 11.08C14.4048 11.075 14.1895 11.185 14.1929 11.6L14.5965 11.595" fill="#FFFF00"/>
<path d="M14.7814 11.075L14.815 11.525H14.6065C14.6065 11.16 14.4047 11.095 14.4014 11.095C14.398 11.095 14.1928 11.575 14.1928 11.575H13.9507L13.991 11.075H14.7814Z" fill="#FFFF00" stroke="black" stroke-width="0.5"/>
<path d="M14.8286 11.575H13.9743C13.9575 11.555 13.9407 11.58 13.9407 11.615C13.9407 11.645 13.9541 11.67 13.9743 11.675H14.8286C14.8487 11.67 14.8622 11.645 14.8622 11.615C14.8622 11.58 14.8487 11.555 14.8286 11.575Z" fill="#FFFF00" stroke="black" stroke-width="0.5"/>
<path d="M14.5192 11.575C14.5192 11.325 14.4048 11.255 14.4048 11.255C14.4048 11.255 14.2871 11.325 14.2871 11.575H14.5326" fill="#FFFF00"/>
<path d="M14.5192 11.575C14.5192 11.325 14.4048 11.255 14.4048 11.255C14.4048 11.255 14.2871 11.325 14.2871 11.575H14.5326" stroke="black" stroke-width="0.5"/>
<path d="M14.7883 10.875H14.0114C13.9912 10.875 13.9778 10.895 13.9778 10.925C13.9778 10.955 13.9912 10.975 14.0114 10.975H14.7883C14.8085 10.975 14.822 10.955 14.822 10.925C14.822 10.895 14.8085 10.875 14.7883 10.875Z" fill="#FFFF00" stroke="black" stroke-width="0.5"/>
<path d="M14.7713 10.975H14.028C14.0078 10.975 13.9944 10.995 13.9944 11.025C13.9944 11.055 14.0078 11.075 14.028 11.075H14.7713C14.7915 11.075 14.8049 11.055 14.8049 11.025C14.8049 10.995 14.7915 10.975 14.7713 10.975Z" fill="#FFFF00" stroke="black" stroke-width="0.5"/>
<path d="M14.5394 10.225H14.4453V10.175H14.378V10.225H14.3444V10.175H14.2771V10.335C14.2771 10.355 14.2872 10.375 14.304 10.375H14.5193C14.5361 10.375 14.5462 10.355 14.5462 10.335V10.175H14.5394V10.225Z" fill="#FFFF00" stroke="black" stroke-width="0.5"/>
<path d="M14.304 10.375L14.2905 10.875H14.5125L14.499 10.375H14.2939" fill="#FFFF00"/>
<path d="M14.304 10.375L14.2905 10.875H14.5125L14.499 10.375H14.2939" stroke="black" stroke-width="0.5"/>
<path d="M14.5763 10.625L14.5696 10.875H14.768L14.7613 10.625H14.5763Z" fill="#FFFF00" stroke="black" stroke-width="0.5"/>
<path d="M14.0416 10.625L14.0349 10.875H14.2333L14.2266 10.625H14.0416Z" fill="#FFFF00" stroke="black" stroke-width="0.5"/>
<path d="M14.8051 10.475H14.7143V10.425H14.647V10.475H14.6134V10.425H14.5461V10.585C14.5461 10.605 14.5562 10.625 14.573 10.625H14.7883C14.8051 10.625 14.8152 10.605 14.8152 10.585V10.425H14.8051V10.475Z" fill="#FFFF00" stroke="black" stroke-width="0.5"/>
<path d="M14.2704 10.475H14.1762V10.425H14.109V10.475H14.0753V10.425H14.0081V10.585C14.0081 10.605 14.0181 10.625 14.035 10.625H14.2502C14.267 10.625 14.2771 10.605 14.2771 10.585V10.425H14.2704V10.475Z" fill="#FFFF00" stroke="black" stroke-width="0.5"/>
<path d="M14.4216 10.545C14.4216 10.5 14.3779 10.495 14.3947 10.545V10.65H14.4284V10.55" fill="black"/>
<path d="M14.6907 10.715C14.6907 10.67 14.6469 10.67 14.6638 10.715V10.8H14.6974V10.7" fill="black"/>
<path d="M14.1559 10.715C14.1559 10.67 14.1122 10.67 14.1256 10.715V10.8H14.1593V10.7" fill="black"/>
<path d="M14.61 15.045C14.6032 14.63 14.4048 14.535 14.4048 14.53C14.4048 14.525 14.1895 14.635 14.1929 15.045L14.5965 15.04" fill="#FFFF00"/>
<path d="M14.7815 14.55L14.8151 15.025H14.6066C14.6066 14.635 14.4048 14.57 14.4014 14.57C14.3981 14.57 14.1929 15.075 14.1929 15.075H13.9844L14.0214 14.525H14.7815V14.55V14.55Z" fill="#FFFF00" stroke="black" stroke-width="0.5"/>
<path d="M14.8286 15.025H13.9743C13.9541 15.03 13.9407 15.055 13.9407 15.09C13.9407 15.12 13.9541 15.15 13.9743 15.13H14.8286C14.8454 15.15 14.8622 15.125 14.8622 15.09C14.8622 15.055 14.8487 15.03 14.8286 15.025Z" fill="#FFFF00" stroke="black" stroke-width="0.5"/>
<path d="M14.5192 15.025C14.5192 14.775 14.4048 14.705 14.4048 14.705C14.4048 14.705 14.2871 14.78 14.2871 15.025H14.5326" fill="#FFFF00"/>
<path d="M14.5192 15.025C14.5192 14.775 14.4048 14.705 14.4048 14.705C14.4048 14.705 14.2871 14.78 14.2871 15.025H14.5326" stroke="black" stroke-width="0.5"/>
<path d="M14.7883 14.375H14.0114C13.9912 14.375 13.9778 14.395 13.9778 14.425C13.9778 14.455 13.9912 14.475 14.0114 14.475H14.7883C14.8085 14.475 14.822 14.455 14.822 14.425C14.822 14.395 14.8085 14.375 14.7883 14.375Z" fill="#FFFF00" stroke="black" stroke-width="0.5"/>
<path d="M14.7713 14.475H14.028C14.0078 14.475 13.9944 14.495 13.9944 14.525C13.9944 14.555 14.0078 14.575 14.028 14.575H14.7713C14.7915 14.575 14.8049 14.555 14.8049 14.525C14.8049 14.495 14.7915 14.475 14.7713 14.475Z" fill="#FFFF00" stroke="black" stroke-width="0.5"/>
<path d="M14.5394 13.675H14.4789V13.725H14.4453V13.675H14.378V13.725H14.3444V13.675H14.2771V13.835C14.2771 13.855 14.2872 13.875 14.304 13.875H14.5193C14.5361 13.875 14.5462 13.855 14.5462 13.835V13.625H14.5394V13.675Z" fill="#FFFF00" stroke="black" stroke-width="0.5"/>
<path d="M14.304 13.875L14.2905 14.375H14.5125L14.499 13.875H14.2939" fill="#FFFF00"/>
<path d="M14.304 13.875L14.2905 14.375H14.5125L14.499 13.875H14.2939" stroke="black" stroke-width="0.5"/>
<path d="M14.5763 14.075L14.5696 14.325H14.768L14.7613 14.075H14.5763Z" fill="#FFFF00" stroke="black" stroke-width="0.5"/>
<path d="M14.0416 14.075L14.0349 14.325H14.2333L14.2266 14.075H14.0416Z" fill="#FFFF00" stroke="black" stroke-width="0.5"/>
<path d="M14.8051 13.925H14.7479V13.975H14.7143V13.925L14.647 13.875V13.975H14.6134V13.875H14.5461V14.035C14.5461 14.055 14.5562 14.075 14.573 14.075H14.7883C14.8051 14.075 14.8152 14.055 14.8152 14.035V13.875H14.8051V13.925Z" fill="#FFFF00" stroke="black" stroke-width="0.5"/>
<path d="M14.2704 13.925H14.2099V13.975H14.1762V13.925L14.109 13.875V13.975H14.0753V13.875H14.0081V14.035C14.0081 14.055 14.0181 14.075 14.035 14.075H14.2502C14.267 14.075 14.2771 14.055 14.2771 14.035V13.875H14.2704V13.925Z" fill="#FFFF00" stroke="black" stroke-width="0.5"/>
<path d="M14.4216 14.02C14.4216 13.975 14.3779 13.97 14.3947 14.02V14.15H14.4284V14" fill="black"/>
<path d="M14.6907 14.185C14.6907 14.14 14.6469 14.14 14.6638 14.185V14.3H14.6974V14.2" fill="black"/>
<path d="M14.1559 14.185C14.1559 14.14 14.1122 14.14 14.1256 14.185V14.3H14.1593V14.2" fill="black"/>
<path d="M13.6986 18.675C13.8903 18.375 13.7994 18.1 13.7994 18.095C13.7994 18.09 13.5977 17.945 13.4026 18.235L13.6986 18.675Z" fill="#FFFF00"/>
<path d="M14.0619 18.495L13.8601 18.865L13.7121 18.645C13.8971 18.365 13.7895 18.11 13.7861 18.105C13.7827 18.1 13.6011 17.955 13.4229 18.21L13.2749 17.99L13.5305 17.69L14.0619 18.495Z" fill="#FFFF00" stroke="black" stroke-width="0.5"/>
<path d="M13.8667 18.885L13.2647 17.985C13.2479 17.965 13.221 17.975 13.2075 18C13.1974 18.02 13.1974 18.045 13.2075 18.065L13.8095 18.965C13.8264 18.985 13.8465 18.98 13.86 18.96C13.8768 18.94 13.8802 18.905 13.8667 18.885Z" fill="#FFFF00" stroke="black" stroke-width="0.5"/>
<path d="M13.6482 18.555C13.7659 18.38 13.7188 18.21 13.7188 18.21C13.7188 18.21 13.6011 18.135 13.4834 18.31L13.6482 18.555Z" fill="#FFFF00" stroke="black" stroke-width="0.5"/>
<path d="M14.176 18.39L13.5976 17.525C13.5841 17.505 13.5606 17.51 13.5471 17.53C13.537 17.55 13.537 17.58 13.5471 17.6L14.1256 18.465C14.139 18.485 14.1626 18.48 14.176 18.46C14.1861 18.44 14.1861 18.41 14.176 18.39Z" fill="#FFFF00" stroke="black" stroke-width="0.5"/>
<path d="M14.1123 18.445L13.5607 17.62C13.5439 17.605 13.5237 17.61 13.5103 17.63C13.5002 17.65 13.5002 17.675 13.5103 17.695L14.0618 18.52C14.0753 18.535 14.0955 18.535 14.1089 18.515C14.1224 18.495 14.1257 18.465 14.1123 18.445Z" fill="#FFFF00" stroke="black" stroke-width="0.5"/>
<path d="M14.314 17.62L14.2703 17.555L14.24 17.6L14.2098 17.55L14.24 17.5L14.193 17.435L14.1627 17.48L14.1291 17.43L14.1627 17.385L14.119 17.32L14.0483 17.425C14.0382 17.44 14.0382 17.465 14.0483 17.48L14.2064 17.715C14.2165 17.73 14.2333 17.735 14.2468 17.715L14.314 17.62Z" fill="#FFFF00" stroke="black" stroke-width="0.5"/>
<path d="M14.0551 17.515L13.813 17.84L13.9677 18.07L14.1897 17.715L14.0551 17.515Z" fill="#FFFF00" stroke="black" stroke-width="0.5"/>
<path d="M14.1324 17.95L14.0046 18.125L14.1526 18.345L14.2737 18.155L14.1324 17.95Z" fill="#FFFF00" stroke="black" stroke-width="0.5"/>
<path d="M13.7557 17.39L13.6279 17.565L13.7759 17.785L13.897 17.595L13.7557 17.39Z" fill="#FFFF00" stroke="black" stroke-width="0.5"/>
<path d="M14.3879 18.065L14.3442 18L14.3139 18.045L14.2837 18L14.3173 17.955L14.2736 17.89L14.2433 17.935L14.213 17.89L14.2467 17.845L14.203 17.78L14.1323 17.885C14.1222 17.9 14.1222 17.925 14.1323 17.94L14.287 18.17C14.2971 18.185 14.3139 18.185 14.324 18.17L14.3879 18.065Z" fill="#FFFF00" stroke="black" stroke-width="0.5"/>
<path d="M14.0114 17.5L13.9677 17.435L13.9374 17.48L13.9071 17.435L13.9408 17.39L13.8971 17.325L13.8634 17.37L13.8332 17.325L13.8668 17.28L13.8231 17.215L13.7524 17.32C13.7424 17.335 13.7424 17.36 13.7524 17.375L13.9071 17.605C13.9172 17.62 13.9341 17.62 13.9441 17.605L14.0114 17.5Z" fill="#FFFF00" stroke="black" stroke-width="0.5"/>
<path d="M14.0619 17.745C14.072 17.73 14.072 17.71 14.0619 17.7C14.0518 17.69 14.0383 17.685 14.0316 17.7L13.9778 17.78L14.0081 17.825L14.0619 17.745Z" fill="black"/>
<path d="M14.1729 18.145C14.183 18.135 14.183 18.115 14.1762 18.1C14.1695 18.085 14.1561 18.085 14.146 18.095C14.146 18.095 14.146 18.095 14.1426 18.1L14.0989 18.165L14.1291 18.21L14.1729 18.145Z" fill="black"/>
<path d="M13.7928 17.58C13.8029 17.57 13.8029 17.55 13.7962 17.535C13.7894 17.52 13.776 17.52 13.7659 17.53C13.7659 17.53 13.7659 17.53 13.7625 17.535L13.7222 17.6L13.7524 17.645L13.7928 17.58Z" fill="black"/>
<path d="M11.7375 15.2V15.175C11.7375 15.335 11.7779 15.49 11.8519 15.61C11.9864 15.835 12.2185 15.855 12.3698 15.65C12.3799 15.635 12.39 15.62 12.3967 15.61C12.4707 15.49 12.5111 15.335 12.5111 15.175V14.35H11.7375V15.2" fill="#003399"/>
<path d="M11.909 14.79C11.9498 14.79 11.9829 14.7408 11.9829 14.68C11.9829 14.6193 11.9498 14.57 11.909 14.57C11.8681 14.57 11.835 14.6193 11.835 14.68C11.835 14.7408 11.8681 14.79 11.909 14.79Z" fill="white"/>
<path d="M12.3294 14.79C12.3702 14.79 12.4034 14.7408 12.4034 14.68C12.4034 14.6193 12.3702 14.57 12.3294 14.57C12.2885 14.57 12.2554 14.6193 12.2554 14.68C12.2554 14.7408 12.2885 14.79 12.3294 14.79Z" fill="white"/>
<path d="M12.1177 15.09C12.1586 15.09 12.1917 15.0407 12.1917 14.98C12.1917 14.9192 12.1586 14.87 12.1177 14.87C12.0768 14.87 12.0437 14.9192 12.0437 14.98C12.0437 15.0407 12.0768 15.09 12.1177 15.09Z" fill="white"/>
<path d="M11.909 15.405C11.9498 15.405 11.9829 15.3557 11.9829 15.295C11.9829 15.2342 11.9498 15.185 11.909 15.185C11.8681 15.185 11.835 15.2342 11.835 15.295C11.835 15.3557 11.8681 15.405 11.909 15.405Z" fill="white"/>
<path d="M12.3294 15.405C12.3702 15.405 12.4034 15.3557 12.4034 15.295C12.4034 15.2342 12.3702 15.185 12.3294 15.185C12.2885 15.185 12.2554 15.2342 12.2554 15.295C12.2554 15.3557 12.2885 15.405 12.3294 15.405Z" fill="white"/>
<path d="M11.7375 13.25V13.225C11.7375 13.385 11.7779 13.54 11.8519 13.66C11.9864 13.885 12.2185 13.905 12.3698 13.7C12.3799 13.685 12.39 13.67 12.3967 13.66C12.4707 13.54 12.5111 13.385 12.5111 13.225V12.4H11.7375V13.25" fill="#003399"/>
<path d="M11.909 12.84C11.9498 12.84 11.9829 12.7907 11.9829 12.73C11.9829 12.6692 11.9498 12.62 11.909 12.62C11.8681 12.62 11.835 12.6692 11.835 12.73C11.835 12.7907 11.8681 12.84 11.909 12.84Z" fill="white"/>
<path d="M12.3294 12.84C12.3702 12.84 12.4034 12.7907 12.4034 12.73C12.4034 12.6692 12.3702 12.62 12.3294 12.62C12.2885 12.62 12.2554 12.6692 12.2554 12.73C12.2554 12.7907 12.2885 12.84 12.3294 12.84Z" fill="white"/>
<path d="M12.1177 13.14C12.1586 13.14 12.1917 13.0907 12.1917 13.03C12.1917 12.9692 12.1586 12.92 12.1177 12.92C12.0768 12.92 12.0437 12.9692 12.0437 13.03C12.0437 13.0907 12.0768 13.14 12.1177 13.14Z" fill="white"/>
<path d="M11.909 13.455C11.9498 13.455 11.9829 13.4057 11.9829 13.345C11.9829 13.2842 11.9498 13.235 11.909 13.235C11.8681 13.235 11.835 13.2842 11.835 13.345C11.835 13.4057 11.8681 13.455 11.909 13.455Z" fill="white"/>
<path d="M12.3294 13.45C12.3702 13.45 12.4034 13.4007 12.4034 13.34C12.4034 13.2792 12.3702 13.23 12.3294 13.23C12.2885 13.23 12.2554 13.2792 12.2554 13.34C12.2554 13.4007 12.2885 13.45 12.3294 13.45Z" fill="white"/>
<path d="M10.6951 15.2V15.175C10.6951 15.335 10.7354 15.49 10.8094 15.61C10.9439 15.835 11.176 15.855 11.3274 15.65C11.3374 15.635 11.3475 15.62 11.3543 15.61C11.4283 15.49 11.4686 15.335 11.4686 15.175V14.35H10.6951V15.2" fill="#003399"/>
<path d="M10.8599 14.79C10.9007 14.79 10.9339 14.7408 10.9339 14.68C10.9339 14.6193 10.9007 14.57 10.8599 14.57C10.819 14.57 10.7859 14.6193 10.7859 14.68C10.7859 14.7408 10.819 14.79 10.8599 14.79Z" fill="white"/>
<path d="M11.2803 14.79C11.3212 14.79 11.3543 14.7408 11.3543 14.68C11.3543 14.6193 11.3212 14.57 11.2803 14.57C11.2394 14.57 11.2063 14.6193 11.2063 14.68C11.2063 14.7408 11.2394 14.79 11.2803 14.79Z" fill="white"/>
<path d="M11.0684 15.09C11.1092 15.09 11.1424 15.0407 11.1424 14.98C11.1424 14.9192 11.1092 14.87 11.0684 14.87C11.0275 14.87 10.9944 14.9192 10.9944 14.98C10.9944 15.0407 11.0275 15.09 11.0684 15.09Z" fill="white"/>
<path d="M10.8599 15.405C10.9007 15.405 10.9339 15.3557 10.9339 15.295C10.9339 15.2342 10.9007 15.185 10.8599 15.185C10.819 15.185 10.7859 15.2342 10.7859 15.295C10.7859 15.3557 10.819 15.405 10.8599 15.405Z" fill="white"/>
<path d="M11.2803 15.405C11.3212 15.405 11.3543 15.3557 11.3543 15.295C11.3543 15.2342 11.3212 15.185 11.2803 15.185C11.2394 15.185 11.2063 15.2342 11.2063 15.295C11.2063 15.3557 11.2394 15.405 11.2803 15.405Z" fill="white"/>
<path d="M12.7802 15.2V15.19C12.7802 15.345 12.8172 15.495 12.8878 15.605C13.0156 15.82 13.2376 15.84 13.3822 15.645C13.3923 15.63 13.4024 15.62 13.4091 15.605C13.4798 15.49 13.5168 15.34 13.5168 15.19V14.35H12.7769V15.2" fill="#003399"/>
<path d="M12.9551 14.79C12.996 14.79 13.0291 14.7408 13.0291 14.68C13.0291 14.6193 12.996 14.57 12.9551 14.57C12.9142 14.57 12.8811 14.6193 12.8811 14.68C12.8811 14.7408 12.9142 14.79 12.9551 14.79Z" fill="white"/>
<path d="M13.3755 14.79C13.4164 14.79 13.4495 14.7408 13.4495 14.68C13.4495 14.6193 13.4164 14.57 13.3755 14.57C13.3346 14.57 13.3015 14.6193 13.3015 14.68C13.3015 14.7408 13.3346 14.79 13.3755 14.79Z" fill="white"/>
<path d="M13.167 15.09C13.2079 15.09 13.241 15.0407 13.241 14.98C13.241 14.9192 13.2079 14.87 13.167 14.87C13.1261 14.87 13.093 14.9192 13.093 14.98C13.093 15.0407 13.1261 15.09 13.167 15.09Z" fill="white"/>
<path d="M12.9551 15.405C12.996 15.405 13.0291 15.3557 13.0291 15.295C13.0291 15.2342 12.996 15.185 12.9551 15.185C12.9142 15.185 12.8811 15.2342 12.8811 15.295C12.8811 15.3557 12.9142 15.405 12.9551 15.405Z" fill="white"/>
<path d="M13.3755 15.405C13.4164 15.405 13.4495 15.3557 13.4495 15.295C13.4495 15.2342 13.4164 15.185 13.3755 15.185C13.3346 15.185 13.3015 15.2342 13.3015 15.295C13.3015 15.3557 13.3346 15.405 13.3755 15.405Z" fill="white"/>
<path d="M11.7375 17.1V17.11C11.7375 17.27 11.7779 17.425 11.8519 17.545C11.9864 17.77 12.2185 17.79 12.3698 17.585C12.3799 17.57 12.39 17.555 12.3967 17.545C12.4707 17.425 12.5111 17.27 12.5111 17.11V16.3H11.7375V17.1" fill="#003399"/>
<path d="M11.909 16.725C11.9498 16.725 11.9829 16.6757 11.9829 16.615C11.9829 16.5542 11.9498 16.505 11.909 16.505C11.8681 16.505 11.835 16.5542 11.835 16.615C11.835 16.6757 11.8681 16.725 11.909 16.725Z" fill="white"/>
<path d="M12.3294 16.725C12.3702 16.725 12.4034 16.6757 12.4034 16.615C12.4034 16.5542 12.3702 16.505 12.3294 16.505C12.2885 16.505 12.2554 16.5542 12.2554 16.615C12.2554 16.6757 12.2885 16.725 12.3294 16.725Z" fill="white"/>
<path d="M12.1177 17.025C12.1586 17.025 12.1917 16.9757 12.1917 16.915C12.1917 16.8542 12.1586 16.805 12.1177 16.805C12.0768 16.805 12.0437 16.8542 12.0437 16.915C12.0437 16.9757 12.0768 17.025 12.1177 17.025Z" fill="white"/>
<path d="M11.909 17.335C11.9498 17.335 11.9829 17.2857 11.9829 17.225C11.9829 17.1642 11.9498 17.115 11.909 17.115C11.8681 17.115 11.835 17.1642 11.835 17.225C11.835 17.2857 11.8681 17.335 11.909 17.335Z" fill="white"/>
<path d="M12.3294 17.335C12.3702 17.335 12.4034 17.2857 12.4034 17.225C12.4034 17.1642 12.3702 17.115 12.3294 17.115C12.2885 17.115 12.2554 17.1642 12.2554 17.225C12.2554 17.2857 12.2885 17.335 12.3294 17.335Z" fill="white"/>
</g>
<defs>
<clipPath id="clip0_18_4434">
<rect width="30" height="30" rx="15" fill="white"/>
</clipPath>
</defs>
</svg>
