<svg width="30" height="30" viewBox="0 0 30 30" fill="none" xmlns="http://www.w3.org/2000/svg">
<g clip-path="url(#clip0_18_4642)">
<path d="M10.0124 0H0.0336914V30H10.0124V0Z" fill="#00853F"/>
<path d="M19.9912 0H10.0125V30H19.9912V0Z" fill="#FDEF42"/>
<path d="M29.9665 0H19.9878V30H29.9665V0Z" fill="#E31B23"/>
<path d="M14.9832 9.995L13.9541 14.75L15.5382 15.52L14.9832 9.995Z" fill="#00853F"/>
<path d="M14.9832 9.995L16.0123 14.75L14.4282 15.52L14.9832 9.995Z" fill="#00853F"/>
<path d="M18.1448 13.46H14.8152V15.96L18.1448 13.46Z" fill="#00853F"/>
<path d="M18.1514 13.45L15.4575 16.385L14.4788 14.365L18.1514 13.45Z" fill="#00853F"/>
<path d="M16.9406 19.035L15.9115 14.285L14.3274 15.055L16.9406 19.035Z" fill="#00853F"/>
<path d="M16.9405 19.035L14.2466 16.095L15.2253 14.075L16.9405 19.035Z" fill="#00853F"/>
<path d="M13.0259 19.035L15.7198 16.095L14.7411 14.075L13.0259 19.035Z" fill="#00853F"/>
<path d="M13.0259 19.035L14.055 14.285L15.6391 15.055L13.0259 19.035Z" fill="#00853F"/>
<path d="M11.8152 13.45L14.5091 16.385L15.4878 14.365L11.8152 13.45Z" fill="#00853F"/>
<path d="M11.822 13.46H15.155V15.96L11.822 13.46Z" fill="#00853F"/>
</g>
<defs>
<clipPath id="clip0_18_4642">
<rect width="30" height="30" rx="15" fill="white"/>
</clipPath>
</defs>
</svg>
