<svg width="30" height="30" viewBox="0 0 30 30" fill="none" xmlns="http://www.w3.org/2000/svg">
<g clip-path="url(#clip0_18_5816)">
<path d="M0 0H30V30H0V0Z" fill="#E70013"/>
<path d="M15 22.5C17.7614 22.5 20 19.1421 20 15C20 10.8579 17.7614 7.5 15 7.5C12.2386 7.5 10 10.8579 10 15C10 19.1421 12.2386 22.5 15 22.5Z" fill="white"/>
<path d="M15 20.625C17.0711 20.625 18.75 18.1066 18.75 15C18.75 11.8934 17.0711 9.375 15 9.375C12.9289 9.375 11.25 11.8934 11.25 15C11.25 18.1066 12.9289 20.625 15 20.625Z" fill="#E70013"/>
<path d="M16 19.5C17.6569 19.5 19 17.4853 19 15C19 12.5147 17.6569 10.5 16 10.5C14.3431 10.5 13 12.5147 13 15C13 17.4853 14.3431 19.5 16 19.5Z" fill="white"/>
<path d="M13.75 15L17.82 13.015L15.3033 18.21V11.79L17.82 16.985L13.75 15Z" fill="#E70013"/>
</g>
<defs>
<clipPath id="clip0_18_5816">
<rect width="30" height="30" rx="15" fill="white"/>
</clipPath>
</defs>
</svg>
