<svg width="30" height="30" viewBox="0 0 30 30" fill="none" xmlns="http://www.w3.org/2000/svg">
<g clip-path="url(#clip0_18_5822)">
<path d="M30 0H0V29.75H30V0Z" fill="white"/>
<path d="M30 3.29999H11.0986V6.59999H30V3.29999Z" fill="#0038A8"/>
<path d="M30 9.89999H11.0986V13.2H30V9.89999Z" fill="#0038A8"/>
<path d="M30 16.5H0V19.8H30V16.5Z" fill="#0038A8"/>
<path d="M30 23.15H0V26.45H30V23.15Z" fill="#0038A8"/>
<path d="M5.30436 9.87451L5.67196 10.691C4.16053 12.317 5.0834 13.2785 4.01221 13.799C4.67846 12.8325 3.90357 12.643 4.4649 10.6285" fill="#FCD116"/>
<path d="M3.97412 13.8335L4.00506 13.7885C4.335 13.3095 4.30775 13.03 4.26773 12.607C4.22838 12.196 4.17423 11.6325 4.4554 10.623L4.45943 10.609L4.47793 10.6205L4.47423 10.6345C4.19509 11.6345 4.24856 12.195 4.28757 12.603C4.32659 13.011 4.35484 13.303 4.05013 13.764C4.51291 13.5225 4.57177 13.192 4.65215 12.7395C4.74699 12.207 4.8647 11.5445 5.65809 10.6895L5.29015 9.8725L5.30697 9.8555L5.68567 10.6965L5.67793 10.705C4.8832 11.56 4.76582 12.2195 4.67165 12.75C4.58724 13.225 4.52636 13.568 4.01549 13.8165L3.97412 13.8335Z" fill="black"/>
<path d="M4.01656 13.8125L4.00781 13.7855C4.38248 13.52 4.42384 13.1055 4.4864 12.478C4.54458 11.896 4.62396 11.0995 5.03259 10.098L5.04974 10.1135C4.64346 11.1095 4.56745 11.871 4.50624 12.4825C4.44268 13.119 4.40097 13.54 4.01656 13.8125Z" fill="black"/>
<path d="M5.58301 8.27502H6.29938L5.56619 14.271L4.83301 8.27502H5.56619V14.25" fill="#FCD116"/>
<path d="M5.56634 14.355L4.82104 8.26001H5.57643V14.105L6.28943 8.29001H5.58315V8.26001H6.31163L6.30961 8.27751L5.56634 14.355ZM4.84492 8.29001L5.55625 14.105V8.29001H4.84492Z" fill="black"/>
<path d="M4.60939 9.137L4.48125 10.1C2.63921 9.661 2.83327 11.311 1.82935 10.553C2.75995 10.57 2.30692 9.6755 3.66197 8.841" fill="#FCD116"/>
<path d="M2.29811 10.772C2.16963 10.772 2.01997 10.7145 1.82457 10.5675L1.78589 10.538H1.82927C2.29239 10.546 2.40809 10.329 2.58196 10C2.75013 9.6805 2.98286 9.243 3.6582 8.8275L3.66762 8.8215L3.67535 8.849L3.66593 8.855C2.99564 9.268 2.76593 9.7 2.59844 10.0185C2.42625 10.344 2.31055 10.5625 1.873 10.5685C2.31526 10.8845 2.51403 10.7125 2.78611 10.477C3.10629 10.2 3.50483 9.8555 4.47344 10.0835L4.60192 9.1185L4.62176 9.1245L4.48959 10.1175H4.47983C3.51122 9.887 3.11504 10.23 2.79822 10.5055C2.6267 10.65 2.4851 10.772 2.29811 10.772Z" fill="black"/>
<path d="M2.09902 10.6445C2.00572 10.6424 1.91335 10.6165 1.82593 10.568L1.83265 10.5395C2.2238 10.7455 2.45014 10.496 2.79286 10.1185C3.11068 9.76849 3.54588 9.28799 4.31102 9.00949L4.31573 9.03849C3.55463 9.31549 3.1386 9.77399 2.80496 10.1425C2.54398 10.43 2.34925 10.6445 2.09902 10.6445Z" fill="black"/>
<path d="M5.55563 8.2595L6.0739 9.03L2.70361 12.5L5.03702 7.4895L5.55563 8.2605L2.70361 12.5" fill="#FCD116"/>
<path d="M2.66357 12.5585L5.03566 7.465L5.04407 7.478L6.0897 9.0325L6.07961 9.0425L2.66357 12.5585ZM5.55595 8.2805L2.79138 12.392L6.0601 9.028L5.55595 8.2805ZM5.03869 7.5115L2.77557 12.371L5.54115 8.2595L5.03869 7.5115Z" fill="black"/>
<path d="M4.50143 7.87998L3.91993 8.42998C2.8252 6.18498 2.17946 7.55698 1.82935 5.96448C2.47946 6.95498 2.56623 5.79998 3.92127 6.63448" fill="#FCD116"/>
<path d="M3.91725 8.45249L3.91187 8.44099C3.33676 7.25949 2.89248 7.08499 2.53698 6.94499C2.21748 6.81949 1.98676 6.72899 1.81961 5.96899L1.80615 5.90799L1.83642 5.95399C2.15795 6.44349 2.33754 6.40399 2.60996 6.34299C2.88239 6.28199 3.24561 6.20149 3.926 6.62049L3.93541 6.62599L3.92768 6.65399L3.91826 6.64799C3.24326 6.23249 2.87902 6.31349 2.61299 6.37299C2.34696 6.43249 2.16299 6.47299 1.85357 6.02299C2.01602 6.71099 2.23833 6.79849 2.54304 6.91799C2.90122 7.05899 3.34651 7.23399 3.92196 8.41399L4.5038 7.86149L4.5149 7.88649L3.91725 8.45249Z" fill="black"/>
<path d="M4.30843 7.50698C3.63847 6.90298 3.12794 6.78998 2.71493 6.69998C2.28679 6.60548 2.00361 6.54348 1.82031 5.97198L1.83847 5.95898C2.0174 6.51598 2.29587 6.57748 2.71796 6.67048C3.10944 6.75698 3.64554 6.87498 4.31886 7.48248L4.30843 7.50698Z" fill="black"/>
<path d="M5.56614 8.3V9.365L1.53296 8.275L5.56614 7.185V8.275H1.54708" fill="#FCD116"/>
<path d="M5.57634 9.38299L5.56457 9.37999L1.47656 8.27499L5.57634 7.16699V8.28999H1.64472L5.55616 9.34999V8.29999H5.57634V9.38299ZM1.64472 8.25999H5.55616V7.20249L1.64472 8.25999Z" fill="black"/>
<path d="M5.03259 6.85251L4.31689 6.66201C4.61218 3.92351 3.50232 4.21201 4.01218 2.71951C4.00075 4.10301 4.61756 3.44701 5.17721 5.46151" fill="#FCD116"/>
<path d="M5.041 6.87L5.03091 6.8675L4.30512 6.674L4.3068 6.6595C4.46185 5.2195 4.23113 4.6305 4.04582 4.1595C3.87967 3.7345 3.75961 3.428 4.00277 2.715L4.02261 2.6575V2.722C4.01689 3.4115 4.16588 3.586 4.39257 3.8505C4.60781 4.1005 4.9068 4.4505 5.18629 5.4555L5.19032 5.4695L5.17149 5.481L5.16779 5.467C4.89032 4.471 4.59436 4.1245 4.37844 3.8715C4.16252 3.6185 4.00647 3.4355 4.00243 2.784C3.78987 3.4415 3.90557 3.737 4.06398 4.1415C4.2503 4.6175 4.48203 5.21 4.32866 6.65L5.04503 6.8405L5.041 6.87Z" fill="black"/>
<path d="M5.03141 6.41601C4.84509 5.28451 4.53668 4.66601 4.28881 4.17001C4.03085 3.65301 3.86067 3.31101 4.0026 2.71451L4.02144 2.72451C3.88321 3.30601 4.05103 3.64251 4.30529 4.15201C4.54072 4.62451 4.86359 5.27151 5.05092 6.40901L5.03141 6.41601Z" fill="black"/>
<path d="M5.55588 8.2595L5.03727 9.03L2.70386 4.0195L6.07415 7.4885L5.55588 8.2595L2.70386 4.0195Z" fill="#FCD116"/>
<path d="M5.0359 9.05349L5.02884 9.03849L2.66382 3.95999L2.70956 4.00699L6.08994 7.48649L5.0359 9.05349ZM2.77581 4.14999L5.03859 9.00949L5.5414 8.26199L2.77581 4.14999ZM2.78994 4.12899L5.55586 8.24049L6.05866 7.49299L2.78994 4.12899Z" fill="black"/>
<path d="M5.85726 6.64401L5.43921 5.82751C6.95064 4.20001 6.02777 3.24001 7.09896 2.71951C6.43271 3.68601 7.20322 3.81951 6.6419 5.83651" fill="#FCD116"/>
<path d="M5.8553 6.66503L5.4248 5.82453L5.43321 5.81553C6.22794 4.96053 6.34532 4.30103 6.43949 3.77153C6.52458 3.29653 6.58478 2.95353 7.09633 2.70503L7.1377 2.68503L7.10676 2.73003C6.77682 3.20903 6.80406 3.47753 6.84207 3.88453C6.88007 4.29153 6.93321 4.83453 6.65205 5.84203L6.64801 5.85603L6.62951 5.84453L6.63321 5.83053C6.91236 4.83053 6.86023 4.28553 6.82189 3.88853C6.78355 3.49153 6.75463 3.21553 7.0627 2.75453C6.59992 2.99603 6.54106 3.32653 6.46068 3.77903C6.36584 4.31153 6.24812 4.97353 5.45507 5.82903L5.87312 6.64553L5.8553 6.66503Z" fill="black"/>
<path d="M6.07868 6.42052L6.06152 6.40502C6.4678 5.40902 6.54381 4.64752 6.60502 4.03602C6.66859 3.40002 6.71029 2.97852 7.09639 2.70602L7.10513 2.73302C6.72879 3.00002 6.68742 3.41302 6.62554 4.04052C6.56668 4.62252 6.48731 5.41952 6.07868 6.42052Z" fill="black"/>
<path d="M5.58276 8.27502H4.83276L5.56595 2.27902L6.29913 8.27502H5.56595V2.30002" fill="#FCD116"/>
<path d="M6.3093 8.28751H4.82275V8.27301L5.56603 2.20901L6.3093 8.28751ZM5.57444 8.26251H6.28912L5.57444 2.41751V8.26251ZM4.8426 8.26251H5.55762V2.41751L4.8426 8.26251Z" fill="black"/>
<path d="M6.50171 7.43752L6.62985 6.41752C8.47189 6.85652 8.27783 5.20652 9.28175 5.96452C8.35115 5.94752 8.8109 6.86102 7.45552 7.69552" fill="#FCD116"/>
<path d="M7.45016 7.71503L7.44242 7.68753L7.45184 7.68153C8.12449 7.26753 8.3515 6.82752 8.51765 6.50602C8.68379 6.18452 8.80184 5.95603 9.23839 5.94953C8.79612 5.63353 8.59736 5.80553 8.32527 6.04103C8.00509 6.31803 7.60655 6.66253 6.63794 6.43453L6.5098 7.45503L6.49097 7.45003L6.62281 6.40003L6.63256 6.40253C7.60117 6.63303 7.99769 6.29053 8.31417 6.01453C8.60005 5.76753 8.80621 5.58903 9.28581 5.95053L9.32449 5.98003H9.25722C8.81597 5.98003 8.7033 6.19803 8.53446 6.52453C8.36563 6.85103 8.13727 7.29303 7.46025 7.71003L7.45016 7.71503Z" fill="black"/>
<path d="M6.80012 7.50901L6.79541 7.48002C7.55651 7.20302 7.97254 6.74451 8.30617 6.37601C8.65427 5.99251 8.88397 5.73951 9.28521 5.95051L9.27848 5.97901C8.88734 5.77301 8.66099 6.02251 8.31828 6.40001C8.00045 6.75001 7.56525 7.23051 6.80012 7.50901Z" fill="black"/>
<path d="M5.55572 8.25953L5.03711 7.48853L8.40807 4.01953L6.07399 9.03003L5.55572 8.25953L8.40807 4.01953Z" fill="#FCD116"/>
<path d="M6.07561 9.05352L6.06687 9.04102L5.02124 7.48652L5.03133 7.47602L8.44736 3.96002L6.07561 9.05352ZM5.57113 8.25952L6.07393 9.00702L8.33537 4.15002L5.57113 8.25952ZM5.05386 7.49052L5.55835 8.23802L8.32393 4.12652L5.05386 7.49052Z" fill="black"/>
<path d="M6.60962 8.72499L7.19112 8.08649C8.28484 10.3335 8.93159 8.96149 9.2817 10.554C8.63159 9.56349 8.54011 10.709 7.18507 9.87449" fill="#FCD116"/>
<path d="M9.305 10.6105L9.27473 10.5645C8.95253 10.074 8.77192 10.1145 8.49816 10.171C8.22439 10.2275 7.85914 10.3065 7.18145 9.88849L7.17204 9.88249L7.17977 9.85499L7.18919 9.86049C7.86183 10.2755 8.22843 10.198 8.49547 10.141C8.76251 10.084 8.94816 10.0445 9.25825 10.4975C9.0958 9.80949 8.87349 9.72199 8.56912 9.60249C8.21094 9.46149 7.76565 9.28699 7.1902 8.10749L6.6087 8.74599L6.59692 8.72199L7.19457 8.06549L7.20062 8.07749C7.77574 9.25899 8.21935 9.43349 8.57551 9.57349C8.89502 9.69899 9.12574 9.78949 9.29289 10.5495L9.305 10.6105Z" fill="black"/>
<path d="M9.27262 10.5605C9.09403 10.0035 8.81522 9.94201 8.39313 9.84901C8.00165 9.76251 7.46589 9.64451 6.79224 9.03701L6.80266 9.01151C7.47262 9.61551 7.98484 9.72851 8.39616 9.81951C8.82463 9.91401 9.10748 9.97651 9.29078 10.5475L9.27262 10.5605Z" fill="black"/>
<path d="M5.56592 8.3V7.185L9.5991 8.275L5.56592 9.365V8.275H9.58498" fill="#FCD116"/>
<path d="M5.55591 9.38299V7.16699L5.56768 7.16999L9.65568 8.27499L5.55591 9.38299ZM5.57609 8.29999V9.34999L9.48752 8.28999H5.57609V8.29999ZM5.57609 8.25999H9.48752L5.57609 7.20249V8.25999Z" fill="black"/>
<path d="M6.14597 9.66599L6.79373 9.85648C6.49844 12.595 7.6083 12.3065 7.09844 13.799C7.10987 12.4155 6.52669 13.1685 5.96436 11.154" fill="#FCD116"/>
<path d="M7.08828 13.8635V13.8C7.09366 13.1155 6.95375 12.9605 6.74019 12.726C6.52662 12.4915 6.2357 12.1715 5.95521 11.1605L5.95117 11.1465L5.97001 11.135L5.97371 11.149C6.25554 12.149 6.54243 12.47 6.75263 12.699C6.96283 12.928 7.10577 13.0875 7.10913 13.7325C7.32169 13.075 7.20599 12.7795 7.04758 12.375C6.86126 11.899 6.62953 11.3065 6.7829 9.8665L6.13413 9.6755L6.13783 9.646L6.80577 9.8425L6.80409 9.857C6.64904 11.297 6.87976 11.886 7.06507 12.357C7.23122 12.782 7.35128 13.0885 7.10812 13.8015L7.08828 13.8635Z" fill="black"/>
<path d="M7.10838 13.804L7.08954 13.794C7.22777 13.2125 7.05995 12.876 6.80569 12.3665C6.57026 11.894 6.24739 11.247 6.06006 10.1095L6.07957 10.1025C6.26589 11.234 6.5743 11.8525 6.82217 12.3485C7.08013 12.8655 7.25031 13.2075 7.10838 13.804Z" fill="black"/>
<path d="M5.55572 8.25949L6.07399 7.48849L8.40807 12.5L5.03711 9.02999L5.55572 8.25949L8.40807 12.5Z" fill="#FCD116"/>
<path d="M8.44736 12.5585L8.40162 12.5115L5.02124 9.0325L6.07561 7.465L6.08234 7.48L8.44736 12.5585ZM5.05252 9.028L8.32124 12.392L5.55566 8.2805L5.05252 9.028ZM5.56978 8.2595L8.33537 12.371L6.07259 7.5115L5.56978 8.2595Z" fill="black"/>
<path d="M5.55571 10.258C6.29814 10.258 6.89999 9.36323 6.89999 8.25949C6.89999 7.15575 6.29814 6.26099 5.55571 6.26099C4.81328 6.26099 4.21143 7.15575 4.21143 8.25949C4.21143 9.36323 4.81328 10.258 5.55571 10.258Z" fill="#FCD116"/>
<path d="M5.55573 10.273C5.28779 10.2731 5.02585 10.1551 4.80304 9.93385C4.58022 9.71263 4.40653 9.39815 4.30393 9.03018C4.20134 8.66221 4.17444 8.25727 4.22665 7.86657C4.27886 7.47588 4.40782 7.11697 4.59723 6.83524C4.78664 6.5535 5.028 6.3616 5.29077 6.28379C5.55355 6.20598 5.82594 6.24577 6.07351 6.39811C6.32107 6.55046 6.53269 6.80852 6.68161 7.13966C6.83052 7.47081 6.91004 7.86016 6.9101 8.2585V8.2585C6.90983 8.79248 6.76708 9.30449 6.51316 9.68217C6.25924 10.0598 5.91491 10.2723 5.55573 10.273V10.273ZM5.55573 6.2755C5.29178 6.2754 5.03375 6.39166 4.81425 6.60958C4.59475 6.8275 4.42365 7.1373 4.32258 7.49979C4.22151 7.86228 4.19501 8.26119 4.24644 8.64606C4.29787 9.03094 4.42491 9.3845 4.6115 9.66204C4.79809 9.93958 5.03585 10.1286 5.29471 10.2053C5.55357 10.2819 5.82191 10.2427 6.06578 10.0927C6.30966 9.94259 6.51813 9.68838 6.66483 9.36216C6.81152 9.03595 6.88986 8.65239 6.88992 8.26V8.26C6.88965 7.73397 6.74902 7.22959 6.49889 6.85753C6.24876 6.48548 5.90956 6.27616 5.55573 6.2755V6.2755Z" fill="black"/>
<path d="M6.54558 7.46C6.46015 7.605 6.41105 7.3505 6.10567 7.3505C5.80028 7.3505 5.75118 7.6235 5.70208 7.569C5.65297 7.5145 5.95869 7.187 6.05623 7.169C6.15376 7.151 6.43526 7.296 6.54524 7.46M6.19076 7.6235C6.27652 7.7325 6.2032 7.9685 6.11744 7.9685C6.03167 7.9685 5.87293 7.7505 5.94625 7.605" fill="black"/>
<path d="M5.78784 7.787C5.79995 7.569 5.92237 7.5325 6.11777 7.5325C6.31318 7.5325 6.39894 7.7505 6.47226 7.805C6.38683 7.805 6.31351 7.6235 6.11777 7.6235C5.92203 7.6235 5.92237 7.6235 5.78784 7.805M5.8245 7.8415C5.87327 7.7325 5.93448 7.9505 6.06901 7.9505C6.17531 7.95554 6.27932 7.90394 6.36228 7.805C6.44771 7.714 6.2402 8.023 6.10567 8.023C5.97114 8.023 5.78784 7.914 5.8245 7.8415" fill="black"/>
<path d="M6.24025 7.94999C6.39899 7.82249 6.30112 7.64099 6.24025 7.60449C6.26446 7.64099 6.36233 7.82249 6.24025 7.94999ZM5.55583 9.05399C5.62915 9.05399 5.65337 9.01799 5.75124 9.01799C5.84911 9.01799 6.08117 9.21799 6.2157 9.14499C5.93453 9.30849 6.04451 9.19949 5.55583 9.19949H5.48218M6.26446 9.29449C6.2157 9.16749 6.22781 9.20349 6.12994 9.00349C6.22747 9.11299 6.25202 9.16749 6.26446 9.29449ZM5.55583 9.49449C5.86121 9.49449 5.81245 9.40349 6.2157 9.14899C5.92242 9.20349 5.86121 9.34899 5.55583 9.34899H5.48218M5.55583 8.80349C5.64126 8.80349 5.66581 8.71249 5.76334 8.71249C5.86088 8.71249 5.99574 8.76699 6.05662 8.83949C6.06906 8.85799 6.01996 8.69449 5.92209 8.67599C5.82422 8.65749 5.86088 8.42199 5.7509 8.38549C5.7509 8.45799 5.78756 8.43999 5.79967 8.54899C5.79967 8.63999 5.68969 8.63999 5.66514 8.54899C5.68935 8.69449 5.61603 8.69449 5.55516 8.69449" fill="black"/>
<path d="M4.56567 7.46C4.6511 7.605 4.7002 7.3505 5.00558 7.3505C5.31097 7.3505 5.36007 7.6235 5.40917 7.569C5.45827 7.5145 5.15256 7.187 5.05502 7.169C4.95749 7.151 4.67599 7.296 4.56601 7.46M4.92049 7.6235C4.83473 7.7325 4.90805 7.9685 4.99381 7.9685C5.07958 7.9685 5.23832 7.7505 5.165 7.605" fill="black"/>
<path d="M5.32333 7.787C5.31123 7.569 5.1888 7.5325 4.9934 7.5325C4.798 7.5325 4.71223 7.7505 4.63892 7.805C4.72434 7.805 4.79766 7.6235 4.9934 7.6235C5.18914 7.6235 5.1888 7.6235 5.32333 7.805M5.28667 7.8415C5.23791 7.7325 5.1767 7.9505 5.04217 7.9505C4.93587 7.95554 4.83185 7.90394 4.74889 7.805C4.66347 7.714 4.87098 8.023 5.00551 8.023C5.14004 8.023 5.32333 7.914 5.28667 7.8415" fill="black"/>
<path d="M4.87102 7.94999C4.71228 7.82249 4.81015 7.64099 4.87102 7.60449C4.84681 7.64099 4.74894 7.82249 4.87102 7.94999ZM5.55578 9.05399C5.48212 9.05399 5.45791 9.01799 5.36004 9.01799C5.26217 9.01799 5.0301 9.21799 4.89557 9.14499C5.17674 9.30849 5.06676 9.19949 5.55578 9.19949H5.61665M4.84681 9.29449C4.89557 9.16749 4.88347 9.20349 4.98134 9.00349C4.88347 9.11299 4.85891 9.16749 4.84681 9.29449ZM5.55578 9.49449C5.25006 9.49449 5.29883 9.40349 4.89557 9.14899C5.18885 9.20349 5.25006 9.34899 5.55578 9.34899H5.61665M5.55578 8.80349C5.47001 8.80349 5.44546 8.71249 5.34793 8.71249C5.25039 8.71249 5.11553 8.76699 5.05465 8.83949C5.04221 8.85799 5.09131 8.69449 5.18918 8.67599C5.28705 8.65749 5.25039 8.42199 5.36037 8.38549C5.36037 8.45799 5.32371 8.43999 5.31161 8.54899C5.31161 8.63999 5.42158 8.63999 5.44613 8.54899C5.42192 8.69449 5.49524 8.69449 5.55645 8.69449" fill="black"/>
<path d="M5.55561 9.64001C5.49439 9.64001 5.33531 9.69451 5.55561 9.69451C5.7759 9.69451 5.61648 9.64001 5.55561 9.64001Z" fill="black"/>
</g>
<defs>
<clipPath id="clip0_18_5822">
<rect width="30" height="30" rx="15" fill="white"/>
</clipPath>
</defs>
</svg>
