<svg width="30" height="30" viewBox="0 0 30 30" fill="none" xmlns="http://www.w3.org/2000/svg">
<g clip-path="url(#clip0_18_5895)">
<path d="M29.9966 0H0V30H29.9966V0Z" fill="white"/>
<path d="M30.0505 0H0V2H30.0505V0Z" fill="#DD0000"/>
<path d="M30 3.995H0V5.995H30V3.995Z" fill="#DD0000"/>
<path d="M30 7.98999H0V9.98999H30V7.98999Z" fill="#DD0000"/>
<path d="M29.9966 11.99H0V13.99H29.9966V11.99Z" fill="#DD0000"/>
<path d="M30 15.985H0V17.985H30V15.985Z" fill="#DD0000"/>
<path d="M30 19.98H0V21.98H30V19.98Z" fill="#DD0000"/>
<path d="M30 23.975H0V25.975H30V23.975Z" fill="#DD0000"/>
<path d="M30.5213 27.97H0V29.97H30.5213V27.97Z" fill="#DD0000"/>
<path d="M30 27.97H0V29.97H30V27.97Z" fill="#DD0000"/>
<path d="M13.278 0H0V13.985H13.278V0Z" fill="#002395"/>
<path d="M0.622314 1.13499L0.941821 1.47499L0.820745 2.02999L1.13689 1.68999L1.45303 2.02999L1.33196 1.47499L1.6481 1.13499H1.25796L1.13689 0.579987L1.01581 1.13499H0.622314Z" fill="white"/>
<path d="M2.8252 1.13499L3.14134 1.47499L3.02026 2.02999L3.33641 1.68999L3.65255 2.02999L3.53147 1.47499L3.84762 1.13499H3.45748L3.33641 0.579987L3.21533 1.13499H2.8252Z" fill="white"/>
<path d="M5.02466 1.13499L5.34416 1.47499L5.22309 2.02999L5.53923 1.68999L5.85538 2.02999L5.7343 1.47499L6.05044 1.13499H5.66031L5.53923 0.579987L5.41816 1.13499H5.02466Z" fill="white"/>
<path d="M7.22754 1.13499L7.54368 1.47499L7.42261 2.02999L7.73875 1.68999L8.05489 2.02999L7.93382 1.47499L8.24996 1.13499H7.85983L7.73875 0.579987L7.61767 1.13499H7.22754Z" fill="white"/>
<path d="M9.43042 1.13499L9.74656 1.47499L9.62549 2.02999L9.94163 1.68999L10.2578 2.02999L10.1367 1.47499L10.4528 1.13499H10.0627L9.94163 0.579987L9.82055 1.13499H9.43042Z" fill="white"/>
<path d="M11.6301 1.13499L11.9463 1.47499L11.8252 2.02999L12.1413 1.68999L12.4575 2.02999L12.3364 1.47499L12.6559 1.13499H12.2624L12.1413 0.579987L12.0203 1.13499H11.6301Z" fill="white"/>
<path d="M1.72534 2.53999L2.04149 2.87999L1.92041 3.43499L2.23655 3.08999L2.5527 3.43499L2.43162 2.87999L2.74776 2.53999H2.35763L2.23655 1.98499L2.11548 2.53999H1.72534Z" fill="white"/>
<path d="M3.9248 2.53999L4.24095 2.87999L4.11987 3.43499L4.43602 3.08999L4.75552 3.43499L4.63445 2.87999L4.95059 2.53999H4.55709L4.43602 1.98499L4.3183 2.53999H3.9248Z" fill="white"/>
<path d="M6.12769 2.53999L6.44383 2.87999L6.32275 3.43499L6.6389 3.08999L6.95504 3.43499L6.83396 2.87999L7.15011 2.53999H6.75997L6.6389 1.98499L6.51782 2.53999H6.12769Z" fill="white"/>
<path d="M8.32739 2.53999L8.64354 2.87999L8.52246 3.43499L8.84197 3.08999L9.15811 3.43499L9.03703 2.87999L9.35318 2.53999H8.95968L8.84197 1.98499L8.72089 2.53999H8.32739Z" fill="white"/>
<path d="M10.5303 2.53999L10.8464 2.87999L10.7253 3.43499L11.0415 3.08999L11.3576 3.43499L11.2366 2.87999L11.5527 2.53999H11.1626L11.0415 1.98499L10.9204 2.53999H10.5303Z" fill="white"/>
<path d="M0.622314 3.94001L0.941821 4.28001L0.820745 4.83501L1.13689 4.49501L1.45303 4.83501L1.33196 4.28001L1.6481 3.94001H1.25796L1.13689 3.39001L1.01581 3.94001H0.622314Z" fill="white"/>
<path d="M2.8252 3.94001L3.14134 4.28001L3.02026 4.83501L3.33641 4.49501L3.65255 4.83501L3.53147 4.28001L3.84762 3.94001H3.45748L3.33641 3.39001L3.21533 3.94001H2.8252Z" fill="white"/>
<path d="M5.02466 3.94001L5.34416 4.28001L5.22309 4.83501L5.53923 4.49501L5.85538 4.83501L5.7343 4.28001L6.05044 3.94001H5.66031L5.53923 3.39001L5.41816 3.94001H5.02466Z" fill="white"/>
<path d="M7.22754 3.94001L7.54368 4.28001L7.42261 4.83501L7.73875 4.49501L8.05489 4.83501L7.93382 4.28001L8.24996 3.94001H7.85983L7.73875 3.39001L7.61767 3.94001H7.22754Z" fill="white"/>
<path d="M9.43042 3.94001L9.74656 4.28001L9.62549 4.83501L9.94163 4.49501L10.2578 4.83501L10.1367 4.28001L10.4528 3.94001H10.0627L9.94163 3.39001L9.82055 3.94001H9.43042Z" fill="white"/>
<path d="M11.6301 3.94001L11.9463 4.28001L11.8252 4.83501L12.1413 4.49501L12.4575 4.83501L12.3364 4.28001L12.6559 3.94001H12.2624L12.1413 3.39001L12.0203 3.94001H11.6301Z" fill="white"/>
<path d="M1.7522 5.34501L2.06834 5.69001L1.94726 6.24001L2.26341 5.90001L2.57955 6.24001L2.45848 5.69001L2.77462 5.34501H2.38448L2.26341 4.79501L2.14233 5.34501H1.7522Z" fill="white"/>
<path d="M3.9519 5.34501L4.26805 5.69001L4.14697 6.24001L4.46648 5.90001L4.78262 6.24001L4.66155 5.69001L4.97769 5.34501H4.58419L4.46648 4.79501L4.3454 5.34501H3.9519Z" fill="white"/>
<path d="M6.15479 5.34501L6.47093 5.69001L6.34985 6.24001L6.666 5.90001L6.98214 6.24001L6.86106 5.69001L7.17721 5.34501H6.78707L6.666 4.79501L6.54492 5.34501H6.15479Z" fill="white"/>
<path d="M8.35425 5.34501L8.67375 5.69001L8.55268 6.24001L8.86882 5.90001L9.18497 6.24001L9.06389 5.69001L9.38003 5.34501H8.9899L8.86882 4.79501L8.74775 5.34501H8.35425Z" fill="white"/>
<path d="M10.5571 5.34501L10.8733 5.69001L10.7522 6.24001L11.0683 5.90001L11.3845 6.24001L11.2634 5.69001L11.5796 5.34501H11.1894L11.0683 4.79501L10.9473 5.34501H10.5571Z" fill="white"/>
<path d="M0.655762 6.74L0.975268 7.08L0.854192 7.635L1.17034 7.29L1.48648 7.635L1.3654 7.08L1.68155 6.74H1.28805L1.17034 6.185L1.04926 6.74H0.655762Z" fill="white"/>
<path d="M2.85864 6.74L3.17479 7.08L3.05371 7.635L3.36985 7.29L3.686 7.635L3.56492 7.08L3.88106 6.74H3.49093L3.36985 6.185L3.24878 6.74H2.85864Z" fill="white"/>
<path d="M5.05835 6.74L5.37786 7.08L5.25678 7.635L5.57292 7.29L5.88907 7.635L5.76799 7.08L6.08413 6.74H5.694L5.57292 6.185L5.45185 6.74H5.05835Z" fill="white"/>
<path d="M7.26123 6.74L7.57737 7.08L7.4563 7.635L7.77244 7.29L8.08858 7.635L7.96751 7.08L8.28365 6.74H7.89352L7.77244 6.185L7.65137 6.74H7.26123Z" fill="white"/>
<path d="M9.46411 6.74L9.78025 7.08L9.65918 7.635L9.97532 7.29L10.2915 7.635L10.1704 7.08L10.4865 6.74H10.0964L9.97532 6.185L9.85425 6.74H9.46411Z" fill="white"/>
<path d="M11.6636 6.74L11.9797 7.08L11.8586 7.635L12.1748 7.29L12.4909 7.635L12.3699 7.08L12.686 6.74H12.2959L12.1748 6.185L12.0537 6.74H11.6636Z" fill="white"/>
<path d="M0.679443 9.50001L0.995587 9.84001L0.874511 10.395L1.19065 10.05L1.5068 10.395L1.38572 9.84001L1.70186 9.50001H1.31173L1.19065 8.94501L1.06958 9.50001H0.679443Z" fill="white"/>
<path d="M2.87891 9.50001L3.19505 9.84001L3.07397 10.395L3.39012 10.05L3.70626 10.395L3.58518 9.84001L3.90133 9.50001H3.51119L3.39012 8.94501L3.26904 9.50001H2.87891Z" fill="white"/>
<path d="M5.08179 9.50001L5.39793 9.84001L5.27685 10.395L5.593 10.05L5.90914 10.395L5.78807 9.84001L6.10421 9.50001H5.71407L5.593 8.94501L5.47192 9.50001H5.08179Z" fill="white"/>
<path d="M7.28149 9.50001L7.59764 9.84001L7.47656 10.395L7.7927 10.05L8.10885 10.395L7.98777 9.84001L8.30392 9.50001H7.91378L7.7927 8.94501L7.67163 9.50001H7.28149Z" fill="white"/>
<path d="M9.48438 9.50001L9.80052 9.84001L9.67944 10.395L9.99559 10.05L10.3117 10.395L10.1907 9.84001L10.5068 9.50001H10.1167L9.99559 8.94501L9.87451 9.50001H9.48438Z" fill="white"/>
<path d="M11.6838 9.50001L12 9.84001L11.8789 10.395L12.195 10.05L12.5112 10.395L12.3935 9.84001L12.7096 9.50001H12.3161L12.195 8.94501L12.074 9.50001H11.6838Z" fill="white"/>
<path d="M0.652588 12.295L0.968731 12.635L0.847655 13.185L1.1638 12.845L1.47994 13.185L1.35887 12.635L1.67501 12.295H1.28487L1.1638 11.74L1.04272 12.295H0.652588Z" fill="white"/>
<path d="M2.85205 12.295L3.16819 12.635L3.04712 13.185L3.36326 12.845L3.67941 13.185L3.55833 12.635L3.87447 12.295H3.48434L3.36326 11.74L3.24219 12.295H2.85205Z" fill="white"/>
<path d="M5.05493 12.295L5.37107 12.635L5.25 13.185L5.56614 12.845L5.88229 13.185L5.76121 12.635L6.07735 12.295H5.68722L5.56614 11.74L5.44507 12.295H5.05493Z" fill="white"/>
<path d="M7.25439 12.295L7.57054 12.635L7.44946 13.185L7.76561 12.845L8.08175 13.185L7.96067 12.635L8.27682 12.295H7.88668L7.76561 11.74L7.64453 12.295H7.25439Z" fill="white"/>
<path d="M9.45752 12.295L9.77366 12.635L9.65259 13.185L9.96873 12.845L10.2849 13.185L10.1638 12.635L10.4799 12.295H10.0898L9.96873 11.74L9.84765 12.295H9.45752Z" fill="white"/>
<path d="M11.657 12.295L11.9731 12.635L11.852 13.185L12.1682 12.845L12.4843 13.185L12.3633 12.635L12.6794 12.295H12.2893L12.1682 11.74L12.0471 12.295H11.657Z" fill="white"/>
<path d="M1.75903 8.10499L2.07518 8.44499L1.9541 8.99999L2.27024 8.65999L2.58639 8.99999L2.46531 8.44499L2.78145 8.10499H2.39132L2.27024 7.54999L2.14917 8.10499H1.75903Z" fill="white"/>
<path d="M3.9585 8.10499L4.27464 8.44499L4.15356 8.99999L4.46971 8.65999L4.78921 8.99999L4.66814 8.44499L4.98428 8.10499H4.59078L4.46971 7.54999L4.35199 8.10499H3.9585Z" fill="white"/>
<path d="M6.16138 8.10499L6.47752 8.44499L6.35644 8.99999L6.67259 8.65999L6.98873 8.99999L6.86765 8.44499L7.1838 8.10499H6.79366L6.67259 7.54999L6.55151 8.10499H6.16138Z" fill="white"/>
<path d="M8.36108 8.10499L8.67723 8.44499L8.55615 8.99999L8.87566 8.65999L9.1918 8.99999L9.07073 8.44499L9.38687 8.10499H8.99337L8.87566 7.54999L8.75458 8.10499H8.36108Z" fill="white"/>
<path d="M10.564 8.10499L10.8801 8.44499L10.759 8.99999L11.0752 8.65999L11.3913 8.99999L11.2702 8.44499L11.5864 8.10499H11.1963L11.0752 7.54999L10.9541 8.10499H10.564Z" fill="white"/>
<path d="M1.7522 10.895L2.06834 11.235L1.94726 11.79L2.26341 11.445L2.57955 11.79L2.45848 11.235L2.77462 10.895H2.38448L2.26341 10.34L2.14233 10.895H1.7522Z" fill="white"/>
<path d="M3.9519 10.895L4.26805 11.235L4.14697 11.79L4.46648 11.445L4.78262 11.79L4.66155 11.235L4.97769 10.895H4.58419L4.46648 10.34L4.3454 10.895H3.9519Z" fill="white"/>
<path d="M6.15479 10.895L6.47093 11.235L6.34985 11.79L6.666 11.445L6.98214 11.79L6.86106 11.235L7.17721 10.895H6.78707L6.666 10.34L6.54492 10.895H6.15479Z" fill="white"/>
<path d="M8.35425 10.895L8.67375 11.235L8.55268 11.79L8.86882 11.445L9.18497 11.79L9.06389 11.235L9.38003 10.895H8.9899L8.86882 10.34L8.74775 10.895H8.35425Z" fill="white"/>
<path d="M10.5571 10.895L10.8733 11.235L10.7522 11.79L11.0683 11.445L11.3845 11.79L11.2634 11.235L11.5796 10.895H11.1894L11.0683 10.34L10.9473 10.895H10.5571Z" fill="white"/>
</g>
<defs>
<clipPath id="clip0_18_5895">
<rect width="30" height="30" rx="15" fill="white"/>
</clipPath>
</defs>
</svg>
