<svg width="30" height="30" viewBox="0 0 30 30" fill="none" xmlns="http://www.w3.org/2000/svg">
<path d="M30 15C30 6.71573 23.2843 0 15 0V0C6.71573 0 0 6.71573 0 15V15C0 23.2843 6.71573 30 15 30V30C23.2843 30 30 23.2843 30 15V15Z" fill="#00AB39"/>
<path d="M0 15C0 6.71573 6.71573 0 15 0V0C23.2843 0 30 6.71573 30 15V15H0V15Z" fill="white"/>
<path d="M19.4149 4C19.4144 4 19.414 4.00038 19.414 4.00086V4.00086C19.414 4.00162 19.4149 4.002 19.4155 4.00147V4.00147C19.416 4.00094 19.4156 4 19.4149 4V4ZM19.4133 4.00289C19.4135 4.00289 19.4136 4.0032 19.4134 4.00335C17.667 5.44286 16.1053 6.94025 14.5693 8.84842C13.8313 9.80859 14.039 10.5741 14.0113 11.4363C14.0277 11.8346 13.9821 12.2134 13.8739 12.517C13.7852 12.766 13.5518 12.9194 13.2987 12.9959L12.6135 13.2032C12.3079 13.2957 11.9868 13.1053 11.9146 12.7942V12.7942C11.9001 12.7313 11.897 12.6545 11.9137 12.5921V12.5921C12.0109 12.2279 12.5193 11.9268 12.2075 11.7149C12.1852 11.6998 12.1622 11.6852 12.1387 11.6709C12.0801 11.6355 12.0244 11.5943 11.9803 11.5419C11.9045 11.4517 11.8366 11.3326 11.8485 11.037C11.8014 10.1665 12.7379 11.099 12.7465 11.099C12.7551 11.099 12.7155 10.2211 12.2851 10.045C12.0503 9.92102 11.9511 9.55233 12.0406 9.27912C12.0556 9.23448 12.0717 9.19727 12.0887 9.16657C12.3206 8.74769 12.8726 8.90238 12.6126 8.50037V8.50037C12.5825 8.45381 12.5417 8.4062 12.4949 8.37646C12.3647 8.29371 12.1689 8.2152 12.1629 8.06928V8.06928C12.1538 7.69743 12.647 7.39849 12.3309 7.20229V7.20229C12.2156 7.13069 12.1009 7.02336 12.0521 6.89668L11.9278 6.57425C11.8381 6.32641 11.7941 6.30668 11.9772 5.88465C11.9991 5.83403 12.0314 5.78831 12.0709 5.74974C12.2231 5.60088 12.403 5.41839 12.5604 5.26318C12.6054 5.21885 12.5818 5.14184 12.5196 5.13077V5.13077C12.4805 5.1238 12.453 5.08819 12.456 5.04854C12.459 5.00935 12.4618 4.97286 12.4644 4.93785C12.4777 4.75746 11.9978 4.46741 11.8476 4.56828V4.56828C11.8303 4.57989 11.8127 4.5884 11.7928 4.59444C11.7511 4.60709 11.6699 4.63369 11.5719 4.67565C11.0946 4.88021 10.5985 5.17183 10.0807 5.13252C9.82058 5.11278 9.55922 5.09291 9.39306 5.08027C9.27524 5.07131 9.15628 5.07525 9.04374 5.11123C8.99803 5.12585 8.95385 5.14275 8.91169 5.16266C8.47209 5.37015 8.14636 5.84232 7.66661 5.92066C7.43784 5.95802 7.21299 6.01585 6.9979 6.12669C6.5173 6.37435 6.84937 6.83393 7.38384 6.91544V6.91544C7.42039 6.92102 7.46393 6.92601 7.49979 6.93501C7.6128 6.96334 7.86776 7.08041 7.93908 7.56245C7.94148 7.57871 7.94675 7.59565 7.96236 7.6008C7.98142 7.60709 8.01064 7.61033 8.03533 7.61201C8.06441 7.61398 8.09209 7.62649 8.11109 7.6486L8.15152 7.69565C8.1877 7.73776 8.25623 7.72143 8.26938 7.66749C8.27158 7.65847 8.27379 7.64944 8.27599 7.64041C8.2858 7.60015 8.33602 7.58637 8.36502 7.61599V7.61599C8.39541 7.64703 8.44824 7.6302 8.45518 7.58732C8.45945 7.56094 8.46373 7.53456 8.46799 7.50818C8.47396 7.47118 8.51942 7.45672 8.54543 7.4837V7.4837C8.5735 7.51282 8.62277 7.49375 8.62395 7.45332C8.62479 7.4246 8.62566 7.39587 8.62652 7.36714C8.62797 7.31905 8.68695 7.2967 8.71987 7.33178V7.33178C8.7533 7.3674 8.81307 7.34375 8.81307 7.2949V7.12432C8.81307 7.05742 8.8671 7.00425 8.93318 7.0147C9.11602 7.04363 9.46168 7.14585 9.63988 7.50707C9.68198 7.59241 9.64887 7.65671 9.5566 7.67999C9.1264 7.78855 7.74647 8.07345 6.32708 7.96389C6.19525 7.95371 6.15124 7.78777 6.25773 7.70939V7.70939C6.35484 7.63791 6.32881 7.48639 6.21384 7.45C6.05866 7.40087 5.90566 7.3487 5.75483 7.28653C5.38746 7.13512 4.91757 7.44303 5.1075 7.79205C5.4062 8.34095 5.76349 8.80926 5.99984 9.03245C6.10396 9.13077 6.18523 9.09591 6.13557 8.96159V8.96159C6.07193 8.78942 6.1947 8.57542 6.37787 8.58735C6.69439 8.60796 7.01092 8.62845 7.32745 8.64881C7.71693 8.67386 8.00061 8.96075 8.07875 9.34314C8.07948 9.34669 8.08021 9.35023 8.08096 9.35378C8.12748 9.57399 8.16771 9.80397 8.18051 10.0287C8.18769 10.1549 8.21542 10.2908 8.2884 10.3905C8.31731 10.43 8.34849 10.4233 8.36204 10.3763C8.40618 10.223 8.50141 9.85198 8.56578 9.59861C8.58372 9.52799 8.68731 9.52787 8.71101 9.59676V9.59676C8.73484 9.66603 8.83872 9.65318 8.85851 9.58265C8.97244 9.1768 9.19861 8.95548 9.37869 8.83857C9.51576 8.74957 9.67858 8.84405 9.72382 9.00109V9.00109C9.76428 9.14153 9.6865 9.27757 9.60506 9.39894C9.57246 9.44752 9.54163 9.5046 9.51422 9.56696C9.36129 9.91493 9.16896 10.635 9.10986 11.0105C9.10596 11.0353 9.10273 11.06 9.10027 11.0844C9.08364 11.2493 9.04804 11.4141 8.95446 11.551C8.92117 11.5996 8.88774 11.6551 8.8575 11.7199C8.64843 12.1686 8.48559 12.8119 8.43461 13.3042C8.42775 13.3705 8.42297 13.4394 8.42043 13.5103C8.40892 13.8313 8.31414 14.1503 8.24067 14.4629C8.13924 14.8946 8.20479 15.4024 8.37977 15.7284C8.43451 15.8304 8.43751 15.9564 8.37759 16.0554C8.33602 16.1241 8.30464 16.1924 8.28553 16.268C8.26522 16.3484 8.16258 16.4025 8.08481 16.4313V16.4313C8.00404 16.4613 7.88664 16.4747 7.82974 16.41C7.80326 16.3799 7.77599 16.3522 7.74831 16.3282C7.63161 16.2271 7.30829 16.0702 7.21008 15.951C7.17033 15.9028 7.12544 15.8604 7.07694 15.827C6.95063 15.7401 6.80863 15.6077 6.77852 15.4573C6.76228 15.3762 6.73732 15.2989 6.70422 15.2285V15.2285C6.59029 14.9863 6.40059 14.7462 6.37685 14.4796C6.35069 14.1858 6.30448 13.7942 6.22658 13.4668C6.14741 13.1339 5.95556 12.7629 6.15582 12.4855C6.19512 12.4311 6.24608 12.3764 6.31103 12.3192C6.54577 12.1325 6.60334 11.9861 6.59178 11.4882C6.59077 11.4446 6.59566 11.4009 6.60628 11.3586C6.63436 11.2467 6.65848 11.1349 6.66886 11.0267C6.69359 10.7689 6.45905 10.8392 6.35799 11.0777C6.3495 11.0977 6.34061 11.1171 6.33136 11.136C6.29208 11.2163 6.20526 11.2441 6.14488 11.31V11.31C6.04425 11.4199 5.93464 11.4319 5.96924 11.2869C6.02901 11.0365 6.15505 10.7126 5.94452 10.3042C5.93961 10.2969 5.92036 10.2314 5.8843 10.1415C5.758 9.82687 5.5629 10.0531 5.56939 10.3921C5.56951 10.3986 5.5696 10.4051 5.56966 10.4115C5.56979 10.4273 5.56783 10.443 5.56421 10.4583C5.53409 10.5857 5.507 10.7075 5.48414 10.8268C5.44703 11.0204 5.14782 11.0223 5.01588 10.8757V10.8757C4.9991 10.8571 4.99003 10.8611 4.97028 10.8456C4.91616 10.8033 4.86669 10.702 4.78815 10.6089C4.6575 10.4541 4.5077 10.7517 4.56484 10.946V10.946C4.58864 11.0269 4.55144 11.1185 4.52931 11.1998C4.50335 11.2953 4.52169 11.4205 4.561 11.5406C4.60093 11.6627 4.6298 11.7891 4.64079 11.9171C4.64795 12.0006 4.66238 12.0773 4.68325 12.1477C4.80831 12.5701 5.09645 12.9728 5.06453 13.4122C5.04842 13.6339 5.03229 13.8557 5.01616 14.0774C4.99059 14.4288 4.80553 14.9848 4.66518 15.308C4.66353 15.3118 4.66189 15.3155 4.66026 15.3192C4.626 15.3966 4.55879 15.4551 4.50765 15.5226C4.47035 15.5717 4.4356 15.6288 4.41596 15.6843C4.36308 15.8338 4.48695 16.0532 4.43685 16.2036V16.2036C4.35328 16.4546 4.3914 16.7304 4.57515 16.5401C4.58707 16.5277 4.59899 16.5144 4.61088 16.5001C4.68931 16.4059 4.81604 16.3464 4.89155 16.2498C5.02767 16.0757 4.99628 15.6792 5.10784 15.4571C5.11823 15.4364 5.1163 15.4447 5.12576 15.4236V15.4236C5.18213 15.2978 5.45565 15.2876 5.48952 15.4212C5.65117 16.0589 5.96315 16.9282 6.47358 17.4594C6.50422 17.4913 6.53226 17.5256 6.55565 17.5631C6.97237 18.2314 7.3388 18.8796 7.54547 19.6268C7.65916 20.0378 8.10865 20.1369 8.20724 19.7219V19.7219C8.23733 19.5953 8.32174 19.4715 8.44389 19.4264C8.6815 19.3388 8.96046 19.29 9.23839 19.2776C9.41754 19.2696 9.51386 19.4762 9.48942 19.6539V19.6539C9.46658 19.8199 9.39331 19.9931 9.3042 20.135C9.24823 20.2242 9.21916 20.3274 9.21497 20.4378C9.20678 20.6532 9.16378 20.8731 9.05524 21.0594C8.96726 21.2104 8.9336 21.3646 8.91984 21.5765C8.90546 21.7979 8.85959 22.0187 8.74567 22.209C8.23927 23.0553 7.87999 23.0445 7.36203 22.7993C7.30719 22.7734 7.25685 22.7387 7.21051 22.6995C7.09641 22.603 6.96118 22.4995 6.84206 22.4508C6.71851 22.4003 6.54425 22.3783 6.42398 22.3204C6.32919 22.2748 6.23247 22.2616 6.14796 22.2942C5.99584 22.3528 6.2254 22.5937 6.32654 22.7216V22.7216C6.35571 22.7585 6.37375 22.824 6.36428 22.87C6.35753 22.9029 6.35331 22.9349 6.35457 22.965C6.35864 23.0624 6.4008 23.178 6.3506 23.2615V23.2615C6.31186 23.326 6.23617 23.3565 6.16148 23.3477C6.10182 23.3407 6.04042 23.3391 5.9801 23.347C5.7616 23.3755 6.0657 23.7562 6.24976 23.8773V23.8773L6.31912 23.9137C6.36811 23.9393 6.40005 23.9888 6.40334 24.044V24.044C6.40959 24.1488 6.30376 24.2507 6.22104 24.3155C6.19629 24.3348 6.17069 24.3599 6.14521 24.3923C6.03007 24.5387 6.37529 24.5991 6.54291 24.6803V24.6803C6.57517 24.6959 6.55325 24.7004 6.57332 24.7301C6.70798 24.9294 7.03442 24.931 7.33973 24.6908C7.52528 24.5448 7.664 24.3093 7.89759 24.2749C8.19238 24.2315 8.34358 24.5301 8.60486 24.2129C8.7133 24.0923 8.82947 24.049 8.94442 24.0622C9.38212 24.1124 9.69769 24.8043 10.0804 24.586C10.1221 24.5621 10.1624 24.5283 10.201 24.4826C10.2063 24.4763 10.2032 24.4783 10.2092 24.4727V24.4727C10.3464 24.3454 10.6815 24.1778 10.5478 24.047C10.4835 23.9841 10.4059 23.9433 10.3192 23.9249C10.262 23.9128 10.2073 23.8852 10.1748 23.8366V23.8366C10.1515 23.8019 10.1171 23.7759 10.0765 23.766C9.98829 23.7445 9.89743 23.7319 9.80707 23.7174C9.47295 23.6638 9.3332 23.3193 9.41507 22.991C9.52505 22.5499 9.67769 22.1444 9.91286 21.7838C10.1499 21.4049 10.3502 21.1473 10.5784 20.7994C10.7214 20.5813 11.2472 20.6629 11.3268 20.9112V20.9112C11.3978 21.133 11.711 21.1516 11.7723 20.927C11.7998 20.8264 11.8254 20.7207 11.8462 20.6145C11.8818 20.4325 11.9215 20.2752 12.0611 20.1533V20.1533C12.2302 20.0055 12.6263 19.8867 12.8353 19.8043C13.0758 19.7095 13.3387 19.4483 13.5549 19.186C13.6226 19.1038 13.74 19.0867 13.8429 19.1134V19.1134C14.022 19.1599 14.234 19.3323 14.2504 19.5165C14.2774 19.8192 14.4259 20.0882 14.6462 20.2809C14.8077 20.4221 14.9223 20.6144 15.0282 20.801C15.16 21.033 15.4186 21.111 15.7664 21.1275C15.8485 21.1314 15.9343 21.2652 15.9833 21.3311V21.3311C16.0692 21.4465 16.0569 21.6626 16.0034 21.7961C15.9891 21.8319 15.9779 21.8708 15.97 21.9137C15.9492 22.0257 15.8573 22.1103 15.7541 22.1584C15.7031 22.1822 15.6583 22.219 15.6209 22.2744C15.5175 22.4275 15.3839 22.5711 15.2014 22.6C15.1196 22.6129 15.0388 22.6323 14.9601 22.6615C14.7574 22.7368 14.5355 22.8149 14.3429 22.7165C14.1597 22.6229 13.9793 22.4803 13.8452 22.2756C13.7477 22.1539 13.7145 21.9844 13.5771 21.8928C13.5388 21.8673 13.4893 21.8148 13.4583 21.7808V21.7808C13.3456 21.6568 13.104 21.7927 12.9367 21.8016V21.8016C12.7381 21.8122 12.9083 22.0653 13.0266 22.2252V22.2252C13.0592 22.2693 13.0614 22.344 13.0659 22.3987C13.0761 22.5246 13.2237 22.6115 13.3823 22.6771C13.4518 22.7059 13.4878 22.709 13.5585 22.7347V22.7347C13.9558 22.8794 13.6521 23.4799 13.3417 23.1928C13.326 23.1782 13.3107 23.1627 13.296 23.1461C13.1965 23.0218 13.078 22.9731 12.9687 22.9787C12.8195 22.9862 12.6098 23.0145 12.4749 23.0787C12.3722 23.1277 12.2662 23.2297 12.1891 23.3705C12.124 23.4894 12.2716 23.5386 12.4038 23.5087C12.4377 23.501 12.4715 23.5019 12.5051 23.5127C12.5584 23.5297 12.5443 23.6027 12.5571 23.6571V23.6571C12.5613 23.6754 12.5716 23.701 12.5858 23.7133L12.7875 23.8878C12.8835 23.9709 12.8478 24.1232 12.7657 24.2202C12.7522 24.2361 12.7397 24.2535 12.7282 24.2728C12.6469 24.4095 12.8976 24.5213 13.0563 24.5107V24.5107C13.132 24.5057 13.2526 24.6325 13.3268 24.6482C13.3458 24.6522 13.3685 24.6455 13.3954 24.6194C13.4057 24.6094 13.4138 24.5972 13.4214 24.5852C13.5962 24.3088 13.9747 24.1858 14.3082 24.1364C14.3707 24.1253 14.4331 24.1104 14.4952 24.0969C14.8526 24.0191 15.3324 23.9003 15.6505 24.0809V24.0809C15.7319 24.1271 15.8273 24.2059 15.9002 24.2646C16.1238 24.4447 16.3166 24.7681 16.6131 24.6046C16.6285 24.5961 16.6414 24.5853 16.6541 24.5732V24.5732C16.812 24.4228 17.1203 24.234 16.9288 24.1296C16.8723 24.0989 16.8101 24.073 16.7434 24.05C16.7072 24.0375 16.6734 24.0187 16.6447 23.9933C16.6011 23.9546 16.5575 23.9159 16.5138 23.8777C16.4741 23.8431 16.4281 23.8186 16.3758 23.8121V23.8121C16.1221 23.7803 16.1169 23.5516 16.3374 23.4221C17.0735 22.9898 17.6446 22.3068 18.0883 21.4104C18.2113 21.1618 18.5134 21.0515 18.7586 21.1811L18.7954 21.2005C18.8258 21.2166 18.8483 21.2235 18.8818 21.2313V21.2313C19.0652 21.274 19.2472 21.2108 19.2171 21.0249C19.1574 20.6567 18.985 20.3365 18.5977 20.2241C18.4631 20.1851 18.3254 20.1504 18.2036 20.0812L17.9604 19.9429C17.6407 19.7612 17.3481 19.5025 17.3013 19.1378C17.2653 18.8574 17.2967 18.5488 17.4393 18.3275C17.6149 18.0941 17.6855 18.05 17.7716 17.894C17.8513 17.7495 17.9896 17.6468 18.1227 17.7444V17.7444C18.2962 17.8715 18.4714 18.0831 18.6139 18.2442C18.6798 18.3188 18.7587 18.384 18.8426 18.4345C19.1031 18.591 19.4536 18.727 19.7494 18.7965C19.7839 18.8046 19.8195 18.8102 19.8559 18.8132C20.1256 18.8353 20.4117 18.9135 20.667 19.0032C20.68 19.0078 20.6931 19.0118 20.7063 19.0154C20.9823 19.0888 21.3494 19.1458 21.6329 19.1116V19.1116C21.6822 19.1057 21.707 19.0629 21.7282 19.1078V19.1078C21.8562 19.3791 22.0134 19.8575 22.041 20.1563C22.0495 20.2492 22.0627 20.3428 22.0794 20.4281C22.1133 20.6025 22.1219 20.7851 22.0977 20.9611C22.0954 20.9776 22.0933 20.9942 22.0915 21.0109C22.0581 21.3211 21.9053 21.6275 21.8745 21.938C21.8724 21.9593 21.8713 21.9814 21.8714 22.0042C21.8723 22.2273 21.8896 22.4598 21.7764 22.6521C21.5471 23.0413 21.2954 23.1499 21.0466 23.0825C20.8924 23.0407 20.7714 22.9271 20.6554 22.8172V22.8172C20.5052 22.6749 20.3696 22.5171 20.2524 22.3465C20.1689 22.225 20.0854 22.103 20.0017 21.9801C19.969 21.9341 19.9206 21.9024 19.8743 21.9021C19.7546 21.9014 19.6388 22.0357 19.5204 22.054C19.5033 22.0566 19.4859 22.0604 19.4683 22.0654C19.2953 22.1148 19.7053 22.3712 19.7053 22.5512V22.5512V22.5512C19.7053 22.6584 19.8025 22.8254 19.895 22.8793C20.0408 22.9642 20.2428 23.0888 20.432 23.2101C20.5389 23.2655 20.6426 23.3335 20.7422 23.4139C20.6527 23.3528 20.5465 23.2833 20.432 23.2101C20.3532 23.1655 20.2752 23.1243 20.2052 23.0915C20.0502 23.0187 19.8683 22.9844 19.6979 23.0021C19.6161 23.0106 19.5432 23.0417 19.4909 23.12C19.468 23.1544 19.4422 23.1877 19.4065 23.2085C19.3061 23.2667 19.1901 23.328 19.0986 23.4359C19.0111 23.539 19.2504 23.6742 19.3854 23.6818C19.4137 23.6834 19.4428 23.6863 19.4728 23.6898C19.499 23.6929 19.5167 23.718 19.5111 23.7438V23.7438C19.5073 23.7617 19.5146 23.7804 19.5302 23.7902C19.7708 23.9412 19.7311 23.7229 19.9737 23.6909C19.9929 23.6882 20.0129 23.6868 20.0334 23.6863C20.285 23.6811 20.2135 23.8833 20.064 24.0857C20.0612 24.0895 20.0584 24.0934 20.0557 24.0974C20.0489 24.1075 20.0453 24.1169 20.0394 24.1275V24.1275C19.9859 24.2228 19.8663 24.3329 19.7819 24.4023C19.76 24.4204 19.7374 24.4424 19.7149 24.4691C19.569 24.6426 19.8429 24.8076 20.0631 24.7536C20.1381 24.7353 20.1824 24.7366 20.1858 24.7366V24.7366C20.2642 24.7366 20.343 24.7404 20.3987 24.6852C20.5361 24.5492 20.7814 24.3072 20.7871 24.3072C20.7914 24.3072 20.9188 24.2245 21.0684 24.1962C21.3533 24.1422 21.5764 24.5229 21.8477 24.4206V24.4206C21.9568 24.3795 22.0554 24.2837 22.1606 24.2331C22.4704 24.0841 22.7646 24.1121 23.0546 24.399L23.2495 24.573C23.3118 24.6286 23.4053 24.6263 23.4639 24.5669V24.5669C23.4811 24.5495 23.5021 24.5361 23.5258 24.5303C23.6242 24.5064 23.7252 24.5195 23.8196 24.5688V24.5688C23.891 24.6061 24.0266 24.5423 23.9991 24.4666C23.9005 24.195 23.7621 24.0938 23.678 24.0562C23.6331 24.0362 23.5871 24.0118 23.5575 23.9725L23.5432 23.9536C23.5254 23.93 23.503 23.9101 23.4774 23.8953C23.431 23.8684 23.3847 23.8415 23.3383 23.8146C23.1065 23.6802 22.9089 23.4689 22.8379 23.2105C22.8202 23.146 22.8095 23.0801 22.8124 23.0105C22.8206 22.8181 22.9102 22.6362 22.937 22.4455C23.0736 21.4744 23.2083 20.6482 23.1379 19.736C23.1067 19.3312 23.4005 19.3054 23.8021 19.3656V19.3656C23.9619 19.3895 24.0423 19.2107 23.9733 19.0646C23.918 18.9475 23.8303 18.8189 23.7176 18.6819C23.0088 17.8203 23.3363 16.0315 24.0385 15.1646C24.715 14.3294 25.0696 13.1989 24.6975 11.9303C24.6727 11.8455 24.6669 11.7549 24.6855 11.6685C24.7482 11.3778 24.8109 11.0871 24.8736 10.7963C24.9274 10.5468 25.3896 10.5659 25.5608 10.7551V10.7551C25.7145 10.925 25.8897 10.7088 25.8509 10.483C25.7972 10.1705 25.7519 9.7943 25.7176 9.38366C25.6557 8.64403 24.3717 8.27377 23.9541 8.88732C23.8217 9.08173 23.6879 9.27545 23.5528 9.46914C23.3942 9.69654 23.5027 10.0099 23.7797 9.99721C23.8118 9.99573 23.8439 9.99342 23.8759 9.99042C24.1476 9.96488 24.37 10.2058 24.2864 10.4656V10.4656C24.2074 10.7108 23.9009 10.7927 23.6693 10.6799C22.6423 10.1797 21.6131 10.9037 21.6041 12.0741C21.6075 12.2075 21.62 12.3311 21.6405 12.4453C21.8256 13.4748 22.38 14.4477 21.3587 14.2218V14.2218C21.2642 14.2009 21.299 14.1945 21.2107 14.1547C20.7061 13.9272 20.215 13.8852 19.7055 13.884C19.3426 13.8831 19.087 13.5369 19.3174 13.2565V13.2565C19.6642 12.8342 20.4155 11.6052 20.4658 11.0611C20.544 10.2148 20.9814 9.40968 21.5644 8.85192C21.8507 8.578 21.8894 8.04387 21.7482 7.67362V7.67362C21.5526 7.16024 20.7688 6.12311 20.2846 6.38266C20.0035 6.53332 19.7986 6.62901 19.7339 6.62757C18.8074 6.52259 19.0593 4.88474 19.413 4.00305C19.4131 4.00295 19.4132 4.00289 19.4133 4.00289V4.00289ZM9.16932 5.96955C9.24865 5.96916 9.32776 5.98178 9.40524 6.00716V6.00716C9.63468 6.09026 9.70697 6.30177 9.51418 6.45137C9.45588 6.49661 9.39222 6.52405 9.329 6.51928C9.18998 6.50879 9.10052 6.40194 9.04301 6.14649C9.0228 6.05667 9.07764 5.96109 9.16932 5.96955V5.96955ZM22.9075 11.743V11.743C23.5036 11.7303 23.5058 12.7571 22.9095 12.764C22.6556 12.767 22.4255 12.6317 22.394 12.2865C22.3727 12.0551 22.595 11.7492 22.9077 11.743H22.9075Z" fill="#D21034"/>
</svg>
